<svg width="80" height="80" viewBox="0 0 80 80" fill="none" xmlns="http://www.w3.org/2000/svg">
  <!-- Bravioo Mascot - Happy Dolphin -->
  
  <!-- Body -->
  <ellipse cx="40" cy="45" rx="25" ry="18" fill="#3A9355"/>
  <ellipse cx="40" cy="45" rx="20" ry="14" fill="#5ab77f"/>
  
  <!-- Head -->
  <ellipse cx="40" cy="25" rx="18" ry="15" fill="#3A9355"/>
  <ellipse cx="40" cy="25" rx="14" ry="12" fill="#5ab77f"/>
  
  <!-- Snout -->
  <ellipse cx="40" cy="15" rx="8" ry="6" fill="#3A9355"/>
  <ellipse cx="40" cy="15" rx="6" ry="4" fill="#5ab77f"/>
  
  <!-- Eyes -->
  <circle cx="35" cy="22" r="3" fill="white"/>
  <circle cx="45" cy="22" r="3" fill="white"/>
  <circle cx="35" cy="22" r="1.5" fill="#1a1a1a"/>
  <circle cx="45" cy="22" r="1.5" fill="#1a1a1a"/>
  
  <!-- Eye highlights -->
  <circle cx="35.5" cy="21.5" r="0.5" fill="white"/>
  <circle cx="45.5" cy="21.5" r="0.5" fill="white"/>
  
  <!-- Smile -->
  <path d="M35 28 Q40 32 45 28" stroke="#2d7a44" stroke-width="2" stroke-linecap="round" fill="none"/>
  
  <!-- Dorsal fin -->
  <path d="M40 35 L45 25 L50 30 L45 40 Z" fill="#2d7a44"/>
  
  <!-- Tail -->
  <ellipse cx="15" cy="45" rx="8" ry="12" fill="#2d7a44" transform="rotate(-20 15 45)"/>
  <ellipse cx="15" cy="45" rx="5" ry="8" fill="#3A9355" transform="rotate(-20 15 45)"/>
  
  <!-- Fins -->
  <ellipse cx="25" cy="40" rx="6" ry="3" fill="#2d7a44" transform="rotate(-45 25 40)"/>
  <ellipse cx="55" cy="40" rx="6" ry="3" fill="#2d7a44" transform="rotate(45 55 40)"/>
  
  <!-- Belly -->
  <ellipse cx="40" cy="50" rx="12" ry="8" fill="#8dd1a8"/>
  
  <!-- Spots/Details -->
  <circle cx="32" cy="35" r="1.5" fill="#C8A96A" opacity="0.6"/>
  <circle cx="48" cy="38" r="1.5" fill="#C8A96A" opacity="0.6"/>
  <circle cx="40" cy="32" r="1" fill="#C8A96A" opacity="0.4"/>
  
  <!-- Celebration sparkles -->
  <path d="M25 15 L27 17 L25 19 L23 17 Z" fill="#C8A96A"/>
  <path d="M60 20 L62 22 L60 24 L58 22 Z" fill="#C8A96A"/>
  <path d="M20 35 L22 37 L20 39 L18 37 Z" fill="#C8A96A"/>
  <circle cx="65" cy="35" r="1" fill="#C8A96A"/>
  <circle cx="15" cy="25" r="0.8" fill="#C8A96A"/>
</svg>
