<svg xmlns="http://www.w3.org/2000/svg" width="578.21" height="172.7" viewBox="0 0 578.21 172.7"><g id="Layer_2" data-name="Layer 2"><g id="Layer_1-2" data-name="Layer 1"><path d="M48.65,78.34a7.73,7.73,0,1,1,7.72-7.72A7.74,7.74,0,0,1,48.65,78.34Zm0-11.86a4.14,4.14,0,1,0,4.13,4.14A4.15,4.15,0,0,0,48.65,66.48Z" fill="#12356e"/><path d="M105.06,78.34a7.73,7.73,0,1,1,7.73-7.72A7.73,7.73,0,0,1,105.06,78.34Zm0-11.86a4.14,4.14,0,1,0,4.14,4.14A4.14,4.14,0,0,0,105.06,66.48Z" fill="#12356e"/><path d="M105.06,110.87a7.73,7.73,0,1,1,7.73-7.72A7.73,7.73,0,0,1,105.06,110.87Zm0-11.86a4.14,4.14,0,1,0,4.14,4.14A4.14,4.14,0,0,0,105.06,99Z" fill="#12356e"/><path d="M48.65,110.87a7.73,7.73,0,1,1,7.72-7.72A7.74,7.74,0,0,1,48.65,110.87Zm0-11.86a4.14,4.14,0,1,0,4.13,4.14A4.15,4.15,0,0,0,48.65,99Z" fill="#12356e"/><path d="M76.85,126.89a7.73,7.73,0,1,1,7.73-7.73A7.74,7.74,0,0,1,76.85,126.89Zm0-11.86A4.14,4.14,0,1,0,81,119.16,4.13,4.13,0,0,0,76.85,115Z" fill="#12356e"/><path d="M76.85,63.13a7.73,7.73,0,1,1,7.73-7.73A7.74,7.74,0,0,1,76.85,63.13Zm0-11.86A4.14,4.14,0,1,0,81,55.4,4.13,4.13,0,0,0,76.85,51.27Z" fill="#12356e"/><polygon points="81.66 114.29 81.66 118.4 101.73 107.14 99.28 107.14 99.28 104.4 81.66 114.29" fill="#12356e"/><polygon points="72.05 114.49 54.58 104.68 54.58 106.82 51.07 106.82 72.05 118.6 72.05 114.49" fill="#12356e"/><rect x="103.27" y="76.59" width="3.59" height="20.94" fill="#12356e"/><rect x="46.5" y="75.42" width="3.59" height="21.8" fill="#12356e"/><polygon points="72.34 55.8 53.64 66.3 53.64 70.41 72.34 59.92 72.34 55.8" fill="#12356e"/><polygon points="81.95 56.33 81.95 60.44 99.82 70.47 99.82 66.99 100.94 66.99 81.95 56.33" fill="#12356e"/><path d="M80.11,49.59c2-1.17,3.8-2.1,5.73-3.05s3.84-1.81,5.8-2.62a105.33,105.33,0,0,1,12-4.21,81.89,81.89,0,0,1,25-3.42l3.16.15a11.9,11.9,0,0,1,1.58.15l1.57.21c1.05.14,2.1.25,3.14.43s2.09.39,3.12.72l1.54.44,1.52.56a14,14,0,0,1,1.49.65,10.44,10.44,0,0,1,1.44.76A13.67,13.67,0,0,1,152,44.8,12.27,12.27,0,0,1,153.88,51a19.59,19.59,0,0,1-.94,6.26A33.07,33.07,0,0,1,150.51,63a39.87,39.87,0,0,1-3.32,5.23,36.93,36.93,0,0,0,4.94-11.19,18.53,18.53,0,0,0,.5-6,10.61,10.61,0,0,0-2-5.35,11.8,11.8,0,0,0-4.43-3.56,10.54,10.54,0,0,0-1.33-.59,13.29,13.29,0,0,0-1.38-.49l-1.42-.42-1.45-.31c-1-.24-2-.31-3-.47s-2-.13-3-.21l-1.51-.09a10.75,10.75,0,0,0-1.5,0l-3,.07a77.41,77.41,0,0,0-23.51,4.85,100.86,100.86,0,0,0-11.06,4.75c-1.8.9-3.57,1.84-5.3,2.84-.87.48-1.71,1-2.57,1.52s-1.7,1.08-2.42,1.58Z" fill="#12356e"/><path d="M45.45,63.93c0-2.3.18-4.34.37-6.48s.46-4.22.77-6.32a106.72,106.72,0,0,1,2.62-12.4A82,82,0,0,1,59.29,15.56l1.77-2.63A14.47,14.47,0,0,1,62,11.66l1-1.23c.67-.82,1.31-1.66,2-2.46s1.41-1.58,2.23-2.29l1.18-1.09,1.26-1A15.77,15.77,0,0,1,71,2.65a12.35,12.35,0,0,1,1.4-.84A13.76,13.76,0,0,1,78.71,0,12.4,12.4,0,0,1,85,1.63a20.09,20.09,0,0,1,4.86,4.06,32.18,32.18,0,0,1,3.64,5.07,39.72,39.72,0,0,1,2.74,5.55,36.77,36.77,0,0,0-7-10,18.8,18.8,0,0,0-4.83-3.53A10.84,10.84,0,0,0,78.8,1.67a11.92,11.92,0,0,0-5.34,1.94,10.68,10.68,0,0,0-1.19.84,10,10,0,0,0-1.14.92L70,6.36,69,7.44c-.71.69-1.29,1.52-1.93,2.27s-1.16,1.65-1.75,2.47l-.86,1.23a12.94,12.94,0,0,0-.82,1.26l-1.51,2.61a77.82,77.82,0,0,0-8.07,22.61,101.93,101.93,0,0,0-1.69,11.93c-.16,2-.27,4-.32,6,0,1,0,2,0,3s0,2,.09,2.89Z" fill="#12356e"/><path d="M41.17,102.37c-2-1.21-3.62-2.4-5.35-3.68s-3.37-2.58-5-3.94a105.28,105.28,0,0,1-9.24-8.68A81.73,81.73,0,0,1,7,65.43L5.69,62.55a12.52,12.52,0,0,1-.59-1.47l-.54-1.49c-.35-1-.74-2-1.06-3s-.62-2-.8-3.1l-.32-1.57-.2-1.61a14.53,14.53,0,0,1-.11-1.62,12.68,12.68,0,0,1,0-1.63,13.78,13.78,0,0,1,1.73-6.33,12.25,12.25,0,0,1,4.66-4.52,20.07,20.07,0,0,1,6-2,32.48,32.48,0,0,1,6.22-.48,38.65,38.65,0,0,1,6.17.54A37,37,0,0,0,14.64,35a18.65,18.65,0,0,0-5.53,2.3,10.75,10.75,0,0,0-3.83,4.24,11.81,11.81,0,0,0-1.11,5.58,10.08,10.08,0,0,0,.09,1.45A10.11,10.11,0,0,0,4.46,50l.27,1.45.4,1.43c.23,1,.63,1.89.94,2.83s.8,1.85,1.2,2.77l.61,1.38a12.08,12.08,0,0,0,.65,1.36L10,63.88A77.59,77.59,0,0,0,25.11,82.51a98.81,98.81,0,0,0,9.32,7.64q2.43,1.77,5,3.39c.84.56,1.7,1,2.54,1.58s1.74,1,2.51,1.42Z" fill="#12356e"/><path d="M73.77,123.11c-2,1.17-3.79,2.1-5.72,3s-3.84,1.8-5.8,2.62a105.33,105.33,0,0,1-12,4.21,81.89,81.89,0,0,1-25,3.42l-3.17-.15a11.91,11.91,0,0,1-1.57-.15L19,135.9c-1.05-.14-2.1-.25-3.14-.43s-2.09-.39-3.12-.72l-1.54-.44-1.52-.56a14,14,0,0,1-1.49-.65,11.66,11.66,0,0,1-1.44-.76,13.67,13.67,0,0,1-4.82-4.44A12.28,12.28,0,0,1,0,121.68a19.88,19.88,0,0,1,1-6.26,33.07,33.07,0,0,1,2.43-5.74,39.87,39.87,0,0,1,3.32-5.23,36.93,36.93,0,0,0-4.94,11.19,18.82,18.82,0,0,0-.51,6,10.8,10.8,0,0,0,2,5.35,11.91,11.91,0,0,0,4.44,3.56A10.54,10.54,0,0,0,9,131.1a13.29,13.29,0,0,0,1.38.49l1.42.42,1.45.31c1,.24,2,.31,2.94.47s2,.13,3,.21l1.51.09a12.53,12.53,0,0,0,1.5,0l3-.07a77.47,77.47,0,0,0,23.51-4.85,100.86,100.86,0,0,0,11.06-4.75c1.8-.9,3.57-1.84,5.3-2.84.87-.48,1.71-1,2.57-1.52s1.7-1.08,2.42-1.58Z" fill="#12356e"/><path d="M108.43,108.77c0,2.3-.17,4.34-.36,6.48s-.46,4.22-.77,6.32a107.16,107.16,0,0,1-2.62,12.4A82,82,0,0,1,94.6,157.14l-1.77,2.63a14.47,14.47,0,0,1-1,1.27l-1,1.23c-.66.82-1.3,1.66-2,2.46s-1.41,1.58-2.23,2.29l-1.18,1.09-1.27,1a12.57,12.57,0,0,1-1.32.94,12.35,12.35,0,0,1-1.4.84,13.76,13.76,0,0,1-6.3,1.81,12.4,12.4,0,0,1-6.29-1.63A20.12,20.12,0,0,1,64,167a32.65,32.65,0,0,1-3.64-5.07,39.77,39.77,0,0,1-2.75-5.55,37,37,0,0,0,7,10A18.8,18.8,0,0,0,69.47,170,10.94,10.94,0,0,0,75.09,171a11.92,11.92,0,0,0,5.34-1.94,10.68,10.68,0,0,0,1.19-.84,10,10,0,0,0,1.14-.92l1.09-1,1-1.08c.7-.69,1.29-1.52,1.93-2.27s1.16-1.65,1.75-2.47l.86-1.23a12.94,12.94,0,0,0,.82-1.26l1.51-2.62a77.76,77.76,0,0,0,8.07-22.6,101.93,101.93,0,0,0,1.69-11.93q.24-3,.32-6c0-1,0-2,0-3s0-2-.09-2.89Z" fill="#12356e"/><path d="M112.72,70.33c2,1.21,3.61,2.4,5.35,3.68s3.36,2.58,5,3.94a105.28,105.28,0,0,1,9.24,8.68,81.73,81.73,0,0,1,14.57,20.64l1.33,2.88a14.54,14.54,0,0,1,.59,1.47l.54,1.49c.35,1,.73,2,1.06,3s.62,2,.8,3.1l.32,1.57.2,1.61a14.53,14.53,0,0,1,.11,1.62,12.68,12.68,0,0,1,0,1.63,13.78,13.78,0,0,1-1.73,6.33,12.25,12.25,0,0,1-4.66,4.52,20.07,20.07,0,0,1-6,2.05,32.54,32.54,0,0,1-6.22.48,38.65,38.65,0,0,1-6.17-.54,37,37,0,0,0,12.21-.76,18.65,18.65,0,0,0,5.53-2.3,10.82,10.82,0,0,0,3.83-4.24,11.93,11.93,0,0,0,1.11-5.58,19.43,19.43,0,0,0-.29-2.9l-.28-1.45-.39-1.43c-.23-1-.63-1.89-.94-2.83s-.81-1.85-1.2-2.77l-.61-1.38a12.08,12.08,0,0,0-.65-1.36l-1.45-2.64a77.84,77.84,0,0,0-15.13-18.64,100.28,100.28,0,0,0-9.32-7.63c-1.62-1.18-3.27-2.32-4.95-3.39-.84-.56-1.7-1.06-2.54-1.58s-1.74-1-2.52-1.42Z" fill="#12356e"/><circle cx="22.84" cy="115.1" r="7.51" fill="#0090e3"/><path d="M17.8,111.52a10.2,10.2,0,0,1-.72-1.12c-.22-.35-.39-.7-.58-1.06-.36-.7-.71-1.4-1-2.12s-.59-1.43-.84-2.15-.48-1.45-.71-2.18a49.32,49.32,0,0,1-1.7-8.83c-.13-1.49-.26-3-.25-4.44s0-3,.06-4.42.26-2.92.37-4.37.44-2.89.65-4.33c0,1.46,0,2.91,0,4.36s.09,2.88.26,4.32.28,2.86.55,4.26.53,2.81.84,4.19a47.25,47.25,0,0,0,2.76,8c.3.63.58,1.26.92,1.86s.65,1.21,1,1.78.73,1.14,1.11,1.68c.19.26.38.54.59.78a5.83,5.83,0,0,0,.55.64,2.52,2.52,0,1,1-3.77,3.32Z" fill="#0090e3"/><circle cx="75.84" cy="147.55" r="7.51" fill="#0090e3"/><path d="M70.27,150.22a11.54,11.54,0,0,1-1.33.09c-.42,0-.81,0-1.21,0-.79,0-1.57-.06-2.34-.15s-1.54-.18-2.29-.31-1.5-.28-2.25-.43a49.73,49.73,0,0,1-8.55-2.8c-1.36-.61-2.71-1.21-4-1.93s-2.57-1.45-3.82-2.2S42,140.84,40.82,140s-2.32-1.78-3.47-2.66c1.27.71,2.53,1.44,3.8,2.13s2.57,1.32,3.9,1.87,2.64,1.14,4,1.59,2.71.89,4.07,1.29a46.74,46.74,0,0,0,8.29,1.44c.7,0,1.39.11,2.07.1s1.38,0,2.05,0,1.35-.09,2-.16c.32,0,.66-.07,1-.13a6.17,6.17,0,0,0,.82-.18,2.52,2.52,0,1,1,1.53,4.81,3.63,3.63,0,0,1-.45.1Z" fill="#0090e3"/><circle cx="129.91" cy="116.93" r="7.51" fill="#0090e3"/><path d="M129.55,123.09a11.73,11.73,0,0,1-.57,1.21c-.18.37-.39.71-.59,1-.4.68-.81,1.35-1.27,2s-.9,1.25-1.38,1.85-1,1.17-1.47,1.75a49.47,49.47,0,0,1-6.59,6.13c-1.19.89-2.37,1.78-3.63,2.56s-2.51,1.55-3.78,2.29-2.61,1.33-3.91,2-2.67,1.16-4,1.74c1.23-.76,2.48-1.5,3.7-2.28s2.4-1.62,3.53-2.51,2.27-1.76,3.32-2.73,2.1-1.94,3.11-2.94a47.62,47.62,0,0,0,5.28-6.55c.37-.59.76-1.16,1.09-1.76s.68-1.19,1-1.8.58-1.23.84-1.83c.12-.31.25-.62.35-.92s.21-.64.25-.8a2.52,2.52,0,1,1,4.94,1,3.19,3.19,0,0,1-.13.44Z" fill="#0090e3"/><circle cx="129.35" cy="54.79" r="7.51" fill="#0090e3"/><path d="M134.57,58.09c.35.43.54.73.78,1.08s.42.69.63,1c.4.68.78,1.37,1.11,2.07s.66,1.39.95,2.1.56,1.42.82,2.14A49.09,49.09,0,0,1,141,75.24c.2,1.48.41,2.94.48,4.42s.14,3,.16,4.42-.1,2.93-.14,4.38-.28,2.91-.42,4.35c-.07-1.45-.11-2.9-.2-4.34s-.25-2.88-.49-4.31-.43-2.84-.77-4.23-.68-2.77-1.06-4.13a47.19,47.19,0,0,0-3.17-7.8c-.34-.61-.65-1.23-1-1.81s-.71-1.17-1.1-1.73-.79-1.09-1.19-1.61c-.21-.26-.42-.52-.63-.75a7.15,7.15,0,0,0-.59-.61,2.52,2.52,0,0,1,3.26-3.84,2.57,2.57,0,0,1,.33.33Z" fill="#0090e3"/><circle cx="74.72" cy="25.15" r="7.51" fill="#0090e3"/><path d="M80.15,22.19A13,13,0,0,1,81.47,22c.41,0,.81,0,1.2-.06.8,0,1.58,0,2.35,0s1.54.09,2.3.19,1.52.2,2.27.31a50.58,50.58,0,0,1,8.69,2.34c1.39.55,2.77,1.08,4.1,1.73s2.64,1.3,3.94,2,2.52,1.51,3.77,2.25,2.4,1.66,3.6,2.48c-1.31-.64-2.6-1.31-3.9-1.93s-2.64-1.18-4-1.66-2.69-1-4.08-1.38-2.75-.75-4.13-1.07a46.78,46.78,0,0,0-8.36-1c-.69,0-1.38,0-2.07,0s-1.37.06-2,.13-1.35.16-2,.26c-.32.06-.65.11-1,.19a7.07,7.07,0,0,0-.81.21,2.52,2.52,0,1,1-1.78-4.71,2.44,2.44,0,0,1,.44-.13Z" fill="#0090e3"/><circle cx="22.32" cy="58.56" r="7.51" fill="#0090e3"/><path d="M22.36,52.38a11.82,11.82,0,0,1,.51-1.23c.16-.38.35-.73.53-1.08.37-.7.75-1.39,1.17-2s.83-1.3,1.28-1.92.91-1.23,1.37-1.83a49.74,49.74,0,0,1,6.26-6.46c1.15-1,2.28-1.91,3.5-2.76s2.42-1.67,3.65-2.47,2.54-1.47,3.8-2.21,2.61-1.3,3.91-1.95c-1.2.83-2.4,1.64-3.58,2.48s-2.31,1.74-3.39,2.69-2.18,1.87-3.18,2.9-2,2-2.94,3.09a47.64,47.64,0,0,0-4.94,6.82c-.33.61-.7,1.2-1,1.82s-.62,1.23-.88,1.85-.51,1.25-.74,1.87c-.1.31-.22.63-.3.93a8.32,8.32,0,0,0-.21.82,2.52,2.52,0,1,1-5-.73,2.11,2.11,0,0,1,.1-.45Z" fill="#0090e3"/><path d="M188.93,79.53V42.82h23.62q10.09,0,15.54,4.72T233.53,61a20,20,0,0,1-2.12,9.26,16.12,16.12,0,0,1-6,6.48,17.54,17.54,0,0,1-6,2.17,50.64,50.64,0,0,1-9.12.67Zm8.54-6.91h11.05q8.82,0,12.5-2.74t3.68-9.07q0-5.62-3-8.53t-9-2.9H197.47Z" fill="#12356e"/><path d="M262.87,51.5q0-5,1.88-6.84c1.25-1.23,3.65-1.84,7.22-1.84h27q5.34,0,7.22,1.84t1.88,6.84V70.85c0,3.36-.63,5.64-1.88,6.86s-3.66,1.82-7.22,1.82H272c-3.57,0-6-.6-7.22-1.82s-1.88-3.5-1.88-6.86Zm8.55,21.12h28.17V49.38H271.42Z" fill="#12356e"/><path d="M357.62,49.38V79.53h-8.54V49.38H332.23V42.82h42.31v6.56Z" fill="#12356e"/><path d="M399.37,79.53V42.82h5.83L431,64.46c.88.72,1.66,1.39,2.33,2a22.32,22.32,0,0,1,1.84,2c-.14-2.06-.23-3.52-.27-4.37s-.07-1.52-.07-2V42.82h7.67V79.53h-5.83l-27-22.68c-.65-.58-1.21-1.1-1.7-1.56a17.94,17.94,0,0,1-1.35-1.43c.11,1.14.2,2.21.26,3.22S407,59,407,59.7V79.53Z" fill="#12356e"/><path d="M475.71,79.53V42.82h37.58v6.25h-29v8.2H501.2v6.25H484.25v9.1h29.39v6.91Z" fill="#12356e"/><path d="M560.94,49.38V79.53H552.4V49.38H535.55V42.82h42.31v6.56Z" fill="#12356e"/><rect x="188.63" y="117.05" width="35.8" height="2.91" fill="#12356e"/><rect x="542.41" y="117.05" width="35.8" height="2.91" fill="#12356e"/><path d="M239.23,106.41a42.94,42.94,0,0,1,6.42-.49c4.34,0,7.43,1,9.48,2.92s3.3,4.62,3.3,8.4a12.37,12.37,0,0,1-3.37,9.1c-2.18,2.19-5.79,3.37-10.34,3.37a49.58,49.58,0,0,1-5.49-.28Zm3,20.69a18.89,18.89,0,0,0,3.06.18c6.46,0,10-3.61,10-9.93,0-5.52-3.09-9-9.48-9a17.47,17.47,0,0,0-3.54.31Z" fill="#12356e"/><path d="M281.53,118.53h-9.1V127h10.14v2.53H269.41V106.1h12.64v2.53h-9.62V116h9.1Z" fill="#12356e"/><path d="M299,129.5l-7.64-23.4h3.27l3.64,11.52c1,3.16,1.88,6,2.5,8.75h.07c.66-2.7,1.63-5.65,2.68-8.71l4-11.56h3.23l-8.36,23.4Z" fill="#12356e"/><path d="M332.41,118.53h-9.1V127h10.14v2.53H320.29V106.1h12.64v2.53h-9.62V116h9.1Z" fill="#12356e"/><path d="M344.43,106.1h3V127h10v2.53h-13Z" fill="#12356e"/><path d="M386.52,117.55c0,8.06-4.89,12.33-10.87,12.33-6.18,0-10.52-4.79-10.52-11.87,0-7.44,4.62-12.3,10.87-12.3S386.52,110.61,386.52,117.55Zm-18.16.39c0,5,2.71,9.48,7.47,9.48s7.5-4.41,7.5-9.73c0-4.65-2.43-9.51-7.47-9.51S368.36,112.8,368.36,117.94Z" fill="#12356e"/><path d="M397.5,106.37a35.41,35.41,0,0,1,5.8-.45c3,0,5.18.7,6.57,2a6.29,6.29,0,0,1,2,4.89,6.88,6.88,0,0,1-1.8,5,9.7,9.7,0,0,1-7.15,2.57,10.13,10.13,0,0,1-2.44-.21v9.38h-3Zm3,11.29a10.37,10.37,0,0,0,2.5.24c3.65,0,5.87-1.77,5.87-5s-2.18-4.58-5.52-4.58a12.74,12.74,0,0,0-2.85.24Z" fill="#12356e"/><path d="M442.34,119.22c-.17-3.26-.38-7.19-.35-10.1h-.1c-.8,2.74-1.77,5.66-2.95,8.89l-4.14,11.35h-2.29l-3.78-11.15c-1.11-3.29-2.05-6.32-2.71-9.09H426c-.07,2.91-.24,6.84-.45,10.34l-.63,10H422l1.63-23.4h3.86l4,11.32c1,2.88,1.77,5.45,2.36,7.88h.11c.59-2.36,1.42-4.93,2.46-7.88l4.17-11.32h3.85l1.46,23.4h-2.95Z" fill="#12356e"/><path d="M469.71,118.53h-9.1V127h10.14v2.53H457.59V106.1h12.64v2.53h-9.62V116h9.1Z" fill="#12356e"/><path d="M481.73,129.5V106.1H485l7.5,11.84a65.66,65.66,0,0,1,4.2,7.6l.07,0c-.28-3.13-.35-6-.35-9.62V106.1h2.85v23.4h-3.06l-7.43-11.88a73.49,73.49,0,0,1-4.37-7.81l-.11,0c.18,3,.25,5.76.25,9.65v10Z" fill="#12356e"/><path d="M516.08,108.66H509V106.1h17.33v2.56h-7.16V129.5h-3Z" fill="#12356e"/></g></g></svg>