<?xml version="1.0" encoding="utf-8"?>
<!-- Generator: Adobe Illustrator 28.1.0, SVG Export Plug-In . SVG Version: 6.00 Build 0)  -->
<svg version="1.1" id="Layer_1" xmlns="http://www.w3.org/2000/svg" xmlns:xlink="http://www.w3.org/1999/xlink" x="0px" y="0px"
	 viewBox="0 0 100 100" style="enable-background:new 0 0 100 100;" xml:space="preserve">
<style type="text/css">
	.st0{fill:#0A2240;}
	.st1{fill:#FFFFFF;}
	.st2{fill-rule:evenodd;clip-rule:evenodd;fill:#FFFFFF;}
</style>
<g>
	<polygon class="st0" points="0,-0.08 100,-0.08 100,99.92 0,99.92 0,-0.08 	"/>
	<g>
		<g>
			<g>
				<path class="st1" d="M24.31,78.43c0,3.38-2.59,6-5.97,6c-3.31,0-5.99-2.57-5.99-6c0-3.41,2.66-5.95,5.95-5.95
					c1.67,0,3.15,0.75,4.12,1.92v-5.69h1.9V78.43z M18.34,74.2c-2.22,0-4.03,1.86-4.03,4.23c0,2.41,1.8,4.27,4.03,4.27
					c2.18,0,4.03-1.9,4.03-4.27C22.37,76.08,20.54,74.2,18.34,74.2z"/>
				<path class="st1" d="M40.41,84.16h-1.9v-1.77c-0.93,1.24-2.43,2.06-4.12,2.06c-3.29,0-5.95-2.57-5.95-5.97
					c0-3.43,2.68-5.99,5.99-5.99c3.38,0,5.97,2.63,5.97,5.99V84.16z M34.44,74.2c-2.22,0-4.03,1.88-4.03,4.27
					c0,2.39,1.8,4.23,4.03,4.23c2.2,0,4.03-1.88,4.03-4.23C38.47,76.1,36.62,74.2,34.44,74.2z"/>
				<path class="st1" d="M61.73,84.16h-1.97v-7.37c0-1.48-1.02-2.59-2.59-2.59c-1.57,0-2.59,1.11-2.59,2.59v7.37H52.6v-7.37
					c0-1.48-1.02-2.59-2.59-2.59c-1.57,0-2.59,1.11-2.59,2.59v7.37h-1.97v-7.3c0-2.48,1.87-4.38,4.56-4.38
					c1.62,0,2.87,0.73,3.56,1.88c0.72-1.15,1.97-1.88,3.59-1.88c2.71,0,4.56,1.9,4.56,4.38V84.16z"/>
				<path class="st1" d="M78.24,84.16h-1.9v-1.77c-0.93,1.24-2.43,2.06-4.12,2.06c-3.29,0-5.95-2.57-5.95-5.97
					c0-3.43,2.68-5.99,5.99-5.99c3.38,0,5.97,2.63,5.97,5.99V84.16z M72.27,74.2c-2.22,0-4.03,1.88-4.03,4.27
					c0,2.39,1.81,4.23,4.03,4.23c2.2,0,4.03-1.88,4.03-4.23C76.3,76.1,74.45,74.2,72.27,74.2z"/>
				<path class="st1" d="M87.66,84.16c-2.78,0.31-4.7-1.26-4.7-4.16V68.71h1.94v4.05h2.71v1.79H84.9V80c0,2.01,1.27,2.52,2.75,2.43
					V84.16z"/>
			</g>
			<g>
				<path class="st2" d="M21.84,30.13c0-3.94,0-9.15,0.05-10.89c0-0.56,0.17-0.82,0.67-1.03c0.45-0.2,2.52-0.36,3.64-0.36
					c6.66,0,13.04,0.72,18.31,5.78c2.29,2.2,5.38,6.39,5.38,12.89c0,4.7-1.57,9.62-4.48,12.23c-3.3,3.02-8.12,4.76-13.32,4.76
					c-6.61,0-8.79-1.07-9.52-2.04c-0.45-0.57-0.56-2.61-0.62-3.89c-0.06-0.97-0.11-5.68-0.11-11.1V30.13L21.84,30.13z M17.14,39.95
					c0,4.91,0,8.95-0.28,11.1c-0.23,1.48-0.5,2.61-1.63,2.82c-0.5,0.1-2.57,0.2-3.07,0.2l0.01,0.72c1.68,0,7.04-0.15,7.32-0.15
					c0.56,0,7.61,0.61,12.43,0.61c9.52,0,14.56-3.58,16.96-5.88c3.14-3.02,6.05-7.98,6.05-14.43c0-6.09-2.63-10.33-5.43-12.99
					c-6.66-6.29-16.91-5.83-22.45-5.83c-3.36,0-6.89,0.15-7.56,0.15c-0.28,0-4.8-0.15-7.32-0.15v0.71c0.5,0,2,0.05,2.45,0.15
					c1.85,0.36,2.29,1.18,2.41,2.92c0.11,1.64,0.11,3.07,0.11,11.05V39.95L17.14,39.95z"/>
				<path class="st1" d="M74.62,55.5c3.02,0,6.05-0.62,8.45-2.15c3.86-2.51,4.76-6.39,4.76-8.49c0-4.09-1.57-7.27-8.17-12.02
					l-1.57-1.12c-5.26-3.94-6.83-5.68-6.83-8.6c0-3.73,3.02-5.93,6.89-5.93c5.15,0,6.66,2.15,7,2.71c0.34,0.56,0.67,1.94,0.73,2.56
					l0.82-0.01c0-3.48,0.24-5.67,0.24-5.92c0,0-1.46-0.41-2.52-0.61c-1.4-0.31-3.02-0.51-5.21-0.51c-7.11,0-11.59,3.73-11.59,9.21
					c0,3.48,1.34,6.65,7.28,11.1l2.52,1.89c4.81,3.63,6.44,5.68,6.44,9.21c0,3.27-2.63,6.8-8.01,6.8c-3.75,0-7.45-1.43-8.29-5.22
					c-0.17-0.72-0.16-1.69-0.16-2.15l-0.83-0.02c-0.05,0.82-0.4,7.55-0.4,7.55C68.48,54.91,71.99,55.5,74.62,55.5L74.62,55.5z"/>
				<polygon class="st1" points="60.98,26.23 59.31,26.23 58.12,15.7 62.17,15.7 				"/>
			</g>
		</g>
		<rect x="12.17" y="61.91" class="st1" width="75.67" height="0.77"/>
	</g>
</g>
</svg>
