<?xml version="1.0" encoding="UTF-8"?>
<svg id="Layer_1" data-name="Layer 1" xmlns="http://www.w3.org/2000/svg" viewBox="0 0 201.89 70.77">
  <defs>
    <style>
      .cls-1 {
        fill: #000;
      }

      .cls-1, .cls-2 {
        stroke-width: 0px;
      }

      .cls-2 {
        fill: #fe0;
      }
    </style>
  </defs>
  <rect class="cls-2" x="1.01" y="1.05" width="199.87" height="68.66" rx="10.25" ry="10.25"/>
  <g id="Group_4" data-name="Group 4">
    <g id="Group_3" data-name="Group 3">
      <path id="Vector" class="cls-1" d="M10.56,47.57v-18.57h10.21v1.92h-8.03v5.52h7.78v1.92h-7.78v7.28h8.03v1.92h-10.21Z"/>
      <path id="Vector_2" data-name="Vector 2" class="cls-1" d="M24.03,47.57v-19.32l15.31,15.14v-14.39h2.26v19.41l-15.31-15.14v14.3h-2.26Z"/>
      <path id="Vector_3" data-name="Vector 3" class="cls-1" d="M55.24,38.2h8.12c.08,1.17-.08,2.34-.33,3.51-.33,1.17-1,2.34-1.84,3.18-.84.92-1.92,1.67-3.1,2.17-1.26.5-2.59.84-4.02.84-2.68.08-5.27-1-7.11-2.84-3.77-3.43-4.02-9.28-.5-13.05.17-.17.33-.33.5-.5,4.35-4.02,11.05-3.76,15.06.59.17.17.33.42.5.59l-1.59,1.42c-1.51-2.17-4.1-3.51-6.78-3.51-2.09-.08-4.18.75-5.69,2.26-1.51,1.42-2.34,3.43-2.34,5.44s.84,3.93,2.26,5.27c1.51,1.51,3.51,2.34,5.61,2.34,1.76,0,3.43-.5,4.77-1.59,1.42-.92,2.18-2.51,2.26-4.18h-5.86l.08-1.92Z"/>
      <path id="Vector_4" data-name="Vector 4" class="cls-1" d="M68.13,29v16.65h5.44v1.92h-7.62v-18.57h2.18Z"/>
      <path id="Vector_5" data-name="Vector 5" class="cls-1" d="M77.42,29h-2.18v18.57h2.18v-18.57Z"/>
      <path id="Vector_6" data-name="Vector 6" class="cls-1" d="M91.56,31.59l-1.76,1c-.67-1.25-1.92-2.01-3.35-2.01-.84,0-1.67.25-2.26.75-.67.5-1,1.25-1,2.09,0,.75.42,1.42,1,1.84.67.42,1.34.75,2.01,1.09l1.34.5c1.17.42,2.34,1.09,3.26,1.92.92.84,1.42,2.09,1.42,3.35,0,1.59-.59,3.09-1.76,4.1-2.34,2.09-5.86,2.17-8.37.33-1.09-.92-1.84-2.09-2.09-3.51l2.18-.59c.08.92.59,1.84,1.34,2.51.75.67,1.67,1,2.59,1,1,0,2.01-.33,2.85-1,.75-.67,1.26-1.59,1.17-2.59,0-.92-.42-1.76-1.09-2.34-.75-.59-1.59-1-2.51-1.34l-1.17-.5c-1.09-.42-2.09-1-3.01-1.76-.84-.75-1.26-1.84-1.26-3.01,0-1.34.59-2.59,1.67-3.43,1.09-.84,2.43-1.34,3.85-1.25,2.01-.17,3.93,1,4.94,2.84Z"/>
      <path id="Vector_7" data-name="Vector 7" class="cls-1" d="M97.17,36.53h10.13v-7.53h2.18v18.57h-2.18v-9.12h-10.13v9.12h-2.18v-18.57h2.18v7.53Z"/>
      <path id="Vector_8" data-name="Vector 8" class="cls-1" d="M140.68,33.1v14.47h-5.1v-14.47h-4.27v-4.1h13.56v4.1h-4.18Z"/>
      <path id="Vector_9" data-name="Vector 9" class="cls-1" d="M151.31,29h-5.1v18.57h5.1v-18.57Z"/>
      <path id="Vector_10" data-name="Vector 10" class="cls-1" d="M152.9,47.57l3.35-18.57h5.02l4.02,9.95,4.18-9.95h5.1l2.93,18.57h-5.02l-1.51-10.71-4.77,10.71h-2.01l-4.52-10.71-1.67,10.71h-5.1Z"/>
      <path id="Vector_11" data-name="Vector 11" class="cls-1" d="M190.39,33.1h-6.11v3.09h5.77v4.1h-5.77v3.18h6.11v4.1h-11.21v-18.57h11.21v4.1Z"/>
      <g id="Group_1" data-name="Group 1">
        <path id="Vector_12" data-name="Vector 12" class="cls-1" d="M125.79,35.61h-9.62v.33h9.62v-.33Z"/>
        <path id="Vector_13" data-name="Vector 13" class="cls-1" d="M123.86,43.14h-.59v4.6h-.5v-4.6h-.5v4.6h-2.51v-4.6h-.59v4.6h-.5v-4.6h-.5v4.6h-2.01v.5h9.62v-.5h-1.93v-4.6Z"/>
        <path id="Vector_14" data-name="Vector 14" class="cls-1" d="M116.5,43.14h-.33v4.1h.33v-4.1Z"/>
        <path id="Vector_15" data-name="Vector 15" class="cls-1" d="M117.17,43.14h-.33v4.1h.33v-4.1Z"/>
        <path id="Vector_16" data-name="Vector 16" class="cls-1" d="M117.75,43.14h-.33v4.1h.33v-4.1Z"/>
        <path id="Vector_17" data-name="Vector 17" class="cls-1" d="M120.51,43.14h-.33v4.1h.33v-4.1Z"/>
        <path id="Vector_18" data-name="Vector 18" class="cls-1" d="M121.1,43.14h-.33v4.1h.33v-4.1Z"/>
        <path id="Vector_19" data-name="Vector 19" class="cls-1" d="M121.77,43.14h-.33v4.1h.33v-4.1Z"/>
        <path id="Vector_20" data-name="Vector 20" class="cls-1" d="M124.53,43.14h-.33v4.1h.33v-4.1Z"/>
        <path id="Vector_21" data-name="Vector 21" class="cls-1" d="M125.12,43.14h-.33v4.1h.33v-4.1Z"/>
        <path id="Vector_22" data-name="Vector 22" class="cls-1" d="M125.79,43.14h-.33v4.1h.33v-4.1Z"/>
        <path id="Vector_23" data-name="Vector 23" class="cls-1" d="M116.5,36.44h-.33v4.52h.33v-4.52Z"/>
        <path id="Vector_24" data-name="Vector 24" class="cls-1" d="M117.17,36.44h-.33v4.52h.33v-4.52Z"/>
        <path id="Vector_25" data-name="Vector 25" class="cls-1" d="M117.75,36.44h-.33v4.52h.33v-4.52Z"/>
        <path id="Vector_26" data-name="Vector 26" class="cls-1" d="M120.51,36.44h-.33v4.52h.33v-4.52Z"/>
        <path id="Vector_27" data-name="Vector 27" class="cls-1" d="M121.1,36.44h-.33v4.52h.33v-4.52Z"/>
        <path id="Vector_28" data-name="Vector 28" class="cls-1" d="M121.77,36.44h-.33v4.52h.33v-4.52Z"/>
        <path id="Vector_29" data-name="Vector 29" class="cls-1" d="M116.16,41.96h9.62v-.5h-1.93v-5.02h-.59v5.02h-.5v-5.02h-.5v5.02h-2.51v-5.02h-.59v5.02h-.5v-5.02h-.5v5.02h-2.01v.5Z"/>
        <path id="Vector_30" data-name="Vector 30" class="cls-1" d="M124.53,36.44h-.33v4.52h.33v-4.52Z"/>
        <path id="Vector_31" data-name="Vector 31" class="cls-1" d="M125.12,36.44h-.33v4.52h.33v-4.52Z"/>
        <path id="Vector_32" data-name="Vector 32" class="cls-1" d="M125.79,36.44h-.33v4.52h.33v-4.52Z"/>
        <path id="Vector_33" data-name="Vector 33" class="cls-1" d="M125.79,42.38h-9.62v.33h9.62v-.33Z"/>
        <path id="Vector_34" data-name="Vector 34" class="cls-1" d="M114.91,35.27h.25v12.97h.59v-12.97h10.71v12.97h.5v-12.97h.17v-.5h-12.22v.5Z"/>
        <path id="Vector_35" data-name="Vector 35" class="cls-1" d="M127.13,33.77h-12.22v.5h12.22v-.5Z"/>
        <path id="Vector_36" data-name="Vector 36" class="cls-1" d="M125.7,33.18h-9.37v.33h9.37v-.33Z"/>
        <path id="Vector_37" data-name="Vector 37" class="cls-1" d="M115.66,32.26h-.5v1.09h.5v-1.09Z"/>
        <path id="Vector_38" data-name="Vector 38" class="cls-1" d="M126.79,32.26h-.5v1.09h.5v-1.09Z"/>
        <path id="Vector_39" data-name="Vector 39" class="cls-1" d="M114.91,31.84h2.68v1.17h.59v-1.17h1.51v1.17h.5v-1.17h1.59v1.17h.5v-1.17h1.59v1.17h.5v-1.17h2.76v-.5h-12.22v.5Z"/>
        <path id="Vector_40" data-name="Vector 40" class="cls-1" d="M126.12,26.07h-.33v4.68h.33v-4.68Z"/>
        <path id="Vector_41" data-name="Vector 41" class="cls-1" d="M126.96,26.07h-.59v4.68h.59v-4.68Z"/>
        <path id="Vector_42" data-name="Vector 42" class="cls-1" d="M125.54,26.07h-.59v4.68h.59v-4.68Z"/>
        <path id="Vector_43" data-name="Vector 43" class="cls-1" d="M116.25,26.07h-.33v4.68h.33v-4.68Z"/>
        <path id="Vector_44" data-name="Vector 44" class="cls-1" d="M117,26.07h-.59v4.68h.59v-4.68Z"/>
        <path id="Vector_45" data-name="Vector 45" class="cls-1" d="M115.66,26.07h-.59v4.68h.59v-4.68Z"/>
        <path id="Vector_46" data-name="Vector 46" class="cls-1" d="M123.36,13.11l-2.09-5.86v-2.34h-.59v2.26l-2.18,5.86v.42h4.77v-.33h.08Z"/>
        <path id="Vector_47" data-name="Vector 47" class="cls-1" d="M123.28,13.78h-4.52v.5h4.52v-.5Z"/>
        <path id="Vector_48" data-name="Vector 48" class="cls-1" d="M123.28,14.61h-4.52v.5h4.52v-.5Z"/>
        <path id="Vector_49" data-name="Vector 49" class="cls-1" d="M119.18,15.45h-.5v.67h.5v-.67Z"/>
        <path id="Vector_50" data-name="Vector 50" class="cls-1" d="M120.01,15.45h-.5v.67h.5v-.67Z"/>
        <path id="Vector_51" data-name="Vector 51" class="cls-1" d="M120.85,15.45h-.5v.67h.5v-.67Z"/>
        <path id="Vector_52" data-name="Vector 52" class="cls-1" d="M121.69,15.45h-.5v.67h.5v-.67Z"/>
        <path id="Vector_53" data-name="Vector 53" class="cls-1" d="M122.52,15.45h-.5v.67h.5v-.67Z"/>
        <path id="Vector_54" data-name="Vector 54" class="cls-1" d="M123.28,15.45h-.5v.67h.5v-.67Z"/>
        <path id="Vector_55" data-name="Vector 55" class="cls-1" d="M123.28,16.79v-.5h-4.52v.5h4.52Z"/>
        <path id="Vector_56" data-name="Vector 56" class="cls-1" d="M125.87,20.97h-9.79v.5h9.79v-.5Z"/>
        <path id="Vector_57" data-name="Vector 57" class="cls-1" d="M125.45,20.05c-.5-1.09-1.09-1.76-1.59-2.84h-5.77c-.59,1.09-1.09,1.76-1.59,2.84v.59h8.95v-.59Z"/>
        <path id="Vector_58" data-name="Vector 58" class="cls-1" d="M116.58,24.32h9.37v-2.43h-.5v1.92h-8.87v-1.92h-.59v2.43h.59Z"/>
        <path id="Vector_59" data-name="Vector 59" class="cls-1" d="M124.03,23.56v-1.09h.5v-.5h-7.03v.5h.42v1.09h.59v-1.09h.33v1.09h.59v-1.09h.33v1.09h.59v-1.09h.33v1.09h.59v-1.09h.33v1.09h.59v-1.09h.42v1.09h.5v-1.09h.42v1.09h.5Z"/>
        <path id="Vector_60" data-name="Vector 60" class="cls-1" d="M127.21,24.73h-2.26v.5h2.26v-.5Z"/>
        <path id="Vector_61" data-name="Vector 61" class="cls-1" d="M117,24.73h-2.26v.5h2.26v-.5Z"/>
        <path id="Vector_62" data-name="Vector 62" class="cls-1" d="M121.18,25.57h-.33v.92h.33v-.92Z"/>
        <path id="Vector_63" data-name="Vector 63" class="cls-1" d="M121.95,25.85l-.46.8.29.17.46-.8-.29-.17Z"/>
        <path id="Vector_64" data-name="Vector 64" class="cls-1" d="M122.79,26.53l-.79.47.17.29.79-.47-.17-.29Z"/>
        <path id="Vector_65" data-name="Vector 65" class="cls-1" d="M122.14,28.29l-.17.29.8.46.17-.29-.8-.46Z"/>
        <path id="Vector_66" data-name="Vector 66" class="cls-1" d="M121.53,28.24l-.29.17.47.79.29-.17-.47-.79Z"/>
        <path id="Vector_67" data-name="Vector 67" class="cls-1" d="M121.18,29h-.33s0,.92,0,.92h.33s0-.92,0-.92Z"/>
        <path id="Vector_68" data-name="Vector 68" class="cls-1" d="M120.22,28.77l-.46.8.29.17.46-.8-.29-.17Z"/>
        <path id="Vector_69" data-name="Vector 69" class="cls-1" d="M119.77,28.23l-.79.47.17.29.79-.47-.17-.29Z"/>
        <path id="Vector_70" data-name="Vector 70" class="cls-1" d="M119.15,26.51l-.17.29.79.47.17-.29-.79-.47Z"/>
        <path id="Vector_71" data-name="Vector 71" class="cls-1" d="M123.19,27.58h-.92v.33h.92v-.33Z"/>
        <path id="Vector_72" data-name="Vector 72" class="cls-1" d="M120.93,28h.17q.08,0,.08-.08v-.08l-.75-1.17-.5-.84-.33.17.5.84.5.84h-1.93v.33h2.26Z"/>
        <path id="Vector_73" data-name="Vector 73" class="cls-1" d="M118.34,30.25h5.36v-5.02h-5.36v5.02ZM121.02,25.49c1.26,0,2.26,1,2.26,2.26s-1,2.26-2.26,2.26-2.26-1-2.26-2.26,1-2.26,2.26-2.26Z"/>
        <path id="Vector_74" data-name="Vector 74" class="cls-1" d="M117.59,30.92h6.69v-6.36h-6.69v6.36ZM118.09,25.07h5.77v5.44h-5.77v-5.44Z"/>
      </g>
    </g>
    <g id="Group">
      <path id="Vector_75" data-name="Vector 75" class="cls-1" d="M11.73,51.18h-1.17v7.12h3.52v-1.17h-2.35v-5.95Z"/>
      <path id="Vector_76" data-name="Vector 76" class="cls-1" d="M16.25,51.18l-2.01,7.12h1.09l.42-1.51h2.26l.42,1.51h1.17l-1.93-7.12h-1.42ZM16.09,55.62l.84-3.02.75,3.02h-1.59Z"/>
      <path id="Vector_77" data-name="Vector 77" class="cls-1" d="M23.96,56.79l-2.09-5.61h-1.76v7.12h1.17v-5.95l2.18,5.95h1.68v-7.12h-1.17v5.61Z"/>
      <path id="Vector_78" data-name="Vector 78" class="cls-1" d="M28.57,52.19c.75,0,1.09.42,1.09,1.17h1.26c0-1.51-.84-2.35-2.6-2.35-.67,0-1.26.25-1.68.75-.59.67-.92,1.68-.92,2.93s.34,2.26.92,2.93c.5.5,1.01.75,1.68.75.42,0,.84,0,1.26-.08.42-.08.84-.17,1.26-.34v-3.6h-2.26v1.17h1.17v1.51c-.42.08-.75.17-1.09.17-.5,0-.92-.25-1.17-.67-.25-.42-.42-1.09-.42-1.93s.17-1.42.42-1.93c.25-.34.59-.5,1.09-.5Z"/>
      <path id="Vector_79" data-name="Vector 79" class="cls-1" d="M35.53,55.04c0,.75-.08,1.26-.17,1.59-.17.5-.5.67-1.01.67s-.84-.25-1.01-.67c-.08-.34-.17-.84-.17-1.59v-3.85h-1.17v4.44c0,.92.25,1.59.67,2.09.42.5,1.01.67,1.68.67s1.26-.25,1.68-.67c.42-.5.67-1.17.67-2.09v-4.44h-1.17v3.85Z"/>
      <path id="Vector_80" data-name="Vector 80" class="cls-1" d="M39.38,51.18l-2.01,7.12h1.09l.42-1.51h2.18l.42,1.51h1.17l-1.93-7.12h-1.34ZM39.21,55.62l.84-3.02.75,3.02h-1.59Z"/>
      <path id="Vector_81" data-name="Vector 81" class="cls-1" d="M45.83,52.19c.75,0,1.09.42,1.09,1.17h1.26c0-1.51-.84-2.35-2.6-2.35-.67,0-1.26.25-1.68.75-.59.67-.92,1.68-.92,2.93s.25,2.26.92,2.93c.5.5,1.01.75,1.68.75.42,0,.84,0,1.26-.08.42-.08.84-.17,1.26-.34v-3.6h-2.26v1.17h1.09v1.51c-.42.08-.75.17-1.09.17-.5,0-.92-.25-1.17-.67-.25-.42-.42-1.09-.42-1.93s.17-1.42.42-1.93c.25-.34.67-.5,1.17-.5Z"/>
      <path id="Vector_82" data-name="Vector 82" class="cls-1" d="M50.27,55.2h2.35v-1.17h-2.35v-1.68h2.43v-1.17h-3.6v7.12h3.69v-1.17h-2.51v-1.93Z"/>
      <path id="Vector_83" data-name="Vector 83" class="cls-1" d="M59.32,54.62c-.25-.17-.67-.34-1.34-.59-.34-.08-.59-.17-.67-.25-.25-.17-.34-.42-.34-.75,0-.25.08-.5.25-.67.17-.17.34-.25.59-.25.59,0,.84.34.92,1.09h1.17c0-.67-.17-1.26-.59-1.59-.34-.34-.75-.59-1.34-.59s-1.17.17-1.59.59c-.5.42-.75,1.01-.75,1.76,0,.59.17,1.01.59,1.34.25.25.67.42,1.17.59.5.17.75.25.84.25.34.17.42.42.42.75s-.08.59-.34.75c-.17.08-.42.17-.75.17s-.5-.08-.67-.34c-.17-.25-.25-.59-.25-1.01h-1.17c0,1.59.67,2.43,2.09,2.43.67,0,1.17-.17,1.59-.5.5-.42.75-1.01.75-1.84.17-.5-.08-1.01-.59-1.34Z"/>
      <path id="Vector_84" data-name="Vector 84" class="cls-1" d="M62.93,52.19c.34,0,.59.17.75.42.17.25.25.59.25,1.01h1.26c0-.84-.25-1.51-.67-1.93-.42-.34-.92-.59-1.59-.59-.75,0-1.34.34-1.76,1.09-.34.67-.59,1.51-.59,2.6s.17,2.01.59,2.6c.42.75,1.01,1.09,1.76,1.09.67,0,1.26-.17,1.59-.59.42-.42.67-1.01.67-1.93h-1.26c0,.42-.08.75-.25.92-.17.25-.42.42-.75.42s-.67-.34-.84-.92c-.17-.5-.25-1.01-.25-1.68s.08-1.17.25-1.68c.17-.59.42-.84.84-.84Z"/>
      <path id="Vector_85" data-name="Vector 85" class="cls-1" d="M69.13,54.03h-2.01v-2.85h-1.17v7.12h1.17v-3.1h2.09v3.1h1.17v-7.12h-1.26v2.85Z"/>
      <path id="Vector_86" data-name="Vector 86" class="cls-1" d="M73.82,51.02c-.84,0-1.51.34-2.01,1.09-.42.67-.67,1.51-.67,2.68,0,1.09.25,2.01.67,2.68.42.75,1.09,1.09,2.01,1.09.84,0,1.51-.34,2.01-1.09.42-.67.67-1.51.67-2.68,0-1.09-.25-2.01-.67-2.68-.5-.67-1.17-1.09-2.01-1.09ZM73.82,57.38c-.92,0-1.42-.84-1.42-2.6s.5-2.6,1.42-2.6,1.42.84,1.42,2.6c-.08,1.68-.5,2.6-1.42,2.6Z"/>
      <path id="Vector_87" data-name="Vector 87" class="cls-1" d="M79.69,51.02c-.84,0-1.51.34-2.01,1.09-.42.67-.67,1.51-.67,2.68,0,1.09.25,2.01.67,2.68.42.75,1.09,1.09,2.01,1.09.84,0,1.51-.34,2.01-1.09.42-.67.67-1.51.67-2.68,0-1.09-.25-2.01-.67-2.68-.5-.67-1.17-1.09-2.01-1.09ZM79.69,57.38c-.92,0-1.42-.84-1.42-2.6s.42-2.6,1.42-2.6c.92,0,1.42.84,1.42,2.6-.08,1.68-.5,2.6-1.42,2.6Z"/>
      <path id="Vector_88" data-name="Vector 88" class="cls-1" d="M84.3,51.18h-1.17v7.12h3.6v-1.17h-2.43v-5.95Z"/>
      <path id="Vector_89" data-name="Vector 89" class="cls-1" d="M90.83,54.62c-.25-.17-.67-.34-1.34-.59-.34-.08-.59-.17-.67-.25-.25-.17-.34-.42-.34-.75,0-.25.08-.5.25-.67.17-.17.34-.25.59-.25.59,0,.84.34.92,1.09h1.17c0-.67-.17-1.26-.59-1.59-.34-.34-.75-.59-1.34-.59s-1.17.17-1.59.59c-.5.42-.75,1.01-.75,1.76,0,.59.17,1.01.59,1.34.25.25.67.42,1.17.59.5.17.75.25.84.25.34.17.42.42.42.75s-.08.59-.34.75c-.17.08-.42.17-.75.17s-.5-.08-.67-.34c-.17-.25-.25-.59-.25-1.01h-1.17c0,1.59.67,2.43,2.09,2.43.67,0,1.17-.17,1.59-.5.5-.42.75-1.01.75-1.84.08-.5-.17-1.01-.59-1.34Z"/>
      <path id="Vector_90" data-name="Vector 90" class="cls-1" d="M100.47,54.62c.08-.34.08-.59.08-.75h-1.17v.67c0,.5-.08.92-.25,1.26l-1.09-1.42c.33-.17.59-.42.75-.75.25-.34.33-.67.33-1.09,0-.5-.17-.92-.59-1.17-.33-.25-.67-.34-1.09-.34s-.84.08-1.09.34c-.42.25-.59.67-.59,1.17,0,.59.25,1.09.67,1.51-.75.67-1.17,1.42-1.17,2.26,0,.67.25,1.26.75,1.59.42.34.84.5,1.42.5.34,0,.59-.08.92-.17.34-.17.59-.34.84-.59l.42.67h1.42l-1.09-1.51c.17-.67.42-1.42.5-2.18ZM96.95,52.19c.08-.08.25-.17.42-.17.42,0,.59.17.59.59,0,.34-.17.67-.59,1.01-.42-.42-.59-.75-.59-1.01,0-.17.08-.25.17-.42ZM97.87,57.21c-.17.08-.42.17-.5.17-.25,0-.5-.08-.67-.25-.17-.17-.25-.5-.25-.75,0-.5.17-.92.5-1.26l1.42,1.93c-.08,0-.25.08-.5.17Z"/>
      <path id="Vector_91" data-name="Vector 91" class="cls-1" d="M105.91,51.02c-.84,0-1.51.34-2.01,1.09-.42.67-.67,1.51-.67,2.68,0,1.09.25,2.01.67,2.68.42.75,1.09,1.09,2.01,1.09.84,0,1.51-.34,2.01-1.09.42-.67.67-1.51.67-2.68,0-1.09-.25-2.01-.67-2.68-.5-.67-1.17-1.09-2.01-1.09ZM105.91,57.38c-.92,0-1.42-.84-1.42-2.6s.5-2.6,1.42-2.6,1.42.84,1.42,2.6c-.08,1.68-.5,2.6-1.42,2.6Z"/>
      <path id="Vector_92" data-name="Vector 92" class="cls-1" d="M111.61,56.79l-1.42-5.61h-1.26l2.01,7.12h1.26l2.01-7.12h-1.17l-1.42,5.61Z"/>
      <path id="Vector_93" data-name="Vector 93" class="cls-1" d="M115.89,55.2h2.35v-1.17h-2.35v-1.68h2.51v-1.17h-3.69v7.12h3.77v-1.17h-2.6v-1.93Z"/>
      <path id="Vector_94" data-name="Vector 94" class="cls-1" d="M123.43,56.63c-.08-.67-.17-1.09-.17-1.26-.17-.34-.42-.5-.84-.59.34-.08.59-.34.84-.59.17-.34.33-.67.33-1.17,0-.67-.17-1.17-.59-1.51-.34-.25-.75-.42-1.34-.42h-2.35v7.12h1.17v-2.76h1.26c.25,0,.42.34.5.92.08.84.17,1.51.17,1.93h1.34c-.08-.17-.17-.42-.25-.84,0,0,0-.34-.08-.84ZM121.5,54.28h-1.01v-1.93h1.01c.59,0,.84.34.84.92,0,.67-.25,1.01-.84,1.01Z"/>
      <path id="Vector_95" data-name="Vector 95" class="cls-1" d="M127.95,54.62c-.25-.17-.67-.34-1.34-.59-.34-.08-.59-.17-.67-.25-.25-.17-.33-.42-.33-.75,0-.25.08-.5.25-.67.17-.17.33-.25.59-.25.59,0,.84.34.92,1.09h1.17c0-.67-.17-1.26-.59-1.59-.34-.34-.75-.59-1.34-.59s-1.17.17-1.59.59c-.5.42-.75,1.01-.75,1.76,0,.59.25,1.01.59,1.34.25.25.67.42,1.17.59.5.17.75.25.84.25.33.17.42.42.42.75s-.08.59-.33.75c-.17.08-.42.17-.75.17s-.5-.08-.67-.34c-.17-.25-.25-.59-.25-1.01h-1.17c0,1.59.67,2.43,2.09,2.43.67,0,1.17-.17,1.59-.5.5-.42.75-1.01.75-1.84.08-.5-.17-1.01-.59-1.34Z"/>
      <path id="Vector_96" data-name="Vector 96" class="cls-1" d="M130.55,55.2h2.35v-1.17h-2.35v-1.68h2.51v-1.17h-3.69v7.12h3.77v-1.17h-2.6v-1.93Z"/>
      <path id="Vector_97" data-name="Vector 97" class="cls-1" d="M135.66,51.18l-2.01,7.12h1.09l.42-1.51h2.18l.42,1.51h1.17l-1.93-7.12h-1.34ZM135.49,55.62l.84-3.02.75,3.02h-1.59Z"/>
      <path id="Vector_98" data-name="Vector 98" class="cls-1" d="M143.04,54.62c-.25-.17-.67-.34-1.34-.59-.33-.08-.59-.17-.67-.25-.25-.17-.33-.42-.33-.75,0-.25.08-.5.25-.67.17-.17.33-.25.59-.25.59,0,.84.34.92,1.09h1.17c0-.67-.17-1.26-.59-1.59-.33-.34-.75-.59-1.34-.59s-1.17.17-1.59.59c-.5.42-.75,1.01-.75,1.76,0,.59.17,1.01.59,1.34.25.25.67.42,1.17.59.5.17.75.25.84.25.33.17.42.42.42.75s-.08.59-.33.75c-.17.08-.42.17-.75.17s-.5-.08-.67-.34c-.17-.25-.25-.59-.25-1.01h-1.17c0,1.59.67,2.43,2.09,2.43.67,0,1.17-.17,1.59-.5.5-.42.75-1.01.75-1.84.17-.5-.08-1.01-.59-1.34Z"/>
      <path id="Vector_99" data-name="Vector 99" class="cls-1" d="M147.73,55.2h2.35v-1.17h-2.35v-1.68h2.51v-1.17h-3.69v7.12h3.77v-1.17h-2.6v-1.93Z"/>
      <path id="Vector_100" data-name="Vector 100" class="cls-1" d="M153.09,51.18h-1.84v7.12h1.84c1.84,0,2.77-1.17,2.77-3.6s-.92-3.52-2.77-3.52ZM154.35,56.38c-.25.5-.67.75-1.34.75h-.59v-4.77h.59c.67,0,1.09.25,1.34.75.17.34.25.92.25,1.59,0,.75-.08,1.26-.25,1.68Z"/>
      <path id="Vector_101" data-name="Vector 101" class="cls-1" d="M160.38,55.04c0,.75-.08,1.26-.17,1.59-.17.5-.5.67-1,.67s-.84-.25-1.01-.67c-.08-.34-.17-.84-.17-1.59v-3.85h-1.17v4.44c0,.92.25,1.59.67,2.09.42.5,1.01.67,1.68.67s1.26-.25,1.68-.67c.42-.5.67-1.17.67-2.09v-4.44h-1.17v3.85Z"/>
      <path id="Vector_102" data-name="Vector 102" class="cls-1" d="M164.65,52.19c.33,0,.59.17.75.42.17.25.25.59.25,1.01h1.26c0-.84-.25-1.51-.67-1.93-.42-.34-.92-.59-1.59-.59-.75,0-1.34.34-1.76,1.09-.34.67-.59,1.51-.59,2.6s.17,2.01.59,2.6c.42.75,1.01,1.09,1.76,1.09.67,0,1.26-.17,1.59-.59.42-.42.67-1.01.67-1.93h-1.26c0,.42-.08.75-.25.92-.17.25-.42.42-.75.42s-.67-.34-.84-.92c-.17-.5-.25-1.01-.25-1.68s.08-1.17.25-1.68c.17-.59.42-.84.84-.84Z"/>
      <path id="Vector_103" data-name="Vector 103" class="cls-1" d="M169.18,51.18l-2.01,7.12h1.09l.42-1.51h2.18l.42,1.51h1.17l-1.93-7.12h-1.34ZM169.01,55.62l.84-3.02.75,3.02h-1.59Z"/>
      <path id="Vector_104" data-name="Vector 104" class="cls-1" d="M172.7,52.36h1.59v5.95h1.17v-5.95h1.68v-1.17h-4.44v1.17Z"/>
      <path id="Vector_105" data-name="Vector 105" class="cls-1" d="M178.82,51.18h-1.17v7.12h1.17v-7.12Z"/>
      <path id="Vector_106" data-name="Vector 106" class="cls-1" d="M182.25,51.02c-.84,0-1.51.34-2.01,1.09-.42.67-.67,1.51-.67,2.68,0,1.09.25,2.01.67,2.68.5.75,1.09,1.09,2.01,1.09.84,0,1.51-.34,2.01-1.09.42-.67.67-1.51.67-2.68,0-1.09-.25-2.01-.67-2.68-.5-.67-1.17-1.09-2.01-1.09ZM182.25,57.38c-.92,0-1.42-.84-1.42-2.6s.5-2.6,1.42-2.6,1.42.84,1.42,2.6c-.08,1.68-.5,2.6-1.42,2.6Z"/>
      <path id="Vector_107" data-name="Vector 107" class="cls-1" d="M189.46,51.18v5.61l-2.09-5.61h-1.76v7.12h1.17v-5.95l2.18,5.95h1.68v-7.12h-1.17Z"/>
    </g>
  </g>
</svg>