<?xml version="1.0" encoding="UTF-8"?>
<svg id="katman_2" data-name="katman 2" xmlns="http://www.w3.org/2000/svg" viewBox="0 0 739.92 310.78">
  <defs>
    <style>
      .cls-1 {
        fill: #918079;
        stroke-width: 0px;
      }
    </style>
  </defs>
  <g id="katman_1" data-name="katman 1">
    <g>
      <path class="cls-1" d="M565.89,169.43c-4.13,7.52-8.22,15.06-12.39,22.55-6.63,11.91-13.24,23.84-20.02,35.66-1.46,2.54-1.66,6.67-5.79,6.61-5.18-.07-9.81-1.82-12.83-6.4-2.95-4.48-2.85-11.92.58-15.97,14.3-16.84,31.21-30.71,49.32-43.18l1.11.72Z"/>
      <path class="cls-1" d="M531.35,72.46c6.25-.04,11,2.77,12.83,7.6,1.89,4.97.53,10.25-4.11,14.35-5.59,4.95-12.03,7.04-19.33,4.31-8.05-3.01-10.41-12.04-5.05-18.74,3.6-4.5,9.82-7.48,15.66-7.52Z"/>
      <path class="cls-1" d="M552.71,290.52c2.67,0,5.34.17,7.99-.04,4.04-.32,4.35,1.57,3.49,4.84-2.73,10.31-13.34,16.84-24.94,15.21-11.44-1.61-19.16-10.57-19-22.04.16-11.37,8.07-20.56,18.81-21.67,7.99-.83,15.35.51,20.71,7.21,1.09,1.36,3.69,3.05,1.64,4.86-1.84,1.62-3.48-.47-4.86-2.02-5.34-5.99-12.03-7.41-19.53-5.2-7.52,2.21-11.75,8.54-11.78,17.14-.03,8.48,3.97,14.35,11.46,16.81,7.95,2.62,16.21.27,20.63-5.87.88-1.23,1.98-2.6,1.51-4.06-.6-1.86-2.56-1.07-3.92-1.12-3.66-.13-7.33-.01-10.99-.1-1.4-.03-3.3.35-3.42-1.88-.12-2.34,1.83-1.97,3.21-2.02,3-.09,6-.03,8.99-.03v-.02Z"/>
      <path class="cls-1" d="M468.15,277.16c0,8.61,0,17.23,0,25.84,0,1.5-.03,3-.08,4.49-.05,1.32-.6,2.22-2.07,2.29-1.72.08-2.39-.9-2.43-2.45-.05-2.33-.07-4.66-.08-6.99,0-9.49-.04-18.99.02-28.48,0-1.55-.71-3.6,1.34-4.41,2.19-.87,3.37.93,4.49,2.34,7.57,9.51,15.1,19.04,22.63,28.58.61.77,1.04,1.73,2.64,1.98,1.05-3.31.43-6.76.49-10.12.11-6.33,0-12.66.06-18.98.02-1.53-.57-3.69,1.99-3.81,2.94-.14,2.38,2.25,2.39,3.94.06,11.49.06,22.98.01,34.47,0,1.39.49,3.22-1.45,3.83-1.93.6-3.08-.74-4.14-2.08-7.14-9-14.28-17.99-21.44-26.98-1.02-1.28-2.11-2.51-3.16-3.76-.4.1-.8.21-1.21.31Z"/>
      <path class="cls-1" d="M586.26,288.48c0-5.66.15-11.33-.06-16.98-.12-3.21.96-4.52,4.21-4.46,6.49.13,12.99.03,19.48.08,1.47.01,3.2-.02,3.24,2.16.04,2.18-1.62,2.2-3.15,2.22-5,.05-9.99.15-14.99.03-2.79-.07-3.82.97-3.76,3.78.25,12.86-1.55,10.46,10.38,10.74,2.66.06,5.33.03,7.99.09,1.4.04,2.75.33,2.75,2.14,0,1.78-1.27,2.15-2.72,2.16-4.5.04-9,.23-13.48.02-3.54-.17-5,.78-4.98,4.69.05,10.55-.14,10.55,10.49,10.56,3,0,5.99.02,8.99.04,1.49.01,2.66.43,2.57,2.25-.07,1.56-1.21,1.89-2.42,1.89-7.32.02-14.65.02-21.97-.03-2.72-.02-2.56-2.06-2.56-3.91-.01-5.83,0-11.66,0-17.48Z"/>
      <path class="cls-1" d="M440.32,283.11c0,3.99.16,7.99-.03,11.97-.4,8.39-6.28,14.46-14.78,15.47-9.14,1.09-17.18-3.34-19.16-11.45-2.39-9.79-.69-19.86-.97-29.8-.05-1.81,1.32-2.08,2.77-2.02,2.16.09,2.13,1.67,2.13,3.21,0,7.81-.13,15.63.06,23.44.24,9.79,8.67,15.22,17.78,11.63,4.88-1.92,7.26-5.63,7.3-10.81.06-7.81.02-15.63.08-23.44.01-1.77-.35-3.95,2.42-4.04,2.86-.09,2.46,2.1,2.48,3.88.04,3.99.01,7.98.01,11.97-.03,0-.06,0-.08,0Z"/>
      <path class="cls-1" d="M297.47,288.26c0-5.31-.09-10.63.05-15.94.05-1.91-1.04-4.88,2.37-5,3.59-.13,2.46,2.92,2.48,4.79.11,9.63.2,19.26-.02,28.89-.09,3.75,1.17,5,4.86,4.78,4.3-.26,8.63-.07,12.95-.03,1.54.01,3.16.09,3.03,2.28-.11,1.88-1.65,1.88-2.94,1.89-6.48.05-12.95-.03-19.43.05-2.71.03-3.37-1.42-3.35-3.77.05-5.98.02-11.95.02-17.93h-.03Z"/>
      <path class="cls-1" d="M639.01,124.95c-2.49-4.89-9.41-7.8-15.46-6.64-14.1,2.71-25.17,10.92-36.03,19.6-2.13,1.71-3.82,4.1-6.62,5.09-.79-2,.16-3.56.38-5.16,1.22-8.98-2.71-14.84-11.44-17.04-3.51-.88-5.73-.16-7.67,3.34-8.23,14.84-15.91,30-24.97,44.38-10.82,17.16-23.34,32.84-39.22,45.63-5.59,4.5-11.69,8.27-18.26,11.22-2.23,1-4.81,2.52-6.99.44-2.08-1.98-.4-4.4.36-6.51.68-1.87,1.57-3.68,2.54-5.42,9.35-16.89,18.81-33.73,28.09-50.67,3.91-7.15,8.47-13.99,11.32-21.67,4-10.79-.94-20.16-11.17-21.73-3.16-.49-5.18.22-6.85,3.31-8.53,15.82-17.87,31.23-25.87,47.32-11.72,23.56-28.71,41.48-52.69,52.39-11.39,5.18-23.26,8.31-35.82,4.03-7.9-2.69-11.92-8.04-12.35-16.33-.29-5.54.66-10.88,2.03-16.27,1.29-5.11,4.12-7.02,9.19-7.94,19.24-3.48,37.96-8.72,55-18.75,10.32-6.07,18.84-13.85,22.73-25.55,3.4-10.21-.87-18.55-10.93-22.41-8.73-3.35-17.78-3.27-26.6-1.38-35.22,7.55-57.8,29.95-71.25,62.37-1.71,4.13-3.6,5.13-7.57,4.97-22.53-.91-44.74-3.97-66.65-9.32-3.7-.9-4.25-2.15-2.05-5.26,8.95-12.66,17.02-25.88,24.16-39.63,1.89-3.65,3.76-3.96,7.45-2.69,14.49,4.98,29.09,9.56,44.59,10.3,15.84.76,22.64-4.34,29.5-20.08.38-.88,1.06-1.98.07-2.69-.49-.36-1.56-.08-2.32.12-22.22,5.89-44.81,5.79-67.49,4.2-5.42-.38-5.45-.46-2.78-5.41,8.6-15.98,17.13-32,25.89-47.89,5.23-9.48,10.81-18.76,17.62-27.22,1.58-1.96,3-3.64,6.2-2.87,22.18,5.32,44.52,9.88,67.22,12.3,18.07,1.92,35.99,1.27,53.07-5.84,8.59-3.57,15.51-9.14,18.42-18.48,1.8-5.78,1.71-11.48-1.31-16.91-.68-1.22-1.58-2.38-3.14-1.5-1.24.7-.28,1.69.04,2.58,4.97,13.84-.22,24.32-14.45,29.39-9.91,3.53-20.04,2.98-30.13,1.54-22.18-3.17-43.31-10.47-64.62-16.98-30.26-9.25-60.58-18.2-92.25-21.3-51.8-5.08-102.44-.44-151.22,18.69-44.5,17.44-79.07,46.29-100.61,89.49-12.87,25.82-19.53,52.84-11.95,81.66,5.79,22.02,19.46,36.73,41.84,42.68,6.25,1.66,6.77,1.11,7.31-5.2,2.63-30.61,16.77-54.4,43.06-70.38,19.52-11.87,40.85-11.57,62.48-7.47,18.39,3.49,35.93,9.85,53.62,15.73,11.16,3.71,11.22,3.67,5.1,13.51-13.95,22.44-29.31,43.77-49.61,61-23.07,19.58-49.53,32.06-79.33,37.82-19.08,3.69-37.95,4.94-56.84-.52-20.48-5.92-34.47-18.84-41.53-39.01-2.24-6.41-4.01-6.91-8.89-2.05-2.12,2.11-3.16,4.58-3.33,7.56-.34,5.95,2.4,10.56,6.11,14.82,17.03,19.55,39.41,27.37,64.43,28.12,36.79,1.1,71.16-8.61,103.67-25.33,37.51-19.3,67.3-47.48,92.18-81.14,2.22-3,4.24-3.8,7.85-2.88,21.02,5.39,42.36,8.83,64.08,9.51,9.06.28,9.06.21,8.56,9.14-1.06,18.93,9.2,32.42,27.56,36.55,21.74,4.9,40.75-1.57,58.46-13.68,6.78-4.64,12.95-10.06,19.94-16.22-.88,3.72-1.55,6.27-2.09,8.85-3.01,14.62,3.34,27.04,21.75,21.18,13.04-4.15,23.91-11.89,33.28-21.47,14.21-14.53,28.23-29.2,44.81-41.11,15.25-10.95,31.19-20.96,44.77-34.13,3.37-3.26,7.43-6.06,12.19-7.53,1.88,12.04,7.17,16.81,16.87,15.33,3.86-.59,7.3-2.27,10.27-4.83,5-4.32,6.76-10.81,4.29-15.66ZM403.05,143.1c5.58-6.63,11.43-13.04,18.8-17.71,3.68-2.34,8.02-5.7,12.33-2.35,4.3,3.34,2.37,8.43.79,12.5-8.25,21.22-23.61,35.32-44.64,43.48-3.85,1.49-7.75,2.9-13.02,3.26,7.52-14.34,15.77-27.32,25.75-39.18ZM249.79,163.77c-1.82,3.25-3.68,3.84-7.19,2.65-20.01-6.79-39.82-14.27-60.69-18.15-19.08-3.55-38.17-4.82-56.45,3.32-28.58,12.73-45.07,35.35-51.99,65.43-.19.81-.26,1.64-.35,2.47-.44,4.28-2.2,4.48-5.25,1.89-10.6-8.98-14.91-20.97-16.49-34.23-3.4-28.58,4.15-54.85,17.69-79.6,19.44-35.53,46.32-63.68,83.22-81.41,28.22-13.56,58.07-16.31,88.78-12.81,29.02,3.3,57.2,10.83,85.61,17.18,3.51.78,7.22.98,10.28,2.6-3.88,4.1-7.7,8.2-11.58,12.23-19.72,20.49-33.76,44.88-47.66,69.38-9.29,16.36-18.73,32.64-27.93,49.04Z"/>
      <path class="cls-1" d="M738.93,165.48c-1.73-.86-2.57,1.17-3.26,2.34-4.34,7.32-9.24,14.24-14.53,20.9-11.3,14.2-23.95,26.87-40.32,35.22-2.93,1.5-6.58,4.82-9.51,1.81-2.78-2.86.09-6.61,1.71-9.59,9.96-18.27,20.03-36.48,30.08-54.7,6.99-12.68,13.96-25.37,21.05-38,1.75-3.12.98-3.89-2.43-3.95-13.22-.25-24.11,4.17-31.91,15.2-.53.74-.86,1.91-2.45,1.63-.12-1.24-.24-2.53-.36-3.82-1.06-10.83-6.41-15.62-17.35-15.74-8.83-.1-16.56,3.12-24.02,7.42-2.88,1.66-4.79,3.12-2.78,6.96,1.63,3.12.63,6.56-1.11,9.56-3.64,6.25-12.21,10.49-19.26,8.76-3.51-.86-5.13.28-7.08,2.71-5.33,6.64-10.23,13.58-14.48,20.93-7.39,12.8-13.21,26.17-12.87,41.4.35,15.7,11.59,24.18,27.01,20.56,10.79-2.54,19.26-8.83,26.99-16.34,2.09-2.03,3.91-4.35,6.69-7.5,0,4.92-.27,8.07.05,11.16,1.03,9.77,6.51,14.27,16.18,13.25,5.87-.62,11.27-2.83,16.36-5.75,25.19-14.46,42.42-36.49,57.49-60.56.76-1.22,1.96-2.95.1-3.87ZM631.87,220.99c-2.05,1.9-4.46,3.48-6.87,4.93-2.93,1.77-6.14,2.82-9.45.96-3.44-1.93-3.53-5.35-3.58-8.98.58-7.51,3.19-14.7,6.27-21.71,9.78-22.29,22.28-42.77,40.12-59.64,3.76-3.56,7.78-6.79,12.48-9.05,7.31-3.51,11.76-.45,11.03,7.73-.45,5.15-1.73,10.17-3.66,14.98-10.72,26.69-25.02,51.04-46.33,70.79Z"/>
      <path class="cls-1" d="M362.33,266.65c-13.2-.14-22.83,8.89-23.01,21.59-.19,12.71,9.31,22.28,22.27,22.44,13.32.16,23.17-9.04,23.46-21.91.27-12.26-9.71-21.97-22.71-22.12ZM362,306.67c-10.1-.05-17.8-7.96-17.73-18.25.06-10.25,7.45-17.66,17.66-17.7,10.22-.05,18.3,7.86,18.27,17.87-.03,9.98-8.23,18.13-18.19,18.09Z"/>
    </g>
  </g>
</svg>