<?xml version="1.0" encoding="UTF-8"?>
<svg id="katman_2" data-name="katman 2" xmlns="http://www.w3.org/2000/svg" viewBox="0 0 109.08 451.85">
  <defs>
    <style>
      .cls-1 {
        fill: #000;
      }

      .cls-1, .cls-2, .cls-3 {
        stroke-width: 0px;
      }

      .cls-2 {
        fill: none;
      }

      .cls-3 {
        fill: #dea450;
      }
    </style>
  </defs>
  <g id="Layer_1" data-name="Layer 1">
    <g>
      <path class="cls-3" d="M51.17,54.5v-2.31c1.83-.96,3-2.84,3-4.94s-1.17-3.98-3-4.94v-7.66h3.85c1.27,0,2.29-1.02,2.29-2.28v-5.81h3.79v5.81c0,1.26,1.03,2.28,2.29,2.28h9.28c1.85,0,3.35-1.49,3.35-3.33v-1.2c0-1.26-1.03-2.28-2.29-2.28h-1.33v-14.28h1.33c1.27,0,2.29-1.02,2.29-2.28v-1.17c0-1.85-1.52-3.35-3.38-3.35h-21.48v-1.8c0-2.74-2.24-4.96-5-4.96h-3.14c-2.76,0-5,2.23-5,4.96v37.35c-1.83.96-3,2.84-3,4.94s1.17,3.98,3,4.94l.1,1.8v8.51h2.8l-.16-8v-3.21c0-.59-.39-1.12-.96-1.3-1.22-.38-2.04-1.49-2.04-2.74s.82-2.36,2.04-2.74c.57-.18.96-.7.96-1.3V4.96c0-1.24,1.01-2.24,2.26-2.24h3.14c1.25,0,2.26,1.01,2.26,2.24v3.16c0,.75.61,1.36,1.37,1.36h22.85c.35,0,.64.29.64.63v.73h-1.32c-1.27,0-2.31,1.03-2.31,2.29v15.14c0,1.26,1.04,2.29,2.31,2.29h1.32v.75c0,.34-.28.61-.61.61h-8.83v-5.9c0-1.21-.99-2.19-2.2-2.19h-4.86c-1.21,0-2.2-.02-2.2,1.19v5.9h-4.78c-.76,0-1.37.61-1.37,1.36v10.92c0,.59.39,1.12.96,1.3,1.22.38,2.04,1.49,2.04,2.74s-.82,2.36-2.04,2.74c-.57.18-.96.7-.96,1.3v2.7l.2,8.51h2.8"/>
      <g>
        <path class="cls-3" d="M37.79,380.23v.25c-6.55,1.7-11.16,6.75-13.41,14.72-9.08,2.73-15.35,11.09-15.35,20.63s6.27,17.93,15.35,20.66c2.73,9.09,11.08,15.36,20.62,15.36s17.92-6.27,20.65-15.36c9.08-2.73,15.35-11.1,15.35-20.66s-6.27-17.9-15.35-20.63c-2.25-7.94-6.85-12.99-13.37-14.7l.06-8.9s.02-.06.05-.07c2.92-.98,5.01-3.74,5.04-6.89.03-3.25-2.12-6.03-5.15-6.9v-10.99c0-.13-.11-.24-.24-.24h-2.54c-.13,0-.24.11-.24.24v11.76c0,.38.11.72.28,1.03.17.44.54.78,1.01.92.22.1.47.15.72.16,1.84.45,3.16,2.08,3.14,4-.02,2.12-1.64,3.95-3.77,4.23l-1.3.18-.05,4.7-.07,9.23,1.23.23c6.28,1.19,10.49,5.78,12.5,13.61l.22.87.87.22c8.2,2.11,13.93,9.48,13.93,17.94s-5.73,15.86-13.93,17.97l-.87.22-.22.87c-2.1,8.21-9.49,13.94-17.95,13.94s-15.83-5.73-17.93-13.94l-.22-.87-.87-.22c-8.2-2.1-13.93-9.49-13.93-17.97s5.73-15.84,13.93-17.94l.87-.22.22-.87c2.01-7.85,6.22-12.43,12.51-13.62l1.23-.23v-5.45l.08-8.33s-.03-.07-.06-.07l-1.28-.15c-2.09-.24-3.65-2.01-3.64-4.11.02-2.1,1.61-3.91,3.71-4.22h.04c.85,0,1.55-.69,1.55-1.55v-12.16s-.03-.07-.07-.07h-2.88s-.07.03-.07.07v10.88s-.02.06-.05.07c-3.03.92-5.21,3.72-5.24,6.95-.03,3.16,2,5.89,4.91,6.84.03,0,.05.04.05.07l-.03,3.05"/>
        <g>
          <path class="cls-3" d="M45.28,387.5c-5.49,0-10.52,3.26-12.81,8.32l-.83,1.83,1.97.24c4.03.49,7.8,2.39,10.63,5.33l1.04,1.08,1.04-1.08c2.84-2.95,6.62-4.84,10.65-5.33l1.98-.24-.83-1.83c-2.3-5.05-7.34-8.32-12.84-8.32ZM45.28,400.17c-2.62-2.37-5.81-4.04-9.23-4.82,2.07-3.03,5.52-4.91,9.23-4.91s7.17,1.88,9.24,4.91c-3.42.79-6.62,2.45-9.24,4.82Z"/>
          <path class="cls-3" d="M46.32,428.34l-1.04-1.08-1.04,1.08c-2.84,2.95-6.61,4.84-10.63,5.33l-1.97.24.83,1.83c2.3,5.05,7.33,8.32,12.81,8.32s10.53-3.26,12.83-8.32l.83-1.83-1.98-.24c-4.03-.49-7.81-2.38-10.65-5.33ZM45.28,441.13c-3.71,0-7.15-1.88-9.22-4.91,3.42-.79,6.6-2.45,9.23-4.82,2.62,2.37,5.82,4.04,9.24,4.82-2.07,3.03-5.53,4.91-9.24,4.91Z"/>
          <path class="cls-3" d="M46.7,409.33c-.29.51-.83.82-1.42.82s-1.13-.32-1.42-.83c-2.04-3.55-5.68-5.9-9.75-6.29l-1.56-.15.15,1.58c.38,4.12,2.71,7.81,6.22,9.87.5.3.82.85.82,1.44s-.31,1.14-.82,1.44c-3.51,2.06-5.83,5.76-6.22,9.89l-.15,1.58,1.56-.15c4.07-.39,7.71-2.74,9.75-6.29.29-.51.84-.83,1.42-.83s1.13.32,1.42.83c2.04,3.55,5.69,5.91,9.77,6.29l1.56.15-.15-1.58c-.38-4.13-2.71-7.83-6.22-9.89-.5-.3-.81-.84-.81-1.43s.31-1.14.82-1.44c3.51-2.06,5.83-5.75,6.22-9.87l.15-1.58-1.56.15c-4.08.39-7.73,2.74-9.77,6.29ZM50.36,412.06c-1.3.76-2.11,2.19-2.11,3.71s.81,2.94,2.11,3.71c2.28,1.34,3.93,3.55,4.62,6.11-2.53-.7-4.71-2.37-6.04-4.68-.75-1.32-2.16-2.13-3.66-2.13s-2.91.82-3.66,2.13c-1.32,2.31-3.5,3.98-6.02,4.68.69-2.56,2.34-4.77,4.62-6.11,1.3-.76,2.11-2.18,2.11-3.71s-.81-2.94-2.11-3.71c-2.28-1.34-3.93-3.54-4.62-6.09,2.52.7,4.69,2.37,6.02,4.68.76,1.32,2.16,2.13,3.66,2.13s2.91-.82,3.66-2.13c1.32-2.31,3.51-3.98,6.04-4.68-.69,2.55-2.34,4.75-4.62,6.09Z"/>
          <path class="cls-3" d="M56.63,415.77l1.07,1.05c2.91,2.87,4.79,6.7,5.27,10.78l.24,2,1.81-.84c4.99-2.33,8.22-7.43,8.22-12.99s-3.22-10.64-8.22-12.97l-1.81-.84-.24,2c-.48,4.07-2.36,7.89-5.27,10.76l-1.07,1.05ZM65.48,406.43c3,2.1,4.85,5.58,4.85,9.34s-1.85,7.26-4.85,9.36c-.78-3.46-2.42-6.7-4.77-9.36,2.34-2.65,3.99-5.88,4.77-9.34Z"/>
          <path class="cls-3" d="M33.95,415.77l-1.07-1.05c-2.91-2.87-4.78-6.69-5.27-10.77l-.24-2-1.81.84c-4.99,2.33-8.22,7.42-8.22,12.97s3.22,10.66,8.22,12.99l1.81.84.24-2c.48-4.08,2.35-7.91,5.27-10.79l1.06-1.05ZM25.11,425.13c-3-2.1-4.85-5.6-4.85-9.36s1.86-7.24,4.85-9.34c.78,3.46,2.42,6.69,4.77,9.34-2.34,2.66-3.99,5.89-4.77,9.36Z"/>
        </g>
      </g>
      <polygon class="cls-1" points="51.97 339.77 51.97 339.77 51.97 336.9 51.97 336.9 51.97 339.77"/>
      <g>
        <path class="cls-2" d="M38.15,63.12c-4.51.62-8.51,1.79-11.95,3.51-5.36,2.68-9.85,6.33-13.35,10.86-3.51,4.54-6.08,9.94-7.63,16.06-1.57,6.19-2.37,12.95-2.37,20.09v180.92c0,6.93.8,13.64,2.37,19.93,1.56,6.23,4.12,11.68,7.63,16.21,3.5,4.54,7.99,8.19,13.35,10.86,3.44,1.72,7.44,2.88,11.95,3.5,1.04.14,2.1.25,3.19.33v2.86"/>
        <path class="cls-2" d="M48.78,348.4v-2.85c1.09-.04,2.16-.09,3.19-.17,5.6-.45,10.42-1.57,14.38-3.35,5.22-2.35,9.42-5.62,12.48-9.7,3.08-4.11,5.27-9.07,6.51-14.74,1.26-5.77,1.9-12.11,1.9-18.85v-104.94c0-3.16,1.69-4.97,4.64-4.97h11.59c2.01,0,2.76-.75,2.76-2.76s-.75-2.76-2.76-2.76h-30.9c-2.82,0-3.4,1.1-3.4,2.76s.58,2.76,3.4,2.76h2.58c3.16,0,4.97,1.81,4.97,4.97v105.91c0,5.65-.5,10.94-1.49,15.74-1,4.89-2.82,9.24-5.4,12.92-2.62,3.74-6.18,6.66-10.6,8.69-2.99,1.37-6.57,2.27-10.65,2.71h0c-1.03.11-2.09.2-3.19.25V71.01s0-2.86,0-2.86c1.1.04,2.16.12,3.19.22,4.18.4,7.8,1.26,10.8,2.59,4.31,1.92,7.82,4.73,10.44,8.36,2.59,3.58,4.41,7.88,5.42,12.78.99,4.8,1.49,10.31,1.49,16.38v12.88c0,1.08-.21,2.05-.63,2.89-.88,1.75-3.24,1.75-4.01,1.75h-3.22c-2.01,0-2.76.75-2.76,2.76s.75,2.76,2.76,2.76h12.23c2.01,0,2.76-.75,2.76-2.76v-19.31c0-7.17-.64-13.78-1.9-19.66-1.24-5.78-3.42-10.73-6.49-14.72-3.05-3.96-7.24-7.06-12.45-9.21-3.97-1.63-8.8-2.66-14.42-3.07-1.04-.08-2.1-.12-3.19-.16v-7.05"/>
      </g>
      <polygon class="cls-1" points="51.97 339.77 51.97 339.77 51.97 336.9 51.97 336.9 51.97 339.77"/>
      <path class="cls-3" d="M38.15,68.85c-3.11.59-5.95,1.51-8.47,2.8-4.6,2.35-8.42,5.58-11.34,9.61-2.9,3.98-5.04,8.64-6.38,13.84-1.32,5.13-1.99,10.72-1.99,16.61v184.78c0,5.67.61,11.2,1.81,16.42,1.23,5.32,3.32,10.04,6.22,14.04,2.92,4.03,6.74,7.26,11.34,9.61,2.62,1.33,5.57,2.28,8.8,2.86,1.04.19,2.09.35,3.19.45V68.37c-1.1.12-2.16.28-3.19.47ZM38.15,333.16v3.35c-2.76-.54-5.27-1.37-7.5-2.5-4.2-2.14-7.68-5.08-10.33-8.74-2.68-3.68-4.61-8.06-5.75-13-1.15-5.01-1.74-10.32-1.74-15.78V111.71c0-5.66.64-11.01,1.9-15.9,1.25-4.85,3.24-9.18,5.92-12.88,2.65-3.66,6.13-6.6,10.33-8.74,2.14-1.09,4.54-1.91,7.18-2.45v261.41Z"/>
      <g>
        <path class="cls-3" d="M41.2,348.57l.15-3.16s-4.79-.65-5.91-.8c-3.41-.67-6.51-1.67-9.23-3.03-5.36-2.67-9.85-6.33-13.35-10.86-3.51-4.53-6.08-9.99-7.63-16.21-1.57-6.3-2.37-13-2.37-19.93V113.64c0-7.14.8-13.9,2.37-20.09,1.56-6.11,4.12-11.52,7.63-16.06,3.5-4.53,7.99-8.18,13.35-10.86,3.44-1.72,8.49-3.44,12.99-4.06v-3c-4.97.65-10.46,2.6-14.27,4.51-5.74,2.87-10.57,6.8-14.33,11.67-3.75,4.85-6.49,10.6-8.14,17.1-1.63,6.42-2.46,13.41-2.46,20.79v180.92c0,7.16.83,14.1,2.46,20.63,1.65,6.61,4.39,12.42,8.14,17.27,3.77,4.88,8.59,8.8,14.33,11.67,3.81,1.9,8.25,3.17,13.22,3.82"/>
        <path class="cls-3" d="M38.2,360.77s-.03.04-.05.07"/>
        <path class="cls-3" d="M52.2,348.71v-.5c5.93-.48,11.07-1.67,15.32-3.59,5.67-2.55,10.24-6.11,13.59-10.58,3.33-4.44,5.69-9.77,7.01-15.84,1.3-5.97,1.96-12.51,1.96-19.46v-104.94c0-1.78.63-2.12,1.79-2.12h11.59c3.57,0,5.61-2.04,5.61-5.61s-2.04-5.61-5.61-5.61h-30.9c-3.97,0-6.25,2.04-6.25,5.61s2.28,5.61,6.25,5.61h2.58c1.56,0,2.11.55,2.11,2.12v105.91c0,5.45-.48,10.56-1.43,15.17-.92,4.5-2.59,8.5-4.95,11.86-2.32,3.32-5.5,5.92-9.45,7.73-2.64,1.21-5.82,2.02-9.46,2.44v-2.66h0V71.24c3.75.38,6.99,1.15,9.64,2.33,3.84,1.71,6.97,4.21,9.29,7.42,2.35,3.25,4.01,7.19,4.93,11.69.95,4.61,1.43,9.93,1.43,15.81v12.88c0,.62-.1,1.13-.31,1.57-.09.05-.45.23-1.49.23h-3.22c-3.57,0-5.61,2.05-5.61,5.61s2.04,5.61,5.61,5.61h12.23c3.57,0,5.61-2.04,5.61-5.61v-19.31c0-7.37-.66-14.18-1.96-20.26-1.33-6.19-3.69-11.53-7.02-15.86-3.36-4.37-7.94-7.77-13.63-10.11-4.27-1.76-9.44-2.85-15.41-3.28l-3.29-.16v2.85c1.09.03,2.16.08,3.19.16,5.62.41,10.46,1.44,14.42,3.07,5.21,2.15,9.4,5.25,12.45,9.21,3.07,3.99,5.26,8.95,6.49,14.72,1.26,5.88,1.9,12.49,1.9,19.66v19.31c0,2.01-.75,2.76-2.76,2.76h-12.23c-2.01,0-2.76-.75-2.76-2.76s.75-2.76,2.76-2.76h3.22c.77,0,3.13,0,4.01-1.75.42-.84.63-1.81.63-2.89v-12.88c0-6.07-.5-11.58-1.49-16.38-1.01-4.9-2.83-9.2-5.42-12.78-2.62-3.62-6.13-6.43-10.44-8.36-3-1.33-6.62-2.19-10.8-2.59-1.03-.1-2.09-.18-3.19-.22v266.03s0,2.97,0,2.97v2.86c1.1-.05,2.16-.14,3.19-.25,4.08-.44,7.66-1.34,10.65-2.71,4.41-2.03,7.98-4.95,10.6-8.69,2.58-3.69,4.4-8.04,5.4-12.92.99-4.8,1.49-10.09,1.49-15.74v-105.91c0-3.16-1.81-4.97-4.97-4.97h-2.58c-2.82,0-3.4-1.1-3.4-2.76s.58-2.76,3.4-2.76h30.9c2.01,0,2.76.75,2.76,2.76s-.75,2.76-2.76,2.76h-11.59c-2.95,0-4.65,1.81-4.65,4.97v104.94c0,6.74-.64,13.08-1.9,18.85-1.24,5.67-3.43,10.63-6.51,14.74-3.06,4.08-7.26,7.34-12.48,9.7-3.96,1.78-8.78,2.91-14.38,3.35-1.04.08-1.68.16-2.77.19v3.9"/>
      </g>
    </g>
  </g>
</svg>