<?xml version="1.0" encoding="UTF-8"?>
<svg id="katman_2" data-name="katman 2" xmlns="http://www.w3.org/2000/svg" viewBox="0 0 376.91 124.85">
  <defs>
    <style>
      .cls-1 {
        fill: #fff;
        stroke-width: 0px;
      }
    </style>
  </defs>
  <g id="Layer_1" data-name="Layer 1">
    <g>
      <path class="cls-1" d="M36.27,31.35h-5.34c-1.22,0-1.83-.61-1.83-1.83s.61-1.83,1.83-1.83h1.41c.65,0,1.05-.14,1.2-.42.14-.28.21-.61.21-.98v-5.62c0-2.62-.21-4.97-.64-7.03-.42-2.06-1.18-3.84-2.26-5.34-1.08-1.5-2.52-2.65-4.31-3.44-1.79-.79-4.1-1.2-6.92-1.2s-5.06.49-6.99,1.48c-1.93.98-3.51,2.32-4.73,4.01-1.23,1.69-2.12,3.63-2.68,5.83-.57,2.2-.85,4.57-.85,7.1v80.7c0,2.44.26,4.78.78,7.03.52,2.25,1.39,4.22,2.61,5.91,1.22,1.69,2.8,3.02,4.73,4.01,1.93.98,4.26,1.48,6.99,1.48s5.16-.42,6.99-1.27c1.84-.84,3.3-2.04,4.38-3.58,1.08-1.55,1.84-3.35,2.26-5.41.42-2.06.64-4.31.64-6.75v-46.26c0-1.03-.52-1.55-1.55-1.55h-1.13c-1.41,0-2.11-.61-2.11-1.83s.7-1.83,2.11-1.83h13.5c1.22,0,1.83.61,1.83,1.83s-.61,1.83-1.83,1.83h-5.06c-.94,0-1.41.52-1.41,1.55v45.83c0,3-.28,5.79-.84,8.37-.56,2.58-1.55,4.8-2.95,6.68-1.41,1.88-3.3,3.35-5.69,4.43-2.39,1.08-5.41,1.62-9.07,1.62s-6.56-.61-9-1.83c-2.44-1.22-4.45-2.86-6.05-4.92-1.59-2.06-2.74-4.5-3.44-7.31-.7-2.81-1.05-5.76-1.05-8.86V22.92c0-3.19.35-6.16,1.05-8.93.7-2.76,1.85-5.18,3.44-7.24,1.59-2.06,3.61-3.7,6.05-4.92,2.44-1.22,5.44-1.83,9-1.83s6.68.49,9.07,1.48c2.39.98,4.29,2.39,5.69,4.22,1.41,1.83,2.39,4.06,2.95,6.68.56,2.63.84,5.53.84,8.72v8.44c0,1.22-.61,1.83-1.83,1.83Z"/>
      <path class="cls-1" d="M71.98,122.32c0-1.22.61-1.83,1.83-1.83h1.12c1.03,0,1.55-.47,1.55-1.41V5.9c0-1.03-.52-1.55-1.55-1.55h-1.12c-1.22,0-1.83-.61-1.83-1.83s.61-1.83,1.83-1.83h9c1.22,0,1.83.61,1.83,1.83s-.63,1.83-1.9,1.83-1.9.52-1.9,1.55v52.44c0,.94.47,1.41,1.41,1.41h25.29c1.04,0,1.56-.47,1.56-1.41V5.9c0-1.03-.52-1.55-1.55-1.55-1.31,0-1.97-.61-1.97-1.83s.61-1.83,1.83-1.83h9c1.22,0,1.83.61,1.83,1.83s-.61,1.83-1.83,1.83h-1.27c-.94,0-1.41.52-1.41,1.55v113.18c0,.94.47,1.41,1.41,1.41h1.27c1.22,0,1.83.61,1.83,1.83s-.61,1.83-1.83,1.83h-9c-1.22,0-1.83-.61-1.83-1.83s.61-1.83,1.83-1.83c1.13,0,1.69-.47,1.69-1.41v-54.13c0-1.03-.52-1.55-1.56-1.55h-25.29c-.94,0-1.41.52-1.41,1.55v54.13c0,.94.63,1.41,1.9,1.41s1.9.61,1.9,1.83-.61,1.83-1.83,1.83h-9c-1.22,0-1.83-.61-1.83-1.83Z"/>
      <path class="cls-1" d="M223.55,2.53c0-1.22.61-1.83,1.83-1.83h9.84c1.22,0,1.83.61,1.83,1.83s-.61,1.83-1.83,1.83h-1.41c-.94,0-1.41.52-1.41,1.55v113.18c0,.94.47,1.41,1.41,1.41h17.43c1.03,0,1.55-.47,1.55-1.41v-5.06c0-1.22.61-1.83,1.83-1.83s1.83.61,1.83,1.83v8.3c0,1.22-.61,1.83-1.83,1.83h-29.24c-1.22,0-1.83-.61-1.83-1.83s.61-1.83,1.83-1.83h1.12c1.03,0,1.55-.47,1.55-1.41V5.9c0-1.03-.52-1.55-1.55-1.55h-1.12c-1.22,0-1.83-.61-1.83-1.83Z"/>
      <path class="cls-1" d="M287.66,122.32c0-1.22.61-1.83,1.83-1.83h1.12c1.03,0,1.55-.47,1.55-1.41V5.9c0-1.03-.52-1.55-1.55-1.55h-1.12c-1.22,0-1.83-.61-1.83-1.83s.61-1.83,1.83-1.83h9.7c1.22,0,1.83.61,1.83,1.83s-.61,1.83-1.83,1.83h-1.27c-.94,0-1.41.52-1.41,1.55v113.18c0,.94.47,1.41,1.41,1.41h1.27c1.22,0,1.83.61,1.83,1.83s-.61,1.83-1.83,1.83h-9.7c-1.22,0-1.83-.61-1.83-1.83Z"/>
      <path class="cls-1" d="M191.76,120.45h-1.27c-.78,0-1.41-.63-1.41-1.41V14.41h0c-.38,0-.71-.27-.77-.65-.06-.32-.11-.64-.18-.96-.55-2.62-1.51-4.85-2.88-6.68-1.37-1.83-3.22-3.23-5.55-4.22-2.33-.98-5.28-1.48-8.84-1.48s-6.4.61-8.77,1.83c-2.38,1.22-4.34,2.86-5.89,4.92-1.37,1.82-2.41,3.92-3.1,6.29-.16.56-.68.94-1.27.94h0v7.73c-.01.4-.02.8-.02,1.2v-.77h.02v96.46c0,.94-.52,1.41-1.55,1.41h-1.1c-1.04,0-1.87.85-1.85,1.89.02,1.18.63,1.77,1.83,1.77h8.97c1.04,0,1.87-.85,1.86-1.89-.02-1.18-.65-1.77-1.9-1.77s-1.9-.47-1.9-1.41v-54.13c0-1.03.47-1.55,1.41-1.55h25.29c1.04,0,1.56.52,1.56,1.55v54.13c0,.93-.56,1.4-1.67,1.41-1.01,0-1.85.84-1.84,1.85,0,1.2.62,1.8,1.83,1.8h8.97c1.04,0,1.87-.85,1.85-1.88-.02-1.18-.63-1.77-1.83-1.77ZM184.45,58.3c0,.94-.52,1.41-1.56,1.41h-25.29c-.94,0-1.41-.47-1.41-1.41V19.77c.13-1.52.35-2.98.7-4.36.55-2.2,1.42-4.15,2.62-5.83,1.19-1.69,2.73-3.02,4.61-4.01,1.88-.98,4.15-1.48,6.82-1.48s5,.4,6.75,1.2c1.74.8,3.14,1.95,4.2,3.44,1.06,1.5,1.79,3.28,2.2,5.34.15.75.26,1.54.36,2.36v41.87Z"/>
      <path class="cls-1" d="M375.08,120.45h-1.27c-.78,0-1.41-.63-1.41-1.41V14.41h0c-.38,0-.71-.27-.77-.65-.06-.32-.11-.64-.18-.96-.55-2.62-1.51-4.85-2.88-6.68-1.37-1.83-3.22-3.23-5.55-4.22-2.33-.98-5.28-1.48-8.84-1.48s-6.4.61-8.77,1.83c-2.38,1.22-4.34,2.86-5.89,4.92-1.37,1.82-2.41,3.92-3.1,6.29-.16.56-.68.94-1.27.94h0v7.73c-.01.4-.02.8-.02,1.2v-.77h.02v96.46c0,.94-.52,1.41-1.55,1.41h-1.1c-1.04,0-1.87.85-1.85,1.89.02,1.18.63,1.77,1.83,1.77h8.97c1.04,0,1.87-.85,1.86-1.89-.02-1.18-.65-1.77-1.9-1.77s-1.9-.47-1.9-1.41v-54.13c0-1.03.47-1.55,1.41-1.55h25.29c1.04,0,1.56.52,1.56,1.55v54.13c0,.93-.56,1.4-1.67,1.41-1.01,0-1.85.84-1.84,1.85,0,1.2.62,1.8,1.83,1.8h8.97c1.04,0,1.87-.85,1.85-1.88-.02-1.18-.63-1.77-1.83-1.77ZM367.77,58.3c0,.94-.52,1.41-1.56,1.41h-25.29c-.94,0-1.41-.47-1.41-1.41V19.77c.13-1.52.35-2.98.7-4.36.55-2.2,1.42-4.15,2.62-5.83,1.19-1.69,2.73-3.02,4.61-4.01,1.88-.98,4.15-1.48,6.82-1.48s5,.4,6.75,1.2c1.74.8,3.14,1.95,4.2,3.44,1.06,1.5,1.79,3.28,2.2,5.34.15.75.26,1.54.36,2.36v41.87Z"/>
    </g>
  </g>
</svg>