<svg xmlns="http://www.w3.org/2000/svg" width="170" height="40" viewBox="0 0 170 40"><g><g><g><g><path fill="#434343" d="M84.756 26.9l.074-.116c.404-.627.847-1.227 1.325-1.784.211-.273.44-.554.694-.813.151-.187.36-.341.548-.47a4.863 4.863 0 0 1-.487.811c-.246.346-.526.674-.798.994-.426.478-.882.985-1.378 1.422zM89 28.784c0-.069.1-.138.183-.229.285-.285.702-.445 1.088-.376-.36.316-.803.545-1.271.605zm5.308.497l-.048-.026a.433.433 0 0 0-.347-.026.656.656 0 0 0-.14.06l-.128.07c-.197.1-.394.186-.645.28-.482.247-1 .424-1.588.592-1.014.299-2.325.255-2.589-.764.58-.022 1.177-.143 1.716-.467.079 0 .184-.1.294-.173.114-.073.232-.16.333-.259.198-.194.347-.47.106-.756-.51-.678-1.672-.29-2.19 0-.32.188-.597.423-.79.734-.03.052-.1.1-.201.152-.091.052-.211.095-.29.134-.206.103-.395.168-.601.29-.69.332-1.391.63-2.115.878-.085 0-.535.171-.974.279a5.4 5.4 0 0 1-.593.121.879.879 0 0 1-.184.009c-.061-.329.018-.679.127-1.007.062-.182.136-.402.22-.54.044-.09.079-.199.127-.303.044-.099.092-.172.192-.216a22.056 22.056 0 0 0 1.932-1.715 16.587 16.587 0 0 0 1.671-1.987c.101-.143.215-.281.33-.424a4.09 4.09 0 0 0 .324-.453c.15-.247.408-.938-.118-1.154-.356-.147-.83.147-1.049.302-.36.251-.632.588-.89.912-.567.713-1.093 1.46-1.633 2.176l-.698 1.1a8.523 8.523 0 0 0-.324.543l-.15.281c-.026.076-.06.076-.105.076-.052.088-.11.123-.17.166-.615.428-1.265.778-1.905 1.158a16.003 16.003 0 0 0-3.818 3.15l.944-1.72c.197-.358.421-.7.659-1.05 0-.112.144-.233.223-.363a.88.88 0 0 0 .153-.458c-.004-.462-.491-.423-.715-.298a1.547 1.547 0 0 0-.36.29l-.149.125a.5.5 0 0 1-.152.186 9.78 9.78 0 0 1-.813.622c-.187.192-.421.294-.645.42-.057.034-.215.137-.373.215-.08.04-.169.07-.169.082a.366.366 0 0 1-.103 0c-.053-.039-.07-.15-.018-.332.049-.193.121-.337.185-.428.162-.311.329-.61.54-.886.043-.06.096-.117.153-.173l.18-.164c.123-.108.254-.229.35-.376l.115-.166c.026-.115.04-.205 0-.305-.075-.19-.268-.341-.5-.298-.202.043-.382.13-.544.225-.158.09-.358.203-.47.302-.259.169-.535.307-.812.45-.517.268-1.076.527-1.57.782-.506.233-.97.427-1.506.6-.329.126-.688.244-1.075.367-.206.065-.425.156-.64.204-.198.043-.373.038-.518-.078 0-.035.005-.082.018-.143.026-.106.083-.328.144-.514.128-.38.29-.765.33-.851.061-.134.122-.268.201-.393a.866.866 0 0 1 .185-.216c.079-.07.162-.132.245-.2.11-.098.237-.232.369-.349.127-.117.246-.199.369-.225.693-.147 1.372-.198 2.11-.358.386 0 .768-.13 1.145-.238l.255-.065c.1-.03.206-.06.303-.103.193-.087.386-.242.337-.519-.052-.307-.272-.376-.487-.35-.1.009-.206.043-.291.074l-.266.086-1.193.359c-.395.116-.795.211-1.198.306.439-.488.833-1.006 1.259-1.55.119-.096.246-.225.398-.368.085-.147.199-.298.282-.48.062-.152.119-.345.097-.522-.022-.195-.15-.363-.43-.363-.395.043-.755.358-1.005.579a7.088 7.088 0 0 0-.825.872c-.531.666-.992 1.4-1.452 2.113a7.91 7.91 0 0 1-1.198.03l-.202.005a.302.302 0 0 0-.202.134c-.065.177-.065.376.119.484.201.112.434.112.649.086.167-.017.272-.043.4-.065l-.102.173c-.04.07-.131.13-.131.181-.101.061-.18.141-.26.141-.477.378-.965.715-1.487 1-.803.437-1.636.834-2.488 1.18.11-.432-.193-.826-.614-.981-.079-.03-.421-.095-.71-.199-.145 0-.26-.095-.32-.147-.054-.043-.04-.056-.023-.078.03-.038.105-.082.224-.125.114-.043.25-.082.368-.13.242-.095.5-.28.31-.652-.23-.285-.63-.246-1-.155-.292.09-.63.287-.815.345-.605.264-1.185.575-1.75.942h-.127c-.044.052-.088.082-.132.117-.088.078-.176.186-.176.341.08.242.294.268.444.246.157-.026.32-.103.399-.155.272-.177.535-.363.812-.549.219-.104.447-.212.693-.29-.075.402.202.627.522.761.13.078.386.134.575.186.188.052.35.1.456.155.312.188.255.363-.03.61-.286.242-.725.436-.926.466-.294.04-.61.035-.724-.177-.027-.047-.044-.117-.066-.199l-.035-.125-.044-.12c-.076-.182-.237-.267-.522-.195-.44.172-.365.695-.22.928.18.385.549.636.944.67.438.035.864-.069 1.272-.22.4-.151.79-.354 1.154-.532.487-.259.983-.514 1.47-.769.746-.388 1.5-.773 2.229-1.149-.105.151-.22.354-.307.566-.096.333-.237.7-.15 1.054.194.787 1.128.545 1.576.38.671-.19 1.325-.5 1.974-.773 1.106-.462 2.194-.963 3.3-1.434-.119.207-.237.389-.338.587a3.55 3.55 0 0 0-.342.95c-.044.247-.116.67.188.852.281.233.645.255.966.13.254-.1.465-.25.662-.415.193-.16.373-.333.57-.484l.391-.298c-.588 1.318-1.299 2.597-1.983 3.885-.386.695-1.316 2.397-1.711 3.106l-.268.475-.07.104-.088.116a.814.814 0 0 0-.127.29c-.044.384.354.652.724.432.1-.1.18-.23.241-.355.062-.168.114-.246.171-.354.132-.26.272-.518.413-.814.28-.473 1.123-2 1.457-2.444A18.545 18.545 0 0 1 78.766 32c.615-.671 1.317-1.215 2.04-1.738.663-.48 1.348-.934 2.076-1.262a2.95 2.95 0 0 0-.171.367 2.98 2.98 0 0 0-.202.7c-.07.437.009 1.21.729 1.184.36-.013.71-.116 1.048-.251.334-.12.663-.272.979-.397l1.369-.54c.482-.186.939-.432 1.366-.63.121.764.573 1.412 1.341 1.676.47.164.943.15 1.4.06.452-.086.9-.25 1.325-.406.439-.16.864-.354 1.29-.544l.491-.219c.066 0 .26-.123.4-.23a.516.516 0 0 0 .17-.204c.04-.104-.004-.203-.11-.285z"/></g><g><path fill="#434343" d="M114.69 25.414l.057-.082c.39-.562.83-1.098 1.253-1.595.252-.216.467-.449.7-.66.144-.135.3-.26.443-.368-.303.583-.786 1.097-1.264 1.568-.408.402-.812.804-1.229 1.193zm4.19 3.266l.03-.034c.277-.32.707-.515 1.09-.458a2.364 2.364 0 0 1-1.247.678c.035-.06.079-.125.127-.186zm36.006-1.378c.027-.013.03-.048.013-.07-.11-.138-.302-.099-.447-.047-.163.06-.351.169-.531.29a9.334 9.334 0 0 0-.843.63c-.491.368-.987.73-1.47 1.115-1.131.895-2.224 1.858-3.159 2.96l.922-1.78c.188-.4.408-.722.629-1.076.05-.117.147-.242.222-.324.079-.182.145-.341.14-.51-.017-.49-.509-.41-.728-.28-.132.081-.25.194-.355.302l-.154.164c-.048.052-.125.103-.125.147-.283.229-.55.445-.831.648a4.365 4.365 0 0 1-.637.436c-.057.03-.21.093-.368.225-.08.039-.164.073-.164.086a.316.316 0 0 1-.108.005c-.057-.044-.075-.152-.027-.337.049-.169.135-.342.135-.432.199-.32.357-.627.563-.908.044-.06.092-.12.15-.177l.175-.173c.112-.116.245-.196.342-.389l.11-.203a.366.366 0 0 0-.005-.272.552.552 0 0 0-.509-.332c-.302.116-.579.272-.826.444a7.75 7.75 0 0 0-.753.556c-.408.21-.83.438-1.247.659-.675.341-1.35.66-2 .915-.378.121-.711.23-1 .337a6.365 6.365 0 0 1-.676.204c-.202.047-.324.034-.444-.115 0 0 .01 0 .018-.106.026-.147.102-.332.102-.523.152-.371.297-.764.337-.855a3.75 3.75 0 0 1 .193-.402c.048-.114.114-.114.184-.22.08-.07.158-.134.286-.208 0-.051.074-.112.135-.177l.18-.181c.123-.121.242-.208.364-.238.698-.168 1.418-.237 2.12-.384a13.1 13.1 0 0 0 1.145-.299l.254-.073c.101-.03.207-.065.303-.112.189-.095.378-.222.325-.532-.062-.306-.28-.371-.496-.341-.1.013-.206.047-.33.082l-.218.095-1.172.385c-.408.089-.82.242-1.233.35.426-.506.812-1.033 1.229-1.547.118-.143.245-.281.394-.424.084-.147.194-.29.273-.488.061-.142.114-.35.087-.527-.026-.194-.158-.359-.438-.354-.395.079-.75.376-.996.605a7.16 7.16 0 0 0-.808.898c-.522.683-.965 1.435-1.413 2.165-.399.047-.803.07-1.206.06l-.202.013a.302.302 0 0 0-.202.16c-.095.178-.095.363.127.467.202.108.44.104.654.073.124-.017.272-.052.404-.073a1.6 1.6 0 0 1-.28.397c-.488.314-1 .666-1.47.964-.48.285-.975.544-1.475.79-.264.13-.531.26-.808.363-.118.048-.247.104-.377.134-.105.063-.206.063-.298-.004-.088-.229-.027-.45.087-.683.062-.125.136-.25.202-.375.066-.13.14-.26.14-.398.093-.25-.001-.583-.368-.6-.171-.01-.333.123-.46.224-.066.056-.173.121-.173.177-.073.056-.122.104-.161.134-.531.424-1.106.804-1.694 1.154-.25.151-.53.337-.825.492-.254.13-.509.238-.759.277.009-.335.185-.644.44-.933.113-.16.262-.316.403-.467.145-.156.285-.311.399-.48.088-.125.197-.337.123-.553a.413.413 0 0 0-.513-.229 1.636 1.636 0 0 0-.588.327c-.176.097-.338.235-.505.365-.47.363-1.018.635-1.558.916-.762.393-1.584.777-2.422.993-.092.026-.276.082-.46.108-.198.026-.303 0-.334-.047-.018-.026-.022-.06.004-.125a.832.832 0 0 1 .14-.21l.194-.248c.053-.07.116-.156.116-.234.06-.168 0-.376-.16-.518-.14-.09-.347-.108-.518.108-.25.31-.557.553-.886.8-.092.092-.54.336-.952.505-.206.086-.386.134-.484.13-.104-.005-.135-.022-.117-.135.026-.155.117-.32.215-.48.11-.163.241-.315.346-.449.246-.306.422-.479.737-.725a2.69 2.69 0 0 1 1.132-.458c.119-.018.242-.026.356-.057.331-.077.676-.462.272-.799-.21-.12-.487-.1-.733-.043-.208.052-.491.147-.662.199-.39.12-.746.293-1.115.462-.737.337-1.431.747-2.11 1.17-.808.498-1.628.947-2.554 1.107-.851.147-1.904.06-2.159-.79.237-.035.47-.079.702-.13.272-.06.54-.143.794-.268.18-.087.51-.285.746-.519.228-.22.43-.548.15-.838-.474-.605-1.519-.276-2-.013-.278.143-.559.328-.76.575a.944.944 0 0 0-.132.203l-.108.194c0 .126-.103.251-.2.251-.46.315-.947.553-1.452.747-.118.048-.258.108-.412.16-.145.093-.303.093-.452.093-.272.071-.484 0-.627-.17.364-.472.623-1.115.43-1.746-.07-.233-.211-.367-.47-.398-.347-.039-.592.314-.715.493-.171.272-.25.61-.233.925.01.168.044.337.131.492V29.74c0 .021 0 .047-.078.116-.4.484-.974.899-1.597.873-.08-.047-.119-.151-.114-.302 0-.078.013-.16.03-.238l.049-.188c.1-.438.267-.845.452-1.238.184-.393.377-.762.57-1.166.035-.074.066-.147.101-.212a.393.393 0 0 1 .118-.147c.378-.237.746-.583 1.106-.89a25.456 25.456 0 0 0 1.966-1.88c.285-.289.623-.596.926-.92.307-.328.588-.691.746-1.093.144-.367.074-.894-.448-.98-.43-.074-.827.168-1.14.41-.687.579-1.251 1.335-1.773 2.03a38.642 38.642 0 0 0-1.532 2.226c-.136.207-.267.419-.382.635-.074.095-.17.225-.289.225-.123.125-.255.202-.36.276-.434.307-.882.596-1.35.864-.22.134-.41.246-.62.359-.21.108-.447.216-.768.332-.329.169-.755.169-1.027.294-.127.043-.263.108-.315.203-.062.117.017.234.206.337.18.1.842-.004 1.193-.12.33-.096.43-.165.698-.295.632-.315 1.255-.695 1.86-1.075-.228.419-.412.825-.596 1.274-.11.26-.237.551-.294.856-.057.302-.053.618.105.92.32.626 1.119.514 1.557.29.584-.264 1-.713 1.418-1.15.582.458 1.202.341 1.803.087.312-.13.628-.307.926-.452a4.33 4.33 0 0 1 .702-.356c.101.764.689 1.356 1.444 1.555.842.212 1.707-.078 2.479-.397.71-.312 1.356-.722 1.992-1.132.395-.255.79-.51 1.236-.748a3.441 3.441 0 0 0-.644.786c-.356.575-.535 1.292.15 1.603.337.156.67.113.973-.008.145-.056.29-.134.43-.22.091-.083.264-.17.387-.251l.552-.372c-.052.899 1.014.882 1.61.666.33-.126.65-.281.966-.454.312-.173.576-.35.921-.514.655-.342 1.304-.648 1.957-.964l-.092.151c-.114.204-.21.45-.342.655-.176.465-.316 1.052.202 1.186.434.147.93-.108 1.228-.285.316-.177.623-.363.926-.562.58-.339 1.167-.747 1.776-1.097l-.078.194c-.052.173-.1.359-.118.564-.035.33.057.698.535.793.316.047.597-.013.856-.125a3.36 3.36 0 0 0 .373-.19l.35-.212c.246-.147.492-.266.738-.432a130.89 130.89 0 0 1 1.865-1.093c-.101.194-.198.397-.281.6-.123.316-.24.659-.171 1.011.145.756.931.648 1.408.527a7.91 7.91 0 0 0 1.062-.41c.342-.156.68-.324 1.018-.469 1.075-.52 2.146-1 3.225-1.527a7.94 7.94 0 0 0-.325.6 3.61 3.61 0 0 0-.32.927c-.035.283-.066.668.21.888.29.229.653.242.975.112.254-.112.465-.272.678-.44.169-.165.349-.346.542-.502l.386-.31c-.562 1.339-1.246 2.644-1.928 3.94-.35.726-1.253 2.406-1.635 3.128l-.255.484-.11.108v.12a.446.446 0 0 0-.162.294c-.035.385.395.644.737.415.106-.116.193-.237.26-.41.065-.138.165-.285.165-.41.163-.303.848-1.552 1-1.846.304-.571.655-1.144 1-1.693.739-1.054 1.55-2.061 2.485-2.93.515-.505 1.106-.948 1.698-1.456.474-.363.961-.708 1.47-1.02.11-.064.465-.246.773-.472.153-.093.302-.21.408-.327.092-.103.166-.246.052-.371z"/></g><g><path fill="#434343" d="M101.777 26.272a1.187 1.187 0 0 1 .097-.666c.126-.229.33-.475.627-.606a1.253 1.253 0 0 1 .659-.102l.079.047c.004.055.004.055-.01.152-.03.142-.109.31-.229.466a2.37 2.37 0 0 1-.209.225l-.29.212c-.096.13-.193.203-.29.28-.096.078-.211.156-.297.23l-.075.051a1.153 1.153 0 0 1-.062-.29zm-.425.626l-.053.035c-.11.067-.22.134-.299.194l-.201.087c-.075.034-.136.069-.197.103-.492.277-.957.584-1.4.938-.435.358-.865.825-1.018 1.46l-.03.164-.01.121-.004.078.004.147c.018.182.08.367.172.527.193.329.509.514.79.605.574.173 1.087.074 1.513-.052.381-.138.786-.305 1.062-.583.14-.112.259-.233.319-.35l.308-.315c.158-.203.268-.39.33-.528a1.16 1.16 0 0 0 .087-.267.372.372 0 0 0-.324-.407c-.202-.025-.401.145-.401.329v.095c-.065.1-.122.242-.218.428-.03.051-.15.293-.184.293a2.486 2.486 0 0 1-.286.29c-.223.181-.517.35-.86.428-.17.039-.355.056-.535.039a1.299 1.299 0 0 1-.5-.147.602.602 0 0 1-.281-.286.612.612 0 0 1-.035-.233L99.11 30l.017-.073c.08-.35.312-.739.632-1.102a4.46 4.46 0 0 1 1.163-.933c.078-.03.078-.06.158-.082l.188-.095c.119-.06.237-.125.387-.208l.105.156c.114.151.24.337.43.484l.136.12.14.117c.097.078.207.143.307.217l.325.185.325.152.316.116c.096.035.197.056.261.082.204.056.331.07.436.091l.242.039c.215.03.526-.004.53-.266 0-.18-.153-.231-.267-.248-.114-.018-.254-.013-.36-.03l-.21-.035a1.396 1.396 0 0 1-.202-.052c-.084-.026-.169-.047-.26-.078l-.275-.108-.286-.138-.28-.164c-.068-.065-.18-.147-.26-.147l-.122-.147-.11-.104a2.658 2.658 0 0 1-.355-.41l-.08-.117.19-.112c.113-.11.227-.11.342-.23.114-.077.232-.155.327-.232l.318-.23c.127-.099.232-.19.337-.302.207-.22.345-.48.479-.808a1.2 1.2 0 0 0 .03-.544c-.03-.195-.164-.415-.329-.57a1.125 1.125 0 0 0-.368-.194h-.667c-.285.09-.518.232-.707.38a3.037 3.037 0 0 0-.474.475 1.747 1.747 0 0 0-.311.522c-.145.363-.15.705-.119.968.031.242.088.428.163.553z"/></g></g><g><g><path fill="#434343" d="M70.644 11.715c0 1.227-.447 2.285-1.325 3.158-.882.868-1.957 1.31-3.203 1.31a4.41 4.41 0 0 1-3.194-1.31C62 14 61.597 12.942 61.597 11.715c0-1.214.403-2.273 1.325-3.141a4.402 4.402 0 0 1 3.194-1.31c1.246 0 2.321.441 3.203 1.31.882.868 1.325 1.927 1.325 3.14zM66.116 5.83c-1.64 0-3.116.583-4.225 1.728-1.159 1.145-1.751 2.545-1.751 4.157 0 1.624.588 3.024 1.75 4.169 1.163 1.116 2.585 1.724 4.226 1.724 1.646 0 3.067-.608 4.23-1.724 1.163-1.145 1.755-2.545 1.755-4.17 0-1.61-.588-3.01-1.755-4.156-1.163-1.145-2.584-1.728-4.23-1.728z"/></g><g><path fill="#434343" d="M77.178 6H75.73v11.467h5.577V16h-4.129z"/></g><g><path fill="#434343" d="M148.394 11.705a4.294 4.294 0 0 1-1.325 3.158c-.882.868-1.957 1.31-3.203 1.31a4.41 4.41 0 0 1-3.194-1.31 4.294 4.294 0 0 1-1.325-3.158c0-1.214.447-2.273 1.325-3.141.877-.869 1.952-1.31 3.194-1.31 1.246 0 2.321.441 3.203 1.31.878.868 1.325 1.922 1.325 3.14zm-4.528-5.885c-1.64 0-3.067.579-4.225 1.728-1.159 1.145-1.751 2.545-1.751 4.157 0 1.624.588 3.028 1.75 4.169 1.163 1.126 2.585 1.724 4.226 1.724 1.646 0 3.067-.598 4.234-1.724 1.163-1.145 1.751-2.545 1.751-4.17 0-1.61-.588-3.01-1.75-4.156-1.168-1.149-2.59-1.728-4.235-1.728z"/></g><g><path fill="#434343" d="M86.572 7.413h.974c1.454 0 2.58.389 3.388 1.158.877.864 1.32 1.918 1.32 3.141 0 1.227-.443 2.288-1.316 3.145C90.122 15.627 89 16 87.546 16h-.974zM87.551 6H85.12v11.467h2.43c1.888-.013 3.38-.544 4.45-1.586 1.145-1.14 1.733-2.544 1.733-4.165 0-1.607-.588-3.002-1.733-4.147C90.934 6.519 89.438 6 87.55 6z"/></g><g><path fill="#434343" d="M115.108 14l-7.288-8.56v12.024h1.448V9.45l7.288 8.55V6h-1.448z"/></g><g><path fill="#434343" d="M97.42 17.467h6.257V16h-4.805v-3.57h3.875V11h-3.875V7.391h4.805V6H97.42z"/></g><g><path fill="#434343" d="M163.74 17.467H170V16h-4.812v-3.57h3.874V11h-3.874V7.391H170V6h-6.26z"/></g><g><path fill="#434343" d="M157.341 10.805l-.759-.329c-.768-.341-1.72-.765-1.72-1.668 0-.924.786-1.646 1.79-1.646.847 0 1.348.342 1.883 1.171l.048.082 1.14-.721.027-.018-.04-.077c-.622-1.137-1.71-1.789-3.027-1.789-1.869 0-3.277 1.266-3.277 2.947 0 1.68 1.197 2.354 2.531 2.955l.694.288h.052c1.023.494 1.988.926 1.988 2.153 0 1.154-1.005 2.091-2.247 2.091-1.114 0-2.014-.82-2.185-2l-.013-.104-1.426.393.018.087c.377 1.806 1.803 2.972 3.637 2.972 2.058 0 3.673-1.592 3.673-3.592.004-1.834-1.374-2.586-2.787-3.195z"/></g><g><path fill="#434343" d="M55.58 15.32c-.745.561-1.64.846-2.663.846-1.241 0-2.312-.436-3.19-1.3-.877-.866-1.32-1.923-1.32-3.15 0-1.223.443-2.277 1.32-3.137.878-.86 1.949-1.296 3.19-1.296.843 0 1.633.225 2.365.717l1.26-.929c-1.097-.816-2.317-1.231-3.62-1.231-1.646 0-3.067.579-4.226 1.728-1.158 1.145-1.746 2.54-1.746 4.152 0 1.625.588 3.025 1.746 4.161 1.159 1.119 2.58 1.715 4.226 1.715 1.535 0 2.891-.544 4.078-1.596v-4.349l-1.415 1.011v2.657z"/></g><g><path fill="#434343" d="M132.534 13.277c1.11-.484 1.856-1.5 2.088-2.657.215-1.3-.14-2.62-1.096-3.53-1.747-1.72-4.44-1.517-6.196-.09v10.463h1.44l.021-9.812c.76-.466 1.825-.651 2.742-.341 1.405.467 2.124 2.04 1.69 3.392-.369 1.149-1.44 2.035-2.765 1.94l3.142 4.821h1.632z"/></g></g><g><g><path fill="#434343" d="M40.56 19.432c-.737-4.887-5.125-8.53-10.144-8.432-1.576 0-3.085.33-4.493 1l-.163.117-8.933 22.947L14.94 40h2.988l4.857-12.692.005.005 1.158-3.025-.004-.009 3.852-10.066a7.378 7.378 0 0 1 2.383-.502c3.936-.173 7.398 2.848 7.678 6.719.308 4.238-3.106 7.781-7.35 7.781-1.759 0-2.702-.12-4.163-.66L33 40h3s-4.878-9.343-4.882-9.343c5.704.142 10.333-5.319 9.442-11.225z"/></g><g><path fill="#434343" d="M12.33 24.282c.97 0 1.926-.113 2.865-.333l-3.844 9.873h3.05l7.845-20.268-3.848 2.173-1.882 4.839a9.508 9.508 0 0 1-4.182.955c-5.257 0-9.53-4.208-9.53-9.38 0-5.141 4.273-9.38 9.53-9.38a9.575 9.575 0 0 1 6.871 2.886l2.48-1.404A12.356 12.356 0 0 0 12.33 0C5.529 0 0 5.444 0 12.137c0 6.692 5.533 12.145 12.33 12.145z"/></g></g></g></g></svg>