<?xml version="1.0" encoding="UTF-8"?>
<svg id="Layer_1" data-name="Layer 1" xmlns="http://www.w3.org/2000/svg" viewBox="0 0 117 27.46">
  <defs>
    <style>
      .cls-1 {
        fill: #1a1a18;
      }

      .cls-1, .cls-2 {
        stroke-width: 0px;
      }

      .cls-2 {
        fill: #2c296f;
      }
    </style>
  </defs>
  <g>
    <path class="cls-1" d="M112.86,12.72h-3.32v8.07c0,.96-.29,1.43-.86,1.43-.13,0-.34-.03-.6-.08l-.49,2.41c.96.18,1.74.29,2.39.29.75,0,1.35-.16,1.79-.44.41-.26.7-.62.86-1.06.13-.47.21-1.22.23-2.26v-8.36Z"/>
    <rect class="cls-1" x="113.7" y="9.42" width="3.3" height="2.26"/>
    <rect class="cls-1" x="109.54" y="9.42" width="3.32" height="2.28"/>
    <rect class="cls-1" x="113.7" y="12.72" width="3.3" height="8.62"/>
    <polygon class="cls-1" points="75.89 14.03 75.89 9.51 72.21 9.51 72.21 21.43 75.89 21.43 75.89 18.52 77.79 16.52 80.28 21.43 84.82 21.43 80.28 14 84.64 9.51 79.74 9.51 75.89 14.03"/>
    <path class="cls-1" d="M92.9,14.11c-.88-1.01-2.18-1.51-3.92-1.51-1.48,0-2.67.44-3.58,1.27-.88.86-1.32,1.92-1.32,3.27s.52,2.54,1.58,3.43c.83.7,1.95,1.06,3.35,1.06,1.53,0,2.75-.44,3.63-1.3.88-.81,1.32-1.89,1.32-3.24,0-1.19-.34-2.18-1.06-2.98h0ZM90.67,17.09h0c0,1.51-.54,2.28-1.64,2.28s-1.66-.75-1.66-2.26.57-2.23,1.69-2.23,1.61.73,1.61,2.21Z"/>
    <path class="cls-1" d="M103.58,12.51c-1.5,0-2.67.41-3.55,1.25-.86.8-1.3,1.92-1.3,3.27,0,.96.21,1.79.65,2.49.42.7.96,1.22,1.64,1.53.65.31,1.56.49,2.67.49,1.3,0,2.28-.21,3.04-.57.67-.36,1.3-.99,1.79-1.87l-3.24-.31c-.21.26-.41.44-.57.57-.28.13-.6.21-.93.23-.52-.03-.93-.21-1.25-.57-.23-.26-.39-.65-.42-1.19h6.59v-.36c0-1.14-.18-2.05-.54-2.78-.78-1.43-2.28-2.18-4.57-2.18h0ZM102.49,15.11h0c.29-.44.7-.65,1.25-.62.93-.03,1.48.57,1.61,1.76h-3.24c.05-.49.18-.88.39-1.14Z"/>
    <rect class="cls-1" x="94.69" y="9.42" width="3.3" height="11.91"/>
    <path class="cls-1" d="M38.25,13.8v-4.39h-3.3v11.91h3.3v-4.15c0-1.38.47-2.08,1.35-2.08.78,0,1.14.49,1.17,1.48v4.75h3.3v-5.48c0-2.21-.96-3.35-2.91-3.35-1.09,0-2.08.44-2.91,1.3Z"/>
    <rect class="cls-1" x="30.25" y="6.27" width="3.63" height="2.44"/>
    <rect class="cls-1" x="30.22" y="9.41" width="3.69" height="11.91"/>
    <rect class="cls-1" x="44.8" y="9.41" width="3.3" height="11.91"/>
    <path class="cls-1" d="M57.09,13.38c-.68-.6-1.95-.88-3.89-.88-1.35,0-2.34.18-2.98.52-.78.44-1.27,1.14-1.48,2.13l3.17.34c.13-.36.31-.62.49-.75.29-.18.7-.26,1.25-.26.75,0,1.12.36,1.12,1.09-.67.29-1.87.57-3.58.93-1.79.34-2.7,1.19-2.7,2.54,0,.73.29,1.32.81,1.76.57.47,1.35.73,2.34.73.78,0,1.45-.13,2.05-.36.42-.18.86-.49,1.27-.91.08.39.18.73.36,1.06h3.11c-.28-.57-.41-1.17-.41-1.84v-3.79c0-1.04-.31-1.79-.91-2.31h0ZM54.75,17.74h0c0,.42-.05.75-.21,1.01-.31.62-.86.93-1.69.93-.7,0-1.06-.31-1.06-.91,0-.47.52-.86,1.56-1.12.52-.16.99-.29,1.4-.44v.52Z"/>
    <path class="cls-1" d="M66.45,13.56c-.65-.62-1.79-.96-3.48-.96-.99,0-1.77.1-2.34.31-1.25.44-1.87,1.25-1.87,2.39-.03.52.16.99.47,1.38.28.42.67.7,1.14.88.39.16,1.19.34,2.36.54.78.16,1.25.26,1.43.36.23.1.36.29.36.54,0,.55-.44.81-1.3.81-.78,0-1.3-.36-1.56-1.09l-3.27.31c.21.88.62,1.51,1.3,1.92.73.44,1.84.68,3.37.68,1.09,0,1.97-.13,2.62-.42,1.25-.54,1.87-1.43,1.87-2.6,0-.49-.16-.93-.44-1.35-.52-.75-1.74-1.25-3.66-1.48-.7-.08-1.17-.18-1.43-.29-.21-.1-.31-.26-.31-.47,0-.47.36-.7,1.06-.7s1.19.29,1.35.88l3.14-.31c-.23-.57-.49-1.01-.83-1.35Z"/>
  </g>
  <path class="cls-2" d="M13.58,0c-.98-.04-1.89.19-2.7.69-1.2.73-2.08,1.93-2.66,3.61-1.14-.39-2.22-.39-3.2.02-.91.35-1.62.98-2.12,1.87-.5.85-.68,1.76-.56,2.7.1,1.04.58,1.89,1.37,2.59l-1.12.69c-.87.64-1.54,1.43-2.03,2.37-.62,1.16-.73,2.45-.33,3.84.44,1.45,1.31,2.66,2.62,3.59,1.14.79,2.74,1.02,4.84.71.64-.08,1.31-.25,1.99-.44l.81-.27c.21,3.05-.02,4.9-.71,5.5h7.62c-.68-.6-.93-2.45-.71-5.5l.81.27c.66.19,1.35.35,1.99.44,2.1.31,3.69.08,4.84-.71,1.31-.93,2.18-2.14,2.59-3.59.39-1.39.29-2.68-.33-3.84-.5-.93-1.16-1.72-2.01-2.37l-1.14-.69c.81-.71,1.27-1.56,1.39-2.59.1-.93-.08-1.85-.56-2.7-.52-.89-1.22-1.51-2.12-1.87-1-.41-2.08-.41-3.2-.02-.6-1.68-1.47-2.89-2.66-3.61C15.47.19,14.57-.04,13.58,0h0ZM13.5,7.68h0c-.31,0-.6-.1-.83-.35-.23-.23-.35-.52-.35-.83,0-.33.12-.62.35-.85.12-.15.29-.23.46-.29l.35.54.37-.56c.17.06.35.15.5.31.25.23.35.52.35.85,0,.31-.1.6-.35.83-.23.25-.52.35-.85.35h0ZM8.51,8.45h0l.35-.56c.19.06.35.15.52.31.23.23.35.52.35.85,0,.31-.12.6-.35.83-.25.25-.52.35-.85.35s-.62-.1-.85-.35c-.23-.23-.33-.52-.33-.83,0-.33.1-.62.33-.85.12-.15.29-.23.48-.29l.35.54h0ZM7.62,13.18h0c.19.06.35.17.52.31.23.23.35.52.35.85,0,.31-.12.6-.35.83-.25.23-.54.35-.85.35s-.6-.12-.83-.35c-.25-.23-.35-.52-.35-.83,0-.33.1-.62.35-.85.12-.15.27-.23.46-.29l.35.54.35-.56h0ZM14.35,13.62h0c-.23.25-.52.35-.85.35-.31,0-.6-.1-.83-.35-.23-.25-.35-.52-.35-.85s.12-.6.35-.85c.12-.12.29-.23.46-.27l.35.54.37-.56c.17.06.35.15.5.29.25.25.35.52.35.85s-.1.6-.35.85h0ZM18.97,7.89h0c.21.06.37.15.52.31.25.23.35.52.35.85,0,.31-.1.6-.35.83-.23.25-.52.35-.83.35-.33,0-.62-.1-.85-.35-.23-.23-.35-.52-.35-.83,0-.33.12-.62.35-.85.12-.15.29-.23.46-.29l.35.54.35-.56h0ZM18.73,13.5h0c.15-.15.29-.23.48-.29l.35.54.35-.56c.19.06.35.17.52.31.23.23.35.52.35.85,0,.31-.12.6-.35.83-.25.23-.52.35-.85.35s-.6-.12-.85-.35c-.23-.23-.33-.52-.33-.83,0-.33.1-.62.33-.85h0ZM16.94,17.71h0c.23.25.35.52.35.85,0,.31-.12.6-.35.83-.23.25-.52.37-.83.37-.33,0-.62-.12-.85-.37-.25-.23-.35-.52-.35-.83,0-.33.1-.6.35-.85.12-.12.27-.23.46-.29l.35.54.35-.54c.19.04.35.15.52.29h0ZM11.48,17.71h0c.23.25.35.52.35.85,0,.31-.12.6-.35.83-.25.25-.52.37-.85.37s-.6-.12-.85-.37c-.23-.23-.33-.52-.33-.83,0-.33.1-.6.33-.85.15-.12.29-.23.48-.29l.35.54.35-.54c.19.04.35.15.52.29Z"/>
</svg>