<svg xmlns="http://www.w3.org/2000/svg" viewBox="0 0 168.23 50"><g id="e2d399b1-8eb1-4943-b38f-d5bfa2f70544" data-name="Layer 2"><g id="be2f6fd5-0432-4cb3-a78f-1436930d9572" data-name="Layer 1"><path d="M22,46C10.91,39.46,3.49,25,3,8.88L11,3H33.12l7.94,5.91C40.58,25,33.16,39.45,22,46" style="fill:#535386"/><path d="M22,49.43C8.89,42.62.05,25.78,0,7.41L10,0H34.11l10,7.41c-.06,18.37-8.89,35.22-22,42M1.83,8.31v.17c.38,16.86,8.24,32.08,20,38.79l.16.09.17-.09C34,40.56,41.86,25.34,42.23,8.49V8.31L33.5,1.82H10.56Z" style="fill:#f5a800"/><path d="M18.68,16.08a25.65,25.65,0,0,0-6.43-3.77V15C15.4,16.48,23.16,21,22.55,29.57a14.4,14.4,0,0,1-.29,2.06,4.62,4.62,0,0,1-.29.66,14.83,14.83,0,0,1-.46-2.72,13.1,13.1,0,0,1,.29-3.83,12.12,12.12,0,0,0-1.44-3.41A14.8,14.8,0,0,0,19,29.74a17.36,17.36,0,0,0,1.26,5.37h0L22,39l1.6-3.49a18.1,18.1,0,0,0,1.41-5.76c.37-5.26-1.83-10-6.37-13.66" style="fill:#fff"/><path d="M25.39,16.08a19.13,19.13,0,0,0-3.08,3.09,17.08,17.08,0,0,1,1.44,2.25,16.8,16.8,0,0,1,3.16-3.36,23.24,23.24,0,0,1,4.91-3V12.31a25,25,0,0,0-6.43,3.77" style="fill:#fff"/><path d="M24,14.74a25.56,25.56,0,0,0-2,1.78,23.67,23.67,0,0,0-2-1.78,28,28,0,0,0-7-4.11l-.82-.32V11.5l.41.17a26.81,26.81,0,0,1,6.72,3.93A22.27,22.27,0,0,1,22,18.16a22.33,22.33,0,0,1,2.66-2.56,27.28,27.28,0,0,1,6.72-3.94l.41-.16V10.31l-.82.32a28,28,0,0,0-7,4.11" style="fill:#f5a800"/><polygon points="22.04 7.19 22.87 8.24 24.2 8.09 24.05 9.42 25.1 10.26 24.05 11.09 24.2 12.43 22.87 12.27 22.04 13.32 21.2 12.27 19.86 12.43 20.02 11.09 18.97 10.26 20.02 9.42 19.86 8.09 21.2 8.24 22.04 7.19" style="fill:#f5a800"/><path d="M59.35,46.74a5,5,0,0,1-1.1,1.6,4.84,4.84,0,0,1-1.62,1,5.44,5.44,0,0,1-2,.37,5.35,5.35,0,0,1-1.95-.36A4.81,4.81,0,0,1,50,46.8a5.08,5.08,0,0,1-.4-2A5,5,0,0,1,50,42.7a4.79,4.79,0,0,1,1.13-1.58,5.15,5.15,0,0,1,1.67-1,5.9,5.9,0,0,1,2-.35,5.06,5.06,0,0,1,2.07.41,4.66,4.66,0,0,1,2.52,2.66,5.16,5.16,0,0,1,.34,1.87A4.79,4.79,0,0,1,59.35,46.74Zm-1.48-3.66a5,5,0,0,0-.64-1.52,3.42,3.42,0,0,0-1.06-1.11,2.57,2.57,0,0,0-1.5-.43,2.67,2.67,0,0,0-1.53.43,3.45,3.45,0,0,0-1,1.1,4.91,4.91,0,0,0-.61,1.54,7.8,7.8,0,0,0-.2,1.74,6.92,6.92,0,0,0,.22,1.77,5,5,0,0,0,.64,1.51,3.42,3.42,0,0,0,1.07,1,2.84,2.84,0,0,0,1.5.39,2.53,2.53,0,0,0,1.48-.43A3.64,3.64,0,0,0,57.24,48a5.3,5.3,0,0,0,.63-1.54,7.06,7.06,0,0,0,.21-1.7A6.88,6.88,0,0,0,57.87,43.08Z" style="fill:#535386"/><path d="M54.65,49.93a5.43,5.43,0,0,1-2-.37A5.19,5.19,0,0,1,51,48.51a5.4,5.4,0,0,1-1.11-5.89A4.88,4.88,0,0,1,51,41a5.1,5.1,0,0,1,1.73-1,6,6,0,0,1,2.07-.36A5.24,5.24,0,0,1,57,40a4.92,4.92,0,0,1,1.61,1.13,5,5,0,0,1,1,1.64A5.46,5.46,0,0,1,60,44.73a5.09,5.09,0,0,1-.42,2.08,5.25,5.25,0,0,1-1.15,1.66,5,5,0,0,1-1.69,1.08A5.52,5.52,0,0,1,54.65,49.93Zm0-9.72a2.52,2.52,0,0,0-1.42.39,3.24,3.24,0,0,0-1,1,4.88,4.88,0,0,0-.59,1.48,7.51,7.51,0,0,0-.19,1.7,7,7,0,0,0,.21,1.73A4.82,4.82,0,0,0,52.3,48a3.29,3.29,0,0,0,1,1,2.68,2.68,0,0,0,1.4.36,2.36,2.36,0,0,0,1.38-.4,3.47,3.47,0,0,0,1-1.06,5.17,5.17,0,0,0,.61-1.48,6.73,6.73,0,0,0,.2-1.66,6.42,6.42,0,0,0-.2-1.62,5.23,5.23,0,0,0-.61-1.47,3.53,3.53,0,0,0-1-1.06A2.47,2.47,0,0,0,54.67,40.21Zm-1.52,0-.27.09a4.75,4.75,0,0,0-1.6.95,4.65,4.65,0,0,0-1.09,1.51,5,5,0,0,0-.4,2,4.85,4.85,0,0,0,.38,1.93,4.55,4.55,0,0,0,1,1.51,4.7,4.7,0,0,0,1.55,1,3.45,3.45,0,0,0,.42.14l-.08,0A3.56,3.56,0,0,1,52,48.21a5.11,5.11,0,0,1-.67-1.56,7.26,7.26,0,0,1-.23-1.82,7.6,7.6,0,0,1,.21-1.78,5.14,5.14,0,0,1,.63-1.6A3.73,3.73,0,0,1,53,40.29Zm2.73-.15.4.22a3.77,3.77,0,0,1,1.11,1.17A5.18,5.18,0,0,1,58.05,43h0a6.69,6.69,0,0,1,.22,1.71,7,7,0,0,1-.22,1.75,5.48,5.48,0,0,1-.65,1.59,3.85,3.85,0,0,1-1.1,1.17l-.11.07.37-.12a4.82,4.82,0,0,0,1.56-1,4.76,4.76,0,0,0,1.06-1.54h0a4.69,4.69,0,0,0,.39-1.93,5.21,5.21,0,0,0-.32-1.8,4.59,4.59,0,0,0-3.37-2.86Z" style="fill:#535386"/><path d="M73.47,49.68l-.12-.08a.64.64,0,0,1-.15-.14l-1.65-1.9c-.52-.6-1.06-1.21-1.62-1.82a3.11,3.11,0,0,0-.48-.49.42.42,0,0,0-.22-.1.17.17,0,0,0-.14.05.46.46,0,0,0-.08.16V46.7c0,.41,0,.77,0,1.07s0,.5.06.73a1.05,1.05,0,0,0,.17.51.83.83,0,0,0,.26.23,1.58,1.58,0,0,0,.35.16,2.62,2.62,0,0,0,.38.09,2.09,2.09,0,0,0,.32,0v.14H66.21v-.14a3.63,3.63,0,0,0,.65-.16,1.06,1.06,0,0,0,.47-.3.54.54,0,0,0,.11-.24,1.91,1.91,0,0,0,.06-.37q0-.21,0-.45v-.46c0-.12,0-.29,0-.51s0-.45,0-.7V42.12a9.39,9.39,0,0,0,0-.95,1.14,1.14,0,0,0-.18-.62,1.18,1.18,0,0,0-.46-.34,2.68,2.68,0,0,0-.62-.15v-.13h4.2v.13a3.73,3.73,0,0,0-.5.08,1,1,0,0,0-.44.2,1.25,1.25,0,0,0-.32.47,2.68,2.68,0,0,0-.14.88c0,.2,0,.4,0,.58s0,.39,0,.62V45a4.58,4.58,0,0,0,.66-.51c.28-.24.57-.5.87-.8l.9-.92.77-.83a5.34,5.34,0,0,0,.41-.56.9.9,0,0,0,.19-.51.64.64,0,0,0-.27-.57,1.58,1.58,0,0,0-.63-.23v-.13h3.63v.13a2.91,2.91,0,0,0-1.39.58,16.33,16.33,0,0,0-1.44,1.2c-.19.17-.38.35-.58.55l-.59.6-.57.57-.51.52.5.59.94,1.07L73.07,47l1.18,1.32c.09.11.2.22.31.33l.34.29.29.22a.55.55,0,0,0,.16.11,3.68,3.68,0,0,0,.48.14,5.93,5.93,0,0,0,.68.09v.14Z" style="fill:#535386"/><path d="M76.7,49.86H73.42l0,0-.14-.09a.7.7,0,0,1-.19-.17l-1.64-1.9c-.52-.61-1.07-1.22-1.62-1.82a4.7,4.7,0,0,0-.45-.46c-.08-.06-.11-.06-.11-.06h0s0,0,0,0V46.7c0,.41,0,.77,0,1.06s0,.49.05.72a.93.93,0,0,0,.14.42.74.74,0,0,0,.21.18,1.09,1.09,0,0,0,.31.14l.35.09.3,0h.17v.49H66v-.48l.16,0a4.34,4.34,0,0,0,.62-.16.93.93,0,0,0,.39-.24.62.62,0,0,0,.07-.17,2.75,2.75,0,0,0,0-.34,3,3,0,0,0,0-.44c0-.15,0-.3,0-.45v-.51c0-.22,0-.45,0-.7V42.12c0-.33,0-.65,0-.93a.79.79,0,0,0-.53-.81,2.28,2.28,0,0,0-.57-.13l-.17,0v-.49h4.57v.49l-.16,0a3.85,3.85,0,0,0-.49.07.86.86,0,0,0-.35.16,1,1,0,0,0-.26.4,2.31,2.31,0,0,0-.13.81c0,.21,0,.4,0,.58s0,.39,0,.62v1.74l.35-.29c.27-.23.56-.5.86-.8s.6-.6.89-.91.56-.59.77-.83a3.51,3.51,0,0,0,.4-.53.77.77,0,0,0,.15-.41.43.43,0,0,0-.19-.41,1.34,1.34,0,0,0-.55-.2l-.15,0v-.48h4v.49l-.17,0a2.67,2.67,0,0,0-1.3.54A17.71,17.71,0,0,0,72.85,42c-.19.17-.38.36-.58.55l-.59.6-.57.57-.39.4.4.46c.26.3.57.66.93,1.06l1.16,1.3,1.18,1.33a2.91,2.91,0,0,0,.3.31,2.73,2.73,0,0,0,.33.28l.28.23.12.08a3.46,3.46,0,0,0,.45.12,4.17,4.17,0,0,0,.66.1h.17Zm-3.18-.37h1.76a1.12,1.12,0,0,1-.21-.14l-.28-.22-.35-.3a2.65,2.65,0,0,1-.33-.35l-1.18-1.32-1.16-1.3-.94-1.07-.5-.59,0,0-.5.45-.44.37a.81.81,0,0,1,.2.11,4,4,0,0,1,.51.51c.55.6,1.1,1.22,1.62,1.83l1.65,1.9.11.11Zm-6.44,0h2.5l-.16-.08a1.12,1.12,0,0,1-.32-.29,1.18,1.18,0,0,1-.21-.6c0-.23,0-.48,0-.75s0-.65,0-1.07l0-1.41h0v-3c0-.18,0-.37,0-.58a2.82,2.82,0,0,1,.16-1,1.47,1.47,0,0,1,.37-.54l.12-.08H67.1a1.11,1.11,0,0,1,.6,1c0,.29,0,.62,0,1v4.23c0,.25,0,.49,0,.7s0,.39,0,.51V48c0,.17,0,.32,0,.46a3.27,3.27,0,0,1-.07.4.79.79,0,0,1-.14.32A1.21,1.21,0,0,1,67.08,49.49Zm2.16-4.18Zm3.37-5.2,0,0a.82.82,0,0,1,.35.73,1.18,1.18,0,0,1-.21.62l-.07.1c.45-.4.9-.77,1.33-1.09a3.85,3.85,0,0,1,.64-.38Z" style="fill:#535386"/><path d="M91.83,40.32a1.19,1.19,0,0,0-.53.89c0,.15,0,.31-.06.5s0,.39,0,.61,0,.42,0,.63c0,.38,0,.82,0,1.3s0,1-.05,1.62c0,.17,0,.39,0,.65a5.26,5.26,0,0,1-.13.83,3.44,3.44,0,0,1-.35.88,2.51,2.51,0,0,1-.67.8,3.22,3.22,0,0,1-1.11.57,6.78,6.78,0,0,1-3.31,0,3.33,3.33,0,0,1-1.1-.55,2.5,2.5,0,0,1-.67-.76,3.59,3.59,0,0,1-.36-.81,3.64,3.64,0,0,1-.13-.73c0-.22,0-.39,0-.5s0-.58,0-1V41.63a3.24,3.24,0,0,0,0-.45,2,2,0,0,0-.06-.38.7.7,0,0,0-.12-.26,1.06,1.06,0,0,0-.47-.34,3.28,3.28,0,0,0-.63-.14v-.13h4v.13l-.41.08a1.71,1.71,0,0,0-.39.17.93.93,0,0,0-.3.32,1,1,0,0,0-.13.51c0,.24,0,.45,0,.63s0,.35,0,.53V45c0,.21,0,.41,0,.6v.62a4.18,4.18,0,0,0,.22,1.31,2.81,2.81,0,0,0,.57,1,2.51,2.51,0,0,0,.89.64,3.26,3.26,0,0,0,1.21.22,4.08,4.08,0,0,0,1.3-.18,2.57,2.57,0,0,0,.9-.48,2.45,2.45,0,0,0,.57-.72,3.6,3.6,0,0,0,.31-.87,5.91,5.91,0,0,0,.13-.94c0-.32,0-.63,0-.94V43c0-.18,0-.37,0-.56s0-.37,0-.54,0-.33,0-.48a2,2,0,0,0-.08-.36,1.31,1.31,0,0,0-.47-.62,2.33,2.33,0,0,0-1-.33v-.13h3.36v.13A1.88,1.88,0,0,0,91.83,40.32Z" style="fill:#535386"/><path d="M87.15,50a5.93,5.93,0,0,1-1.7-.21,3.56,3.56,0,0,1-1.17-.58,3,3,0,0,1-.72-.81,4.15,4.15,0,0,1-.36-.86,3.86,3.86,0,0,1-.15-.77c0-.23,0-.39,0-.51s0-.58,0-1,0-.85,0-1.35V41.63c0-.15,0-.3,0-.43s0-.25-.06-.36a.51.51,0,0,0-.08-.18,1,1,0,0,0-.39-.28,2.45,2.45,0,0,0-.59-.13l-.16,0v-.49h4.41v.48l-.16,0a2.92,2.92,0,0,0-.39.07,1,1,0,0,0-.34.15.87.87,0,0,0-.24.26,1,1,0,0,0-.11.42c0,.24,0,.44,0,.62v3.82c0,.2,0,.4,0,.62a4.14,4.14,0,0,0,.21,1.25,2.57,2.57,0,0,0,.53.93,2.11,2.11,0,0,0,.82.59,2.9,2.9,0,0,0,1.14.21A4.13,4.13,0,0,0,88.86,49a2.29,2.29,0,0,0,.83-.46,2.2,2.2,0,0,0,.52-.66,3.64,3.64,0,0,0,.3-.82,6.65,6.65,0,0,0,.13-.91q0-.48,0-.93V43c0-.18,0-.37,0-.55s0-.37,0-.54,0-.32,0-.47a1.17,1.17,0,0,0-.47-.84,2,2,0,0,0-.9-.3l-.16,0v-.48h3.74v.48l-.17,0a1.75,1.75,0,0,0-.71.22h0a1.06,1.06,0,0,0-.39.5,2,2,0,0,0-.06.27c0,.14,0,.31-.06.49s0,.39,0,.59,0,.42,0,.63c0,.39,0,.82,0,1.3l-.09,2.28a4.08,4.08,0,0,1-.13.87,4.18,4.18,0,0,1-.36.92,2.9,2.9,0,0,1-.72.86,3.48,3.48,0,0,1-1.17.6A5.75,5.75,0,0,1,87.15,50Zm-4.34-9.89a1.19,1.19,0,0,1,.36.31.64.64,0,0,1,.16.34,3.27,3.27,0,0,1,.07.4c0,.15,0,.3,0,.47v2.29c0,.5,0,.95,0,1.36v1c0,.11,0,.27,0,.49a3.13,3.13,0,0,0,.12.69,3.94,3.94,0,0,0,.34.77,2.53,2.53,0,0,0,.62.71,3.21,3.21,0,0,0,1,.51,5.5,5.5,0,0,0,1.59.2,6.12,6.12,0,0,0,1.28-.12,5.17,5.17,0,0,1-.82.06,3.21,3.21,0,0,1-1.28-.24,2.57,2.57,0,0,1-1-.69,3.07,3.07,0,0,1-.61-1.06,4.23,4.23,0,0,1-.22-1.37c0-.22,0-.42,0-.61s0-.4,0-.61V42.3c0-.18,0-.35,0-.54s0-.39,0-.62a1.28,1.28,0,0,1,.16-.61,1.31,1.31,0,0,1,.36-.38l.07,0Zm7.32,0,.22.13a1.44,1.44,0,0,1,.53.71,1.22,1.22,0,0,1,.1.4c0,.15,0,.31,0,.49A1,1,0,0,0,91,42a3,3,0,0,1,0-.31c0-.2,0-.37.06-.52a1.88,1.88,0,0,1,.09-.35,1.43,1.43,0,0,1,.52-.67h0l.09,0Z" style="fill:#535386"/><path d="M107.37,49.68h-8.7v-.14a3.14,3.14,0,0,0,.67-.17,1.34,1.34,0,0,0,.52-.34.67.67,0,0,0,.12-.24,1.64,1.64,0,0,0,.07-.36c0-.13,0-.28,0-.43a3.17,3.17,0,0,0,0-.44c0-.12,0-.29,0-.51s0-.45,0-.71,0-.52,0-.79V41.66c0-.16,0-.31,0-.45a3.38,3.38,0,0,0-.06-.38.65.65,0,0,0-.12-.25,1.28,1.28,0,0,0-.51-.36,3,3,0,0,0-.67-.16v-.13h4.32v.13l-.42.08a1.83,1.83,0,0,0-.46.18,1,1,0,0,0-.37.34,1,1,0,0,0-.17.59c0,.32,0,.61,0,.87s0,.52,0,.77v4c0,.25,0,.52,0,.83s0,.56,0,.83a1.33,1.33,0,0,0,.14.58.6.6,0,0,0,.22.13,1.8,1.8,0,0,0,.39.12l.51.08a4.89,4.89,0,0,0,.54,0h.34l.52,0,.59-.06a3.38,3.38,0,0,0,.52-.11,3.08,3.08,0,0,0,.91-.39,3,3,0,0,0,.61-.56,3.59,3.59,0,0,0,.43-.69c.12-.25.24-.51.34-.78l.14,0Z" style="fill:#535386"/><path d="M107.52,49.86h-9v-.48l.15,0a3.79,3.79,0,0,0,.64-.17,1,1,0,0,0,.44-.29.43.43,0,0,0,.08-.17,2.21,2.21,0,0,0,.07-.32c0-.14,0-.28,0-.42s0-.29,0-.43,0-.3,0-.51v-.71c0-.26,0-.52,0-.79V41.66a3.1,3.1,0,0,0,0-.44,2.75,2.75,0,0,0,0-.34.38.38,0,0,0-.09-.18,1,1,0,0,0-.43-.3,2.25,2.25,0,0,0-.62-.15l-.17,0v-.49h4.69v.48l-.15,0a2.66,2.66,0,0,0-.41.08,1.56,1.56,0,0,0-.41.15,1.06,1.06,0,0,0-.31.29,1,1,0,0,0-.14.49c0,.31,0,.6,0,.86v.78c0,.25,0,.51,0,.78v2.46c0,.24,0,.48,0,.72s0,.53,0,.84,0,.56,0,.82A1,1,0,0,0,102,49a.42.42,0,0,0,.13.07,2.22,2.22,0,0,0,.36.11l.49.07a3,3,0,0,0,.52,0h.34l.51,0a5.51,5.51,0,0,0,.57-.06,2.94,2.94,0,0,0,.5-.1,2.79,2.79,0,0,0,.85-.37,2.63,2.63,0,0,0,.58-.52,3.39,3.39,0,0,0,.41-.65c.11-.25.22-.5.33-.77l.06-.16.46.14Zm-2.17-.37h1.86l.3-1.68a3.65,3.65,0,0,1-.4.62,3.14,3.14,0,0,1-.66.6,2.93,2.93,0,0,1-1,.42Zm-5.82,0h2.64l-.21-.07a.76.76,0,0,1-.29-.19,1.37,1.37,0,0,1-.18-.69c0-.27,0-.54,0-.83s0-.59,0-.84v-4l0-.77c0-.27,0-.56,0-.87a1.31,1.31,0,0,1,.2-.69,1.29,1.29,0,0,1,.44-.4l.08,0H99.65a1.39,1.39,0,0,1,.44.35.73.73,0,0,1,.16.33,2.25,2.25,0,0,1,.06.4,3.38,3.38,0,0,1,0,.47v3.89c0,.27,0,.53,0,.79v.71c0,.22,0,.39,0,.51s0,.31,0,.46,0,.3-.05.44a3.14,3.14,0,0,1-.08.38.9.9,0,0,1-.15.31A1.43,1.43,0,0,1,99.53,49.49Z" style="fill:#535386"/><path d="M122.42,49.68h-8.7v-.14a3.14,3.14,0,0,0,.67-.17,1.34,1.34,0,0,0,.52-.34.67.67,0,0,0,.12-.24,2.56,2.56,0,0,0,.07-.36c0-.13,0-.28.05-.43s0-.29,0-.44,0-.29,0-.51,0-.45,0-.71,0-.52,0-.79V41.66c0-.16,0-.31,0-.45a3.25,3.25,0,0,0-.07-.38.45.45,0,0,0-.12-.25,1.18,1.18,0,0,0-.5-.36,3.11,3.11,0,0,0-.67-.16v-.13h4.32v.13l-.42.08a1.7,1.7,0,0,0-.46.18,1.11,1.11,0,0,0-.38.34,1.14,1.14,0,0,0-.17.59c0,.32,0,.61,0,.87s0,.52,0,.77,0,.52,0,.79v2.46c0,.24,0,.48,0,.73s0,.52,0,.83,0,.56,0,.83a1.2,1.2,0,0,0,.14.58.6.6,0,0,0,.22.13,1.8,1.8,0,0,0,.39.12l.5.08a4.89,4.89,0,0,0,.54,0h.35l.52,0a5.7,5.7,0,0,0,.58-.06,3.28,3.28,0,0,0,.53-.11,3.13,3.13,0,0,0,.9-.39,2.78,2.78,0,0,0,.62-.56,3.59,3.59,0,0,0,.43-.69c.12-.25.23-.51.34-.78l.14,0Z" style="fill:#535386"/><path d="M122.57,49.86h-9v-.48l.16,0a3.79,3.79,0,0,0,.64-.17,1,1,0,0,0,.44-.29.43.43,0,0,0,.08-.17,2.21,2.21,0,0,0,.07-.32c0-.14,0-.28,0-.42a3.17,3.17,0,0,0,0-.43c0-.12,0-.3,0-.51v-.71c0-.26,0-.52,0-.79V41.66c0-.16,0-.3,0-.44a1.59,1.59,0,0,0-.06-.34.38.38,0,0,0-.08-.18,1,1,0,0,0-.43-.3,2.23,2.23,0,0,0-.63-.15l-.16,0v-.49h4.69v.48l-.16,0a2.56,2.56,0,0,0-.4.08,1.44,1.44,0,0,0-.41.15,1,1,0,0,0-.31.29.86.86,0,0,0-.14.49c0,.31,0,.6,0,.86v.78c0,.25,0,.51,0,.78v2.46c0,.24,0,.48,0,.72v.84c0,.28,0,.56,0,.82A.85.85,0,0,0,117,49s0,0,.13.07a2.22,2.22,0,0,0,.36.11l.49.07a2.92,2.92,0,0,0,.51,0h.35l.51,0,.57-.06a2.94,2.94,0,0,0,.5-.1,2.79,2.79,0,0,0,.85-.37,2.58,2.58,0,0,0,.57-.52,3,3,0,0,0,.41-.65c.12-.25.23-.5.34-.77l.06-.16.46.14Zm-2.18-.37h1.87l.3-1.68a3.17,3.17,0,0,1-.41.62,2.87,2.87,0,0,1-.65.6,3,3,0,0,1-1,.42Zm-5.81,0h2.64l-.21-.07a.69.69,0,0,1-.29-.19,1.48,1.48,0,0,1-.19-.69c0-.27,0-.54,0-.83s0-.59,0-.84v-4l0-.77c0-.27,0-.56,0-.87a1.22,1.22,0,0,1,.2-.69,1.26,1.26,0,0,1,.43-.4l.08,0H114.7a1.51,1.51,0,0,1,.44.35.85.85,0,0,1,.16.33,2.25,2.25,0,0,1,.06.4,3.47,3.47,0,0,1,0,.47v4.68l0,.71v.51c0,.15,0,.31,0,.46s0,.3,0,.44a3.14,3.14,0,0,1-.08.38.75.75,0,0,1-.16.31A1.39,1.39,0,0,1,114.58,49.49Z" style="fill:#535386"/><path d="M134.32,49.68v-.14l.2,0a1.46,1.46,0,0,0,.32-.1,1,1,0,0,0,.3-.19.39.39,0,0,0,.13-.31,1.82,1.82,0,0,0-.08-.4c-.05-.19-.12-.41-.21-.68s-.19-.56-.31-.88-.24-.67-.38-1h-3.6c-.14.34-.27.67-.39,1s-.26.63-.38.94a3.48,3.48,0,0,0-.29,1,.4.4,0,0,0,.11.29.82.82,0,0,0,.28.19,1.34,1.34,0,0,0,.37.11l.37.06v.14h-2.89v-.15a1.56,1.56,0,0,0,.61-.19,2.31,2.31,0,0,0,.29-.2c.06-.07.16-.22.31-.45s.32-.58.53-1,.4-.91.63-1.45l.73-1.68c.25-.57.49-1.15.74-1.73s.47-1.13.69-1.63l-.14-.3a2.13,2.13,0,0,0,.44-.26,2.67,2.67,0,0,0,.35-.31,3.09,3.09,0,0,0,.25-.31,2.06,2.06,0,0,0,.15-.24h.11l.8,2.13.73,1.94c.23.63.45,1.23.67,1.81s.43,1.16.65,1.73c.1.28.19.51.27.7s.19.39.29.63l.13.18a1.07,1.07,0,0,0,.25.28,1.32,1.32,0,0,0,.38.25,1.35,1.35,0,0,0,.55.13v.16Zm-1.77-8.21c-.06.12-.14.3-.24.56l-.39.92-.51,1.22c-.18.46-.38.95-.6,1.48h3.37c-.15-.4-.3-.81-.46-1.21l-.46-1.18c-.15-.37-.29-.71-.41-1Z" style="fill:#535386"/><path d="M138.46,49.86h-4.33v-.51h.19a.64.64,0,0,0,.16,0,1.57,1.57,0,0,0,.29-.08.78.78,0,0,0,.24-.16.21.21,0,0,0,.07-.17,1.53,1.53,0,0,0-.07-.35c0-.18-.11-.41-.2-.67L134.5,47c-.11-.29-.22-.59-.34-.89h-3.34l-.35.86c-.13.31-.25.63-.38.94a3.28,3.28,0,0,0-.27,1,.21.21,0,0,0,.06.16.61.61,0,0,0,.22.15,1,1,0,0,0,.32.1l.37.06.16,0v.48h-3.26v-.5l.16,0a1.32,1.32,0,0,0,.53-.16,1.59,1.59,0,0,0,.24-.16,3.44,3.44,0,0,0,.3-.43,11.38,11.38,0,0,0,.52-1c.19-.42.4-.91.63-1.45l.73-1.67c.24-.57.49-1.15.73-1.73l.66-1.56-.18-.39.18-.08a2.65,2.65,0,0,0,.4-.24,3,3,0,0,0,.32-.28,2.68,2.68,0,0,0,.23-.3,1.45,1.45,0,0,0,.15-.23l.06-.09h.34l.05.12c.28.75.54,1.46.8,2.13l.72,2,.67,1.81c.22.58.43,1.15.65,1.72.1.29.19.51.27.69l.29.63.11.16a1.6,1.6,0,0,0,.22.24,1.17,1.17,0,0,0,.34.22,1.3,1.3,0,0,0,.47.11h.18Zm-3.35-.37h2.41a1.34,1.34,0,0,1-.3-.21,2,2,0,0,1-.28-.31,1.76,1.76,0,0,1-.13-.21l-.3-.64c-.08-.18-.18-.42-.28-.71-.22-.57-.43-1.14-.65-1.72l-.67-1.81-.72-2c-.23-.59-.47-1.22-.71-1.88l0,0c-.07.1-.16.21-.26.33a3.11,3.11,0,0,1-.38.33,2.23,2.23,0,0,1-.3.2l0,.08,0,0,.16.4c.08.2.18.45.3.77s.26.65.41,1,.3.76.46,1.17.32.81.47,1.22l.11.28c.13.36.26.7.38,1s.22.63.31.89.16.5.21.69a1.82,1.82,0,0,1,.09.45.64.64,0,0,1-.19.45Zm-6.52,0h1.25a.84.84,0,0,1-.23-.18.57.57,0,0,1-.16-.42,3.38,3.38,0,0,1,.29-1.08c-.2.42-.36.75-.5,1a3.08,3.08,0,0,1-.34.48A1.58,1.58,0,0,1,128.59,49.49Zm2.5-4h2.82c-.12-.32-.24-.65-.37-1s-.31-.79-.46-1.17-.28-.72-.4-1l-.14-.34-.06.14-.38.92c-.16.36-.33.77-.51,1.22Z" style="fill:#535386"/><path d="M151.32,49.68l-.18-.19-.12-.14a2,2,0,0,1-.17-.23c-.07-.11-.17-.26-.32-.47s-.32-.48-.45-.69l-.4-.6c-.14-.2-.28-.4-.44-.6l-.56-.69a6.47,6.47,0,0,0-.59-.58,1.53,1.53,0,0,0-.67-.34,2.67,2.67,0,0,0-.4,0h-.31v1.53c0,.43,0,.8,0,1.09s0,.54,0,.75a1,1,0,0,0,.15.51,1.11,1.11,0,0,0,.42.36,2,2,0,0,0,.87.21v.14h-4.33v-.14a3.63,3.63,0,0,0,.65-.16,1,1,0,0,0,.48-.33.54.54,0,0,0,.11-.24,1.93,1.93,0,0,0,.06-.36c0-.14,0-.28,0-.44s0-.3,0-.45,0-.29,0-.51,0-.45,0-.71,0-.52,0-.79V42.12c0-.16,0-.33,0-.49a3.64,3.64,0,0,0,0-.48,2.52,2.52,0,0,0-.06-.41.78.78,0,0,0-.13-.26,1.09,1.09,0,0,0-.46-.29,4.87,4.87,0,0,0-.61-.13v-.13h3.71c.6,0,1.14,0,1.61.06a3.1,3.1,0,0,1,1.29.36,2.71,2.71,0,0,1,1,.85,2.36,2.36,0,0,1,.36,1.35,2.19,2.19,0,0,1-.18.9,2.27,2.27,0,0,1-.49.7,2.89,2.89,0,0,1-.71.52,5,5,0,0,1-.85.37v0a2,2,0,0,1,.45.35,5.92,5.92,0,0,1,.42.52l.76,1.11c.28.39.52.75.74,1.05a4.06,4.06,0,0,0,1,1,2.57,2.57,0,0,0,1.11.42v.14ZM150,41.24a2.42,2.42,0,0,0-1-.84,3.26,3.26,0,0,0-.69-.22,4.47,4.47,0,0,0-.75-.06h-.46l-.27,0,0,.14a1,1,0,0,1,0,.15c0,.07,0,.16,0,.27s0,.27,0,.48,0,.67,0,1.07,0,.78,0,1.15v1.49c.37,0,.72,0,1,0a4.15,4.15,0,0,0,.93-.19,2.56,2.56,0,0,0,.74-.37,2.09,2.09,0,0,0,.51-.52,2,2,0,0,0,.29-.63,2.77,2.77,0,0,0,.1-.71A2.21,2.21,0,0,0,150,41.24Z" style="fill:#535386"/><path d="M154.28,49.86h-3l-.06,0-.18-.19a1,1,0,0,1-.12-.15l-.19-.25-.31-.47-.46-.68q-.19-.32-.39-.6c-.14-.2-.28-.4-.44-.6s-.34-.42-.56-.67a6,6,0,0,0-.56-.57,1.41,1.41,0,0,0-.59-.29,2.19,2.19,0,0,0-.48-.06v1.34c0,.43,0,.79,0,1.09s0,.53,0,.74a.87.87,0,0,0,.12.42.9.9,0,0,0,.36.3,1.71,1.71,0,0,0,.78.19h.18v.5h-4.71v-.48l.16,0a3.89,3.89,0,0,0,.61-.16.94.94,0,0,0,.41-.26.84.84,0,0,0,.07-.17c0-.1,0-.22.06-.34l0-.43c0-.15,0-.29,0-.44s0-.3,0-.51v-.71c0-.26,0-.52,0-.79V42.12c0-.16,0-.32,0-.49s0-.32,0-.46a3.25,3.25,0,0,0-.07-.38.36.36,0,0,0-.08-.18.79.79,0,0,0-.37-.24,3.58,3.58,0,0,0-.59-.12l-.16,0v-.48h3.9c.6,0,1.15,0,1.62.06a3.36,3.36,0,0,1,1.36.39,2.8,2.8,0,0,1,1,.9,2.51,2.51,0,0,1,.4,1.46,2.34,2.34,0,0,1-.2,1,2.7,2.7,0,0,1-.52.76,3.25,3.25,0,0,1-.76.56,4.94,4.94,0,0,1-.57.26l.21.2a4.9,4.9,0,0,1,.44.54l.76,1.11.74,1.06a4.22,4.22,0,0,0,.93,1,2.46,2.46,0,0,0,1,.39l.16,0Zm-2.88-.37h1.86a2.32,2.32,0,0,1-.38-.21,4.29,4.29,0,0,1-1-1.08c-.22-.31-.47-.66-.74-1.06s-.53-.77-.77-1.11a5,5,0,0,0-.4-.49,1.65,1.65,0,0,0-.4-.32l-.1,0v-.29l.13,0a5.06,5.06,0,0,0,.82-.35,2.83,2.83,0,0,0,.67-.49,2.23,2.23,0,0,0,.45-.65,2,2,0,0,0,.17-.82,2.22,2.22,0,0,0-.34-1.25,2.32,2.32,0,0,0-.89-.78,3,3,0,0,0-1.21-.35l-.44,0,.26.1a2.5,2.5,0,0,1,1.06.91h0a2.32,2.32,0,0,1,.37,1.3,2.73,2.73,0,0,1-.1.76,2.23,2.23,0,0,1-.32.68,2.27,2.27,0,0,1-.55.57,2.39,2.39,0,0,1-.8.39,3.73,3.73,0,0,1-1,.21h0a1.75,1.75,0,0,1,.48.3,6.92,6.92,0,0,1,.61.6l.57.69c.16.21.31.41.44.62l.41.6c.13.21.28.43.45.68L151,49a2,2,0,0,0,.15.22l.12.14Zm-6.67,0h2.49a1.36,1.36,0,0,1-.48-.42,1.21,1.21,0,0,1-.17-.6q0-.31,0-.75c0-.3,0-.67,0-1.1V42.27c0-.4,0-.76,0-1.08l0-.48c0-.12,0-.21,0-.27a.9.9,0,0,1,0-.18l0-.14v0h-1.8a1.13,1.13,0,0,1,.3.24.72.72,0,0,1,.18.35,4.3,4.3,0,0,1,.07.43l0,.49v4.72l0,.71v.51c0,.15,0,.31,0,.46s0,.31,0,.44a3.65,3.65,0,0,1-.07.4.74.74,0,0,1-.14.31A1.3,1.3,0,0,1,144.73,49.49ZM147,40.33h0a.44.44,0,0,0,0,.13c0,.06,0,.15,0,.26l0,.48c0,.31,0,.66,0,1.06s0,.78,0,1.15v1.3c.29,0,.57,0,.83,0a4.26,4.26,0,0,0,.89-.19,2.47,2.47,0,0,0,.69-.34,1.74,1.74,0,0,0,.46-.48,2,2,0,0,0,.27-.57,2.39,2.39,0,0,0,.09-.66,2,2,0,0,0-.31-1.1,2.17,2.17,0,0,0-.91-.77,2.8,2.8,0,0,0-.64-.2,3.38,3.38,0,0,0-.72-.07h-.44Z" style="fill:#535386"/><path d="M159.7,49.68v-.14a2.43,2.43,0,0,0,.63-.17,1.39,1.39,0,0,0,.5-.36.71.71,0,0,0,.1-.23,2.66,2.66,0,0,0,0-.35c0-.13,0-.28,0-.43s0-.29,0-.44v-.51c0-.22,0-.45,0-.71V41.63a3.24,3.24,0,0,0,0-.45,2,2,0,0,0-.06-.38.7.7,0,0,0-.12-.26,1.06,1.06,0,0,0-.47-.34,3.28,3.28,0,0,0-.63-.14v-.13h4v.13a4.15,4.15,0,0,0-.61.15.91.91,0,0,0-.5.43,1.43,1.43,0,0,0-.13.59c0,.23,0,.45,0,.66v.67c0,.22,0,.44,0,.67v4.54c0,.26,0,.51,0,.76a1,1,0,0,0,.12.51,1,1,0,0,0,.52.35,2.92,2.92,0,0,0,.64.15v.14Z" style="fill:#535386"/><path d="M164,49.86h-4.48v-.48l.16,0a2.7,2.7,0,0,0,.59-.17,1.19,1.19,0,0,0,.43-.3.47.47,0,0,0,.06-.15c0-.09,0-.2.05-.33s0-.27,0-.41,0-.29,0-.44,0-.3,0-.51v-.71c0-.26,0-.52,0-.79V41.63c0-.15,0-.3,0-.43s0-.25-.06-.36a.51.51,0,0,0-.08-.18,1,1,0,0,0-.39-.28,2.45,2.45,0,0,0-.59-.13l-.16,0v-.49H164v.48l-.16,0a2.86,2.86,0,0,0-.58.14.65.65,0,0,0-.39.34,1,1,0,0,0-.11.5c0,.24,0,.46,0,.67s0,.44,0,.66v5.21c0,.26,0,.51,0,.75s.06.38.09.41a.81.81,0,0,0,.42.29,3.29,3.29,0,0,0,.59.14H164Zm-3.48-.37h2.41a1.11,1.11,0,0,1-.42-.34,1.17,1.17,0,0,1-.15-.62c0-.24,0-.5,0-.76V43.23c0-.23,0-.45,0-.67s0-.45,0-.67,0-.43,0-.67a1.32,1.32,0,0,1,.15-.66,1,1,0,0,1,.42-.45h-2.32a1.19,1.19,0,0,1,.36.31.64.64,0,0,1,.16.34,3.65,3.65,0,0,1,.07.4c0,.15,0,.3,0,.47v3.92c0,.27,0,.53,0,.79v.71c0,.22,0,.39,0,.51V48l0,.44c0,.14,0,.27-.06.37a.74.74,0,0,1-.14.31A1.6,1.6,0,0,1,160.51,49.49Z" style="fill:#535386"/><path d="M91,34.5H83.65q-2.45-3.83-4.41-6.62C77.93,26,76.5,24.11,75,22.14H72.18v8.65A3.07,3.07,0,0,0,72.39,32a1.48,1.48,0,0,0,.9.78A6.06,6.06,0,0,0,74.5,33c.58.07,1.06.12,1.46.13V34.5H64.43V33.13c.31,0,.75-.07,1.34-.13A5,5,0,0,0,67,32.75a1.67,1.67,0,0,0,.83-.73,2.49,2.49,0,0,0,.26-1.23V11.07a3.34,3.34,0,0,0-.19-1.19,1.41,1.41,0,0,0-.9-.79,9.67,9.67,0,0,0-1.25-.32c-.51-.09-.95-.15-1.31-.18V7.23H77a14.72,14.72,0,0,1,3.25.35A8.7,8.7,0,0,1,83,8.73a5.81,5.81,0,0,1,1.91,2,6,6,0,0,1,.71,3,7.55,7.55,0,0,1-.48,2.79,5.79,5.79,0,0,1-1.42,2.09A8.4,8.4,0,0,1,81.65,20a15.28,15.28,0,0,1-2.67,1q2,2.67,3.35,4.5T85.61,30a8.93,8.93,0,0,0,1.53,1.7,8,8,0,0,0,1.35.89,4.5,4.5,0,0,0,1.25.39,8.84,8.84,0,0,0,1.25.15ZM80.88,14.17a5.35,5.35,0,0,0-1.42-3.92,5.41,5.41,0,0,0-4-1.45H72.18V20.49h2.51a6,6,0,0,0,6.19-6.32" style="fill:#535386"/><path d="M114,14.05h-1.44a9.92,9.92,0,0,0-1.68-3.25,4.15,4.15,0,0,0-2.45-1.9q-.6-.08-1.41-.12t-1.86,0h-4.57v11h3.14a6.41,6.41,0,0,0,2.21-.3,3.4,3.4,0,0,0,1.35-.91,3.81,3.81,0,0,0,.7-1.32,7.72,7.72,0,0,0,.42-1.91h1.44V26H108.4a8.34,8.34,0,0,0-.4-1.92,4.75,4.75,0,0,0-.72-1.56,3,3,0,0,0-1.45-1,7.65,7.65,0,0,0-2.11-.26h-3.14v9.39a2.44,2.44,0,0,0,.25,1.13,1.78,1.78,0,0,0,.88.8,6.84,6.84,0,0,0,1.25.33,9.47,9.47,0,0,0,1.46.21V34.5H92.6V33.13c.39,0,.9-.07,1.54-.12a4.55,4.55,0,0,0,1.25-.23,1.62,1.62,0,0,0,.83-.73,2.46,2.46,0,0,0,.26-1.19V11.19a2.85,2.85,0,0,0-.21-1.13,1.63,1.63,0,0,0-.88-.8A7.16,7.16,0,0,0,94,8.82a11,11,0,0,0-1.4-.23V7.23H114Z" style="fill:#535386"/><path d="M137.49,34.5H126.15V33.13a11.69,11.69,0,0,0,2.49-.38c.66-.2,1-.43,1-.71a2.45,2.45,0,0,0,0-.43,1.89,1.89,0,0,0-.11-.44l-2.26-6.11h-9.57c-.36.9-.65,1.68-.88,2.34l-.6,1.85a11.81,11.81,0,0,0-.35,1.34,4.44,4.44,0,0,0-.1.85c0,.51.41.91,1.21,1.19a9.82,9.82,0,0,0,2.73.5V34.5H109.39V33.13a7.52,7.52,0,0,0,1.25-.22,4.15,4.15,0,0,0,1.23-.49,4.9,4.9,0,0,0,1.19-1.09,6.72,6.72,0,0,0,.83-1.56q2.06-5.13,4.53-11.53t4.42-11.4h1.54l9.09,23.52a4.53,4.53,0,0,0,.65,1.21,4.89,4.89,0,0,0,1,.91,4.25,4.25,0,0,0,1.16.45,5.76,5.76,0,0,0,1.19.2Zm-11-11.15-4.13-10.58-4.07,10.58Z" style="fill:#535386"/><path d="M168.23,8.59a8.53,8.53,0,0,0-1.65.31,6,6,0,0,0-1.6.59,2.73,2.73,0,0,0-.93,1.85,20.54,20.54,0,0,0-.24,3.46v20h-1.67L145.61,12.45V26.52a16.67,16.67,0,0,0,.3,3.63,3.38,3.38,0,0,0,.91,1.81,4.62,4.62,0,0,0,1.83.79,11.12,11.12,0,0,0,1.82.38V34.5H139.29V33.13a10.58,10.58,0,0,0,1.75-.37,4.62,4.62,0,0,0,1.53-.61,2.85,2.85,0,0,0,.93-1.64,20.13,20.13,0,0,0,.25-3.78V13.3a5.5,5.5,0,0,0-.31-1.77,3.28,3.28,0,0,0-.83-1.36,5.63,5.63,0,0,0-1.87-1.09,6.92,6.92,0,0,0-1.91-.49V7.23h7.79L161.94,28v-13a17,17,0,0,0-.3-3.66,2.87,2.87,0,0,0-.89-1.7A6.16,6.16,0,0,0,159,9a10.07,10.07,0,0,0-1.85-.39V7.23h11.09Z" style="fill:#535386"/><path d="M58,9.8a1.58,1.58,0,0,1,1-.75,9.1,9.1,0,0,1,1.45-.31,10.59,10.59,0,0,1,1.42-.15V7.23H49.52V8.59A10.84,10.84,0,0,1,51,8.83a11.39,11.39,0,0,1,1.45.43,1.73,1.73,0,0,1,1,.76,2.68,2.68,0,0,1,.21,1.13V30.9a2.09,2.09,0,0,1-.29,1.2,1.85,1.85,0,0,1-.92.68A5.52,5.52,0,0,1,51,33l-1.5.11V34.5H61.8V33.13a9.53,9.53,0,0,1-1.55-.2,8,8,0,0,1-1.32-.34,1.93,1.93,0,0,1-1-.78,2.27,2.27,0,0,1-.28-1.12V11A2.73,2.73,0,0,1,58,9.8Z" style="fill:#535386"/><polygon points="57.48 4.92 56.36 4.79 55.66 5.67 54.96 4.79 53.84 4.92 53.97 3.79 53.08 3.1 53.97 2.4 53.84 1.27 54.96 1.41 55.66 0.52 56.36 1.41 57.48 1.27 57.35 2.4 58.23 3.1 57.35 3.79 57.48 4.92" style="fill:#535386"/></g></g></svg>