<?xml version="1.0" standalone="no"?>
<!DOCTYPE svg PUBLIC "-//W3C//DTD SVG 20010904//EN"
 "http://www.w3.org/TR/2001/REC-SVG-20010904/DTD/svg10.dtd">
<svg version="1.0" xmlns="http://www.w3.org/2000/svg"
 width="1350.000000pt" height="1350.000000pt" viewBox="0 0 1350.000000 1350.000000"
 preserveAspectRatio="xMidYMid meet">
<metadata>
Created by potrace 1.10, written by Peter Selinger 2001-2011
</metadata>
<g transform="translate(0.000000,1350.000000) scale(0.100000,-0.100000)"
fill="#000000" stroke="none">
<path d="M0 6750 l0 -6750 6750 0 6750 0 0 6750 0 6750 -6750 0 -6750 0 0
-6750z m8335 4702 c380 -55 692 -171 995 -371 260 -171 563 -461 721 -691 67
-96 149 -233 203 -335 114 -216 240 -598 265 -805 33 -268 33 -388 2 -665 -14
-120 -61 -312 -105 -425 -42 -106 -92 -220 -117 -267 -16 -29 -42 -77 -58
-106 -109 -202 -405 -548 -596 -698 -97 -76 -95 -84 57 -206 169 -135 240
-204 385 -373 134 -156 240 -308 320 -460 28 -52 57 -108 66 -125 9 -16 30
-66 47 -110 17 -44 35 -89 39 -100 26 -64 73 -248 97 -385 25 -133 25 -611 1
-750 -21 -128 -53 -270 -72 -325 -8 -25 -15 -51 -15 -58 0 -20 -109 -285 -153
-372 -83 -164 -244 -413 -364 -560 -112 -139 -331 -362 -443 -452 -41 -33 -87
-72 -103 -87 -28 -26 -206 -145 -312 -208 -85 -50 -276 -141 -365 -173 -119
-43 -222 -75 -237 -75 -8 0 -35 -7 -61 -15 -26 -8 -114 -24 -197 -36 -145 -21
-195 -22 -1635 -29 -817 -4 -1615 -9 -1775 -9 -159 -1 -296 -2 -303 -2 -10 1
-12 93 -12 454 1 844 3 772 -23 802 -21 25 -29 27 -152 35 -72 5 -173 19 -225
30 -52 11 -115 25 -140 30 -51 10 -262 78 -330 106 -47 20 -227 109 -270 134
-167 97 -377 276 -513 440 -48 57 -207 285 -207 297 0 4 -6 14 -14 22 -23 27
-102 189 -148 306 -9 22 -25 63 -36 90 -11 28 -28 79 -37 115 -9 35 -21 72
-25 81 -30 55 -88 422 -95 599 -3 74 -8 154 -10 177 -8 76 -7 77 270 69 132
-4 281 -12 330 -17 50 -5 135 -13 190 -19 90 -8 304 -52 380 -79 17 -5 62 -20
100 -32 105 -32 305 -131 409 -201 94 -64 269 -210 321 -269 94 -107 148 -172
197 -239 92 -127 218 -349 252 -445 10 -27 22 -59 27 -70 56 -130 127 -430
149 -635 13 -120 30 -140 118 -140 138 1 464 21 542 34 47 8 112 20 144 25
102 18 250 78 347 142 220 144 377 369 439 625 63 261 41 550 -58 754 -109
224 -241 371 -475 526 -56 37 -114 75 -129 85 -55 37 -278 149 -407 204 -74
31 -142 61 -150 66 -20 10 -243 104 -416 174 -142 58 -415 174 -483 205 -23
11 -47 20 -53 20 -6 0 -25 6 -42 14 -94 42 -145 64 -167 71 -14 4 -41 16 -60
26 -19 11 -38 19 -42 19 -5 0 -38 14 -75 31 -85 39 -110 50 -209 92 -219 95
-583 280 -604 307 -3 4 -24 18 -47 32 -109 64 -346 266 -449 384 -145 166
-276 424 -313 614 -36 193 -39 450 -6 610 17 79 59 218 80 260 7 14 20 43 29
65 38 89 132 242 206 335 239 299 592 500 1005 571 114 20 167 23 425 23 162
1 335 -1 383 -3 73 -4 90 -2 105 12 16 16 17 70 22 658 4 554 7 641 20 649 9
6 185 10 420 11 223 1 529 5 680 9 151 4 754 6 1340 5 1016 -2 1071 -3 1205
-23z"/>
<path d="M5585 11078 c-405 -8 -492 -12 -501 -23 -14 -19 -24 -254 -24 -586 0
-295 0 -293 63 -303 18 -3 79 -10 136 -16 181 -18 614 -115 856 -192 80 -25
81 -25 225 -97 262 -130 402 -256 565 -511 245 -382 344 -799 345 -1450 0
-151 -4 -280 -8 -286 -4 -6 -16 -14 -27 -18 -20 -7 -207 6 -360 25 -44 6 -136
17 -205 24 -69 8 -159 21 -200 31 -41 9 -95 20 -120 25 -136 26 -417 124 -470
164 -8 6 -37 21 -65 34 -65 31 -254 157 -325 216 -148 125 -312 298 -385 407
-16 24 -41 59 -56 78 -15 19 -36 51 -47 70 -91 160 -116 207 -150 295 -86 220
-125 383 -152 640 -6 50 -10 97 -10 106 0 8 -9 25 -20 37 -21 22 -24 22 -361
22 -260 0 -364 -4 -442 -16 -171 -26 -326 -70 -445 -125 -35 -16 -66 -29 -69
-29 -17 0 -171 -118 -244 -188 -141 -133 -232 -293 -286 -498 -27 -105 -28
-118 -28 -344 l0 -235 32 -100 c35 -109 61 -160 140 -277 165 -242 386 -397
813 -572 36 -15 79 -33 95 -41 56 -27 239 -106 340 -147 55 -22 105 -44 111
-49 6 -5 28 -15 50 -23 21 -7 59 -22 84 -33 490 -216 550 -242 600 -263 187
-79 609 -260 744 -318 233 -101 482 -246 603 -351 22 -20 62 -54 89 -76 107
-89 301 -342 357 -465 85 -189 118 -291 156 -478 14 -68 14 -388 1 -444 -6
-24 -19 -79 -29 -123 -35 -145 -120 -346 -199 -469 -73 -113 -218 -268 -322
-343 -112 -81 -299 -170 -450 -213 -41 -12 -88 -26 -105 -30 -81 -24 -387 -55
-689 -69 -132 -6 -150 -9 -165 -27 -14 -18 -16 -68 -19 -401 -4 -384 -2 -412
32 -436 15 -10 3002 1 3141 13 121 9 208 23 295 46 30 8 73 19 95 25 290 77
655 287 920 528 201 185 392 428 512 652 23 42 46 85 52 95 47 84 141 344 175
484 62 253 71 545 26 875 -37 269 -184 600 -388 870 -141 187 -359 404 -549
546 -63 47 -286 196 -346 231 -26 15 -47 32 -47 37 0 5 24 23 53 39 51 29 297
207 307 223 3 4 23 22 45 39 108 86 290 276 386 405 210 279 328 543 395 880
23 114 27 539 6 650 -40 213 -85 380 -127 472 -8 17 -15 35 -15 40 0 6 -18 47
-40 92 -22 45 -40 84 -40 88 0 9 -67 119 -136 223 -210 317 -543 603 -889 765
-110 52 -317 120 -410 136 -27 4 -70 12 -95 18 -124 26 -335 31 -1300 29 -547
-1 -1215 -6 -1485 -10z"/>
<path d="M5086 9772 c-3 -6 -7 -62 -8 -124 -1 -152 30 -306 105 -508 60 -162
94 -223 239 -425 84 -117 282 -307 411 -394 103 -69 253 -150 307 -166 14 -4
39 -13 55 -20 26 -11 76 -27 210 -65 50 -15 255 -49 331 -56 134 -12 148 1
134 132 -34 298 -65 480 -107 619 -35 118 -48 151 -92 248 -53 115 -191 302
-273 369 -50 41 -212 146 -242 158 -12 4 -47 20 -78 34 -31 14 -61 26 -67 26
-5 0 -45 11 -88 24 -43 13 -123 32 -178 42 -55 9 -111 23 -125 30 -79 39 -518
101 -534 76z"/>
<path d="M2808 5568 c-21 -17 -23 -31 -14 -98 25 -181 73 -380 121 -495 108
-263 207 -408 421 -617 163 -159 269 -235 460 -331 129 -64 390 -147 465 -147
14 0 39 -4 55 -10 16 -5 81 -17 144 -25 l115 -15 24 27 c22 25 23 32 16 107
-6 73 -24 170 -55 296 -37 150 -121 349 -201 475 -310 490 -647 722 -1194 821
-121 21 -336 29 -357 12z"/>
</g>
</svg>
