<?xml version="1.0" standalone="no"?>
<!DOCTYPE svg PUBLIC "-//W3C//DTD SVG 20010904//EN"
 "http://www.w3.org/TR/2001/REC-SVG-20010904/DTD/svg10.dtd">
<svg version="1.0" xmlns="http://www.w3.org/2000/svg"
 width="900.000000pt" height="900.000000pt" viewBox="0 0 900.000000 900.000000"
 preserveAspectRatio="xMidYMid meet">
<metadata>
Created by potrace 1.10, written by Peter Selinger 2001-2011
</metadata>
<g transform="translate(0.000000,900.000000) scale(0.100000,-0.100000)"
fill="#000000" stroke="none">
<path d="M0 4500 l0 -4500 4500 0 4500 0 0 4500 0 4500 -4500 0 -4500 0 0
-4500z m5362 3141 c234 -11 311 -24 503 -86 323 -104 656 -369 867 -689 44
-67 84 -131 89 -144 5 -12 26 -60 48 -105 21 -45 55 -136 75 -202 20 -66 41
-133 46 -150 12 -37 34 -258 34 -340 2 -146 -32 -331 -89 -495 -82 -235 -282
-518 -482 -681 -44 -36 -73 -68 -73 -79 0 -12 35 -47 93 -93 293 -237 497
-537 592 -878 27 -96 55 -305 55 -409 0 -87 -25 -290 -45 -370 -109 -431 -377
-822 -771 -1127 -96 -74 -277 -174 -406 -223 -29 -11 -62 -25 -73 -30 -28 -13
-134 -38 -235 -57 -72 -13 -268 -16 -1295 -23 -665 -4 -1214 -5 -1218 -3 -4 3
-5 174 -1 382 9 469 8 471 -105 471 -27 0 -71 4 -98 10 -277 56 -313 67 -478
150 -138 69 -230 136 -340 245 -104 104 -228 276 -278 385 -13 30 -34 75 -45
100 -30 64 -75 209 -101 325 -16 74 -31 206 -38 333 l-6 114 194 -5 c233 -5
393 -21 497 -48 42 -11 93 -24 112 -29 92 -23 269 -114 365 -186 110 -83 222
-201 311 -326 56 -78 164 -280 164 -305 0 -7 4 -21 9 -31 34 -65 101 -360 101
-447 0 -15 10 -31 26 -41 22 -15 43 -16 157 -10 414 21 569 77 735 271 78 90
126 196 148 325 58 351 -62 610 -382 823 -70 46 -283 158 -354 186 -19 7 -55
23 -80 34 -25 11 -54 23 -65 28 -29 12 -117 49 -140 59 -87 39 -116 50 -127
50 -8 0 -18 4 -24 9 -5 5 -58 29 -119 54 -60 24 -126 52 -145 60 -19 9 -105
46 -190 81 -270 112 -526 234 -609 290 -29 20 -55 36 -57 36 -3 0 -39 27 -82
59 -254 195 -390 405 -427 660 -19 131 -19 192 0 311 16 99 31 149 71 238 13
29 24 55 24 58 0 3 24 43 53 88 111 170 232 279 407 365 25 13 53 27 63 32 17
9 49 20 152 52 122 38 439 57 614 37 132 -15 121 -55 121 446 0 327 3 425 13
431 12 8 500 14 1532 21 270 2 587 -1 707 -7z"/>
<path d="M3710 7383 c-282 -3 -316 -5 -327 -20 -10 -12 -13 -88 -13 -294 0
-209 3 -279 13 -287 6 -6 50 -13 97 -17 114 -10 249 -38 490 -102 260 -69 425
-171 575 -353 20 -24 115 -177 115 -184 0 -3 15 -37 34 -78 38 -83 48 -110 70
-188 37 -126 63 -383 64 -612 1 -150 -1 -169 -17 -177 -19 -10 -165 -1 -366
23 -154 19 -313 52 -380 81 -16 7 -52 21 -80 31 -135 50 -330 181 -454 305
-69 69 -176 208 -233 304 -97 161 -157 358 -178 578 -4 48 -14 95 -21 103 -11
14 -48 15 -293 11 -238 -4 -293 -8 -356 -24 -177 -47 -301 -114 -407 -221
-148 -151 -209 -326 -201 -587 6 -171 31 -249 123 -380 105 -148 246 -254 455
-340 36 -15 93 -40 128 -56 34 -16 64 -29 67 -29 3 0 36 -14 73 -31 133 -60
200 -89 206 -89 5 0 46 -18 151 -65 17 -7 48 -21 70 -31 22 -9 67 -29 100 -44
33 -16 71 -31 85 -35 14 -4 30 -11 35 -15 6 -5 51 -25 100 -45 50 -20 108 -45
130 -55 22 -10 69 -30 105 -45 36 -14 83 -35 105 -45 22 -10 67 -30 100 -45
276 -123 490 -292 616 -485 63 -98 69 -110 105 -205 80 -213 87 -466 17 -665
-75 -216 -189 -369 -354 -481 -49 -32 -92 -59 -96 -59 -4 0 -19 -6 -33 -13
-122 -63 -326 -100 -611 -113 -109 -5 -155 -11 -165 -21 -11 -12 -14 -64 -14
-276 0 -144 4 -268 9 -275 11 -19 2163 -12 2231 7 25 7 70 19 100 28 185 51
381 146 500 242 25 20 56 44 70 53 40 25 210 197 261 263 102 133 183 273 250
430 88 206 118 491 81 766 -19 136 -86 318 -160 434 -6 11 -17 30 -22 43 -12
29 -121 173 -175 231 -77 84 -218 213 -275 251 -12 8 -45 32 -73 53 -29 21
-80 54 -114 75 -35 20 -63 41 -63 47 0 6 15 19 33 30 83 49 231 168 323 260
165 165 297 358 353 515 13 36 27 74 32 85 11 25 28 95 40 165 12 72 12 401 0
465 -26 135 -32 161 -40 180 -5 11 -19 49 -31 85 -33 96 -133 282 -198 369
-120 163 -332 343 -516 440 -69 37 -228 92 -336 117 -68 16 -150 17 -835 19
-418 0 -902 0 -1075 -2z"/>
<path d="M3392 6511 c-49 -31 21 -375 111 -541 119 -221 324 -418 540 -519
143 -66 460 -136 512 -113 36 17 35 53 -11 342 -46 285 -170 503 -353 624
-103 68 -193 103 -348 136 -48 10 -123 28 -166 39 -68 18 -214 41 -257 41 -8
0 -21 -4 -28 -9z"/>
<path d="M1866 3708 c-18 -14 -18 -18 -2 -109 33 -182 58 -263 125 -399 55
-114 178 -260 316 -377 59 -50 177 -127 219 -143 12 -4 42 -17 66 -28 83 -37
232 -74 370 -91 128 -17 137 -1 100 181 -19 95 -48 193 -75 253 -8 17 -23 51
-34 77 -40 91 -178 275 -269 360 -115 107 -211 164 -372 218 -154 52 -407 85
-444 58z"/>
</g>
</svg>
