<?xml version="1.0" standalone="no"?>
<!DOCTYPE svg PUBLIC "-//W3C//DTD SVG 20010904//EN"
 "http://www.w3.org/TR/2001/REC-SVG-20010904/DTD/svg10.dtd">
<svg version="1.0" xmlns="http://www.w3.org/2000/svg"
 width="450.000000pt" height="450.000000pt" viewBox="0 0 450.000000 450.000000"
 preserveAspectRatio="xMidYMid meet">
<metadata>
Created by potrace 1.10, written by Peter Selinger 2001-2011
</metadata>
<g transform="translate(0.000000,450.000000) scale(0.050000,-0.050000)"
fill="#000000" stroke="none">
<path d="M3299 7873 c-5 -6 -46 -14 -92 -18 -211 -21 -278 -138 -295 -509 -16
-369 8 -336 -269 -362 -527 -48 -905 -296 -1125 -737 l-88 -177 -7 -297 c-9
-388 33 -519 251 -790 248 -307 441 -421 1400 -825 644 -271 774 -332 911
-430 52 -38 102 -68 111 -68 136 0 111 -645 -29 -726 -15 -9 -22 -27 -14 -40
7 -13 6 -18 -2 -10 -9 8 -50 -3 -92 -24 -80 -41 -343 -91 -388 -73 -15 6 -48
76 -73 157 -260 839 -833 1263 -1698 1254 -192 -2 -340 -67 -340 -150 0 -6
-14 -24 -30 -41 -115 -115 81 -957 266 -1143 19 -19 44 -58 57 -86 27 -61 248
-304 262 -289 12 11 125 -80 128 -103 4 -29 77 -68 100 -54 15 9 18 5 9 -9
-26 -42 201 -133 583 -235 19 -5 25 -80 25 -289 0 -321 13 -365 142 -491 l80
-78 1044 -6 c1440 -8 1624 10 1995 197 218 109 513 341 487 382 -5 9 3 12 19
6 28 -12 113 85 113 129 0 12 13 22 28 22 99 0 445 629 512 930 82 373 20
1049 -97 1050 -24 1 -26 5 -8 17 28 17 -81 263 -117 263 -10 0 -18 10 -18 23
0 36 -122 218 -139 208 -8 -5 -27 15 -42 45 -16 30 -57 87 -93 128 l-64 74 54
58 c121 129 185 213 208 277 13 37 30 67 37 67 7 0 41 61 76 136 230 500 190
1121 -107 1652 -127 228 -521 653 -574 620 -13 -9 -17 -5 -8 9 13 21 -11 32
-53 25 -8 -1 -13 9 -10 22 7 35 -351 209 -535 260 -151 42 -2453 87 -2491 49z
m2201 -213 c1450 -176 2064 -1935 1005 -2879 l-115 -103 90 -73 c1077 -869
763 -2504 -585 -3044 -228 -91 -338 -99 -1630 -106 l-1205 -8 13 414 c15 479
29 445 -197 465 -728 65 -1296 768 -1296 1605 l0 69 105 0 c174 0 537 -40 665
-73 506 -130 937 -658 1002 -1227 17 -150 8 -147 299 -122 536 47 802 321 763
788 -33 386 -234 566 -992 886 -1094 463 -1160 493 -1332 616 -455 327 -615
791 -426 1240 194 459 596 685 1193 669 l247 -7 -3 445 -3 444 516 6 c1436 15
1730 14 1886 -5z"/>
<path d="M4147 7385 l-744 -5 -7 -285 c-3 -157 -5 -287 -4 -290 1 -3 68 -14
150 -24 916 -117 1278 -516 1307 -1440 l9 -281 -85 0 c-896 0 -1579 539 -1649
1300 l-14 150 -275 -4 c-664 -9 -960 -247 -964 -776 -2 -425 140 -572 854
-880 1237 -533 1321 -572 1468 -673 552 -382 656 -1111 224 -1568 -186 -197
-413 -280 -822 -302 l-235 -13 0 -278 0 -279 1115 8 c936 7 1132 13 1218 39
993 300 1472 1451 939 2253 -147 222 -573 603 -674 603 -44 0 -11 40 75 91
747 438 941 1414 417 2105 -303 401 -745 579 -1390 559 -93 -3 -505 -7 -913
-10z m1583 -290 c89 -30 221 -95 296 -144 74 -50 139 -90 145 -89 5 0 17 -3
25 -7 7 -5 1 -5 -16 -1 -16 4 12 -34 63 -84 278 -272 380 -922 203 -1295 -35
-75 -67 -142 -70 -148 -3 -7 -43 -54 -89 -104 -49 -53 -79 -103 -73 -122 7
-22 5 -24 -8 -6 -14 18 -71 -25 -212 -161 -206 -197 -220 -226 -163 -335 16
-32 23 -59 15 -59 -8 0 21 -37 65 -82 88 -91 250 -210 275 -202 10 3 11 -4 4
-16 -7 -11 -5 -20 4 -20 9 0 44 -27 79 -59 34 -32 68 -55 75 -50 6 5 8 3 3 -4
-17 -22 71 -128 94 -114 11 7 16 4 9 -6 -6 -11 6 -46 28 -78 50 -75 118 -226
118 -262 0 -15 7 -27 15 -27 8 0 10 -160 4 -355 l-10 -355 -73 -155 c-155
-327 -462 -608 -801 -732 l-145 -53 -1005 -6 -1005 -6 0 61 c0 58 4 61 83 61
116 0 337 40 337 61 0 10 13 13 28 7 66 -25 333 128 481 277 491 493 471 1289
-45 1779 -168 159 -440 333 -472 302 -6 -7 -12 -3 -12 8 0 19 -201 113 -250
117 -49 3 -129 35 -121 47 9 15 -518 247 -579 254 -22 3 -48 5 -58 6 -10 1
-13 8 -5 15 7 8 -117 70 -276 138 -317 137 -397 181 -469 257 -26 28 -56 46
-65 40 -10 -6 -16 -4 -13 6 2 9 -11 45 -30 80 -51 97 -48 420 6 526 83 163
290 257 603 275 l193 11 54 -178 c55 -182 162 -408 193 -408 9 0 17 -15 17
-33 0 -73 324 -439 366 -413 11 7 14 2 7 -10 -17 -26 65 -87 95 -70 12 7 15 5
7 -4 -19 -21 82 -90 131 -90 20 0 31 -8 25 -18 -25 -41 299 -150 569 -192 358
-56 426 -47 541 71 l99 102 0 329 c0 290 -15 442 -55 548 -6 17 -13 40 -16 53
-14 67 -34 106 -48 98 -9 -6 -16 12 -16 38 0 63 -114 263 -146 255 -15 -3 -19
7 -12 27 25 62 -337 390 -393 355 -11 -7 -14 -3 -8 8 17 27 -271 148 -359 153
-37 1 -67 8 -67 15 0 6 -52 23 -115 36 -189 41 -185 38 -185 112 l0 68 145 8
c80 4 523 6 985 5 l840 -3 160 -53z"/>
<path d="M3400 6453 c0 -527 482 -1027 1045 -1085 158 -16 150 -37 105 257
-71 476 -272 714 -680 807 -77 17 -194 44 -260 59 -190 44 -210 41 -210 -38z
m453 -242 c35 -1 60 -6 56 -13 -4 -7 26 -22 68 -35 176 -52 342 -276 343 -460
l0 -88 -65 13 c-90 18 -259 105 -332 172 -38 35 -65 47 -70 33 -6 -13 -11 -7
-11 13 -1 20 -21 56 -44 80 -44 46 -123 191 -148 272 -14 46 -12 47 63 31 42
-9 105 -17 140 -18z"/>
<path d="M1878 3712 c-6 -7 0 -65 13 -130 109 -527 427 -856 940 -972 252 -57
257 -55 241 70 -60 451 -372 843 -772 969 -151 47 -400 85 -422 63z m527 -319
c12 7 15 4 8 -8 -11 -18 49 -58 62 -41 2 3 18 -14 36 -39 17 -25 42 -45 55
-46 39 -1 216 -273 228 -352 11 -68 10 -71 -36 -57 -187 55 -340 157 -470 312
-35 42 -69 72 -76 67 -6 -5 -8 -4 -4 3 5 6 -9 51 -31 100 -53 119 -37 133 96
87 61 -21 121 -33 132 -26z"/>
</g>
</svg>
