<?xml version="1.0" standalone="no"?>
<!DOCTYPE svg PUBLIC "-//W3C//DTD SVG 20010904//EN"
 "http://www.w3.org/TR/2001/REC-SVG-20010904/DTD/svg10.dtd">
<svg version="1.0" xmlns="http://www.w3.org/2000/svg"
 width="300.000000pt" height="300.000000pt" viewBox="0 0 300.000000 300.000000"
 preserveAspectRatio="xMidYMid meet">
<metadata>
Created by potrace 1.10, written by Peter Selinger 2001-2011
</metadata>
<g transform="translate(0.000000,300.000000) scale(0.100000,-0.100000)"
fill="#000000" stroke="none">
<path d="M1181 2583 c-122 -3 -146 -6 -157 -21 -9 -11 -14 -52 -14 -122 0
-153 1 -150 -79 -150 -76 0 -213 -36 -251 -66 -67 -52 -130 -127 -149 -180
-25 -66 -28 -191 -6 -253 24 -68 120 -182 167 -197 10 -3 18 -10 18 -15 0 -6
4 -8 9 -5 5 4 11 2 13 -3 5 -14 198 -102 209 -96 5 4 9 2 9 -3 0 -7 81 -45
100 -47 3 0 22 -8 44 -19 21 -10 44 -19 50 -20 6 -1 54 -23 106 -49 102 -51
173 -117 189 -172 13 -50 3 -134 -21 -174 -45 -72 -83 -91 -215 -106 -51 -5
-53 -5 -59 22 -27 119 -58 191 -115 264 -40 53 -101 109 -117 109 -6 0 -17 6
-25 14 -29 30 -140 57 -248 62 -136 6 -143 1 -134 -95 3 -36 12 -90 21 -118 8
-29 14 -55 14 -58 -1 -6 49 -101 65 -124 6 -8 38 -43 73 -78 82 -82 184 -133
277 -137 38 -1 43 -20 44 -159 1 -81 5 -112 16 -123 12 -13 75 -14 427 -11
227 3 420 6 428 9 8 3 35 10 60 17 127 34 245 120 342 249 93 123 128 227 128
386 0 148 -50 266 -159 377 l-66 68 35 38 c60 66 80 96 118 173 37 75 37 75
37 205 0 112 -3 139 -24 195 -13 36 -30 72 -37 81 -8 8 -14 19 -14 23 0 29
-159 206 -185 206 -2 0 -26 14 -52 30 -102 65 -148 72 -453 75 -151 1 -340 0
-419 -2z m749 -48 c181 -58 324 -196 386 -374 68 -196 24 -390 -122 -540 -63
-64 -63 -65 -41 -79 40 -27 116 -113 151 -171 57 -96 71 -151 70 -281 -1 -104
-4 -122 -30 -185 -42 -100 -93 -172 -177 -252 -76 -72 -179 -133 -257 -151
-25 -6 -232 -14 -467 -18 l-423 -7 0 147 0 146 -32 0 c-145 1 -312 109 -387
249 -38 71 -71 195 -71 264 l0 50 108 -6 c166 -10 252 -44 339 -135 65 -67
119 -173 136 -266 l12 -70 70 3 c99 3 148 18 196 59 55 48 79 101 79 181 0
157 -65 209 -465 376 -298 125 -389 185 -442 293 -24 49 -28 69 -28 142 0 71
4 94 27 142 34 73 97 133 178 172 58 27 76 30 180 33 l115 3 0 142 0 143 140
6 c77 3 266 5 420 4 236 -2 289 -5 335 -20z"/>
<path d="M1130 2361 l0 -98 63 -6 c86 -9 215 -51 264 -86 104 -75 171 -255
161 -431 l-3 -54 -50 3 c-161 9 -274 49 -363 127 -91 80 -162 218 -162 315 l0
42 -112 -6 c-129 -6 -183 -24 -236 -78 -48 -49 -63 -82 -69 -159 -5 -61 -3
-75 21 -124 46 -94 58 -101 438 -264 142 -61 283 -127 313 -147 139 -93 200
-270 145 -418 -45 -121 -146 -189 -305 -207 -49 -5 -96 -10 -102 -10 -10 0
-13 -25 -13 -90 l0 -90 343 0 c203 0 368 4 403 11 171 31 336 179 394 355 19
55 22 82 18 172 -3 98 -7 113 -38 177 -40 79 -126 172 -208 225 l-54 35 23 15
c110 73 203 188 233 289 70 238 -76 508 -315 582 -55 17 -96 19 -425 19 l-364
0 0 -99z m755 57 c53 -10 110 -32 125 -48 3 -3 21 -17 40 -30 19 -14 43 -35
53 -47 10 -13 25 -30 33 -38 20 -20 71 -133 79 -175 13 -67 13 -141 0 -188
-15 -55 -41 -117 -58 -140 -23 -30 -113 -118 -157 -153 -53 -43 -50 -56 21
-103 70 -46 163 -146 194 -210 54 -110 51 -279 -8 -395 -57 -115 -119 -175
-249 -243 l-63 -33 -372 -3 -373 -4 0 60 c0 59 0 60 31 66 17 3 44 6 60 6 48
0 141 29 183 56 59 39 95 82 128 152 72 150 32 315 -108 443 -38 35 -119 79
-219 119 -44 17 -102 42 -130 55 -27 13 -115 51 -195 86 -205 89 -250 136
-250 258 0 103 50 178 140 210 19 7 77 15 128 18 74 5 92 3 93 -8 4 -48 10
-72 32 -125 49 -121 119 -205 228 -272 20 -12 39 -19 42 -15 4 3 7 1 7 -5 0
-18 89 -38 212 -48 104 -8 108 -4 108 121 0 112 -19 195 -62 276 -69 130 -176
193 -385 226 l-33 5 0 69 0 69 243 2 c298 4 405 0 482 -14z"/>
<path d="M1132 2220 c0 -14 2 -19 5 -12 2 6 2 18 0 25 -3 6 -5 1 -5 -13z"/>
<path d="M1135 2124 c19 -129 97 -239 208 -293 50 -24 168 -52 178 -42 10 9
-8 127 -28 185 -10 32 -32 66 -62 96 -38 38 -59 50 -125 68 -43 13 -101 26
-129 29 l-50 6 8 -49z m142 -9 c70 -15 120 -42 157 -85 28 -34 42 -72 54 -152
9 -55 8 -58 -13 -58 -11 0 -48 9 -82 20 -112 38 -207 148 -229 265 -7 38 -7
38 22 30 16 -4 57 -13 91 -20z"/>
<path d="M631 1198 c32 -171 147 -293 307 -327 90 -19 90 -19 81 39 -12 74
-51 152 -106 211 -56 60 -116 93 -198 108 -94 18 -94 18 -84 -31z m149 -18
c57 -21 105 -59 155 -123 38 -48 70 -167 45 -167 -7 0 -43 9 -81 20 -59 18
-77 30 -136 88 -56 54 -72 77 -86 123 -26 84 -24 87 26 79 23 -4 58 -13 77
-20z"/>
</g>
</svg>
