<?xml version="1.0" standalone="no"?>
<!DOCTYPE svg PUBLIC "-//W3C//DTD SVG 20010904//EN"
 "http://www.w3.org/TR/2001/REC-SVG-20010904/DTD/svg10.dtd">
<svg version="1.0" xmlns="http://www.w3.org/2000/svg"
 width="300.000000pt" height="300.000000pt" viewBox="0 0 300.000000 300.000000"
 preserveAspectRatio="xMidYMid meet">
<metadata>
Created by potrace 1.10, written by Peter Selinger 2001-2011
</metadata>
<g transform="translate(0.000000,300.000000) scale(0.100000,-0.100000)"
fill="#000000" stroke="none">
<path d="M1029 2571 c-22 -18 -24 -28 -29 -143 l-5 -123 -80 -7 c-142 -12
-239 -52 -312 -127 -70 -74 -97 -139 -101 -247 -4 -83 -1 -96 25 -155 54 -118
167 -203 403 -302 19 -8 103 -43 185 -78 231 -96 290 -142 315 -241 21 -81 -7
-162 -73 -212 -39 -30 -171 -56 -190 -37 -6 6 -21 45 -33 86 -41 143 -136 263
-256 326 -52 26 -155 49 -249 54 -92 5 -105 2 -124 -36 -33 -63 28 -291 105
-387 44 -56 114 -119 150 -135 14 -7 30 -17 37 -23 7 -6 43 -19 80 -29 123
-31 113 -17 113 -153 0 -102 3 -121 18 -135 17 -15 61 -17 428 -17 458 0 481
3 605 67 80 41 180 129 240 210 93 125 129 228 129 369 0 105 -15 176 -56 255
-30 60 -119 175 -140 183 -25 10 -15 36 38 99 85 103 128 217 128 344 0 97
-15 163 -59 258 -65 139 -171 245 -305 305 -104 47 -140 50 -565 50 -377 0
-400 -1 -422 -19z m901 -35 c142 -46 274 -152 344 -277 52 -95 80 -213 73
-309 -11 -133 -55 -227 -154 -329 -61 -63 -62 -65 -41 -79 78 -55 158 -161
198 -262 27 -67 37 -202 21 -284 -31 -168 -185 -367 -348 -449 -107 -55 -117
-56 -575 -63 l-428 -7 0 145 0 145 -59 6 c-233 25 -409 223 -428 482 l-6 80
112 -7 c62 -4 129 -12 149 -19 170 -55 291 -198 325 -384 l13 -69 59 2 c109 5
160 20 208 63 60 52 81 106 75 198 -7 136 -72 189 -393 325 -291 123 -377 169
-445 235 -75 74 -103 145 -98 246 7 133 80 239 206 298 61 29 77 32 182 34
l115 3 0 145 0 144 130 4 c72 2 261 3 420 2 246 -1 298 -4 345 -19z"/>
<path d="M1132 2363 l3 -98 55 -7 c69 -8 186 -40 228 -62 125 -65 194 -208
196 -406 l1 -105 -50 3 c-165 12 -274 50 -363 128 -93 81 -162 216 -162 316
l0 41 -107 -6 c-127 -6 -187 -25 -236 -74 -55 -55 -72 -97 -72 -184 0 -67 3
-81 30 -124 17 -27 48 -62 70 -77 22 -16 169 -84 326 -152 304 -131 375 -170
429 -237 139 -173 91 -428 -97 -512 -52 -23 -209 -51 -247 -44 -7 1 -12 -28
-14 -91 l-3 -93 378 3 c427 4 429 4 551 86 151 103 232 254 232 432 0 108 -22
178 -85 266 -45 62 -174 174 -201 174 -26 0 -14 15 46 59 137 100 210 234 210
387 0 165 -89 323 -230 409 -104 62 -124 65 -527 65 l-364 0 3 -97z m700 58
c175 -23 321 -150 369 -321 12 -45 14 -159 3 -214 -17 -82 -83 -177 -176 -252
-92 -74 -91 -88 11 -163 113 -84 167 -158 195 -266 55 -210 -58 -436 -270
-542 l-78 -38 -363 -3 -363 -3 0 51 c0 57 -6 54 103 68 199 25 330 165 331
352 0 79 -21 162 -52 199 -9 11 -28 36 -42 56 -35 49 -136 115 -260 168 -505
217 -514 222 -556 293 -22 38 -27 58 -26 106 4 144 95 218 268 218 l73 0 10
-37 c6 -21 11 -45 11 -54 0 -38 77 -166 135 -224 96 -97 208 -145 373 -161 67
-6 75 -5 97 16 23 21 25 31 25 110 0 117 -13 181 -55 267 -64 131 -144 190
-310 228 -116 26 -117 27 -113 88 l3 52 115 6 c193 9 471 9 542 0z"/>
<path d="M1136 2123 c26 -180 170 -316 354 -335 l35 -3 -3 40 c-10 124 -51
220 -115 269 -34 26 -198 76 -250 76 -28 0 -28 0 -21 -47z m129 -12 c124 -32
167 -67 199 -164 23 -69 21 -117 -4 -117 -39 0 -126 41 -173 81 -73 63 -144
220 -99 219 4 0 39 -9 77 -19z"/>
<path d="M630 1199 c26 -134 87 -221 204 -289 44 -25 179 -60 190 -49 10 10
-16 109 -44 165 -57 117 -165 192 -302 209 l-56 7 8 -43z m160 -31 c25 -10 66
-40 92 -65 48 -47 102 -150 96 -181 -9 -44 -150 14 -221 91 -47 52 -93 147
-83 173 6 17 52 10 116 -18z"/>
</g>
</svg>
