<?xml version="1.0" standalone="no"?>
<!DOCTYPE svg PUBLIC "-//W3C//DTD SVG 20010904//EN"
 "http://www.w3.org/TR/2001/REC-SVG-20010904/DTD/svg10.dtd">
<svg version="1.0" xmlns="http://www.w3.org/2000/svg"
 width="1350.000000pt" height="1350.000000pt" viewBox="0 0 1350.000000 1350.000000"
 preserveAspectRatio="xMidYMid meet">
<metadata>
Created by potrace 1.10, written by Peter Selinger 2001-2011
</metadata>
<g transform="translate(0.000000,1350.000000) scale(0.100000,-0.100000)"
fill="#000000" stroke="none">
<path d="M6100 11603 c-52 -1 -389 -7 -748 -13 -529 -8 -657 -12 -680 -24 -41
-21 -102 -95 -108 -130 -3 -17 -7 -36 -9 -43 -2 -6 -6 -249 -8 -540 -4 -551
-5 -561 -47 -579 -8 -4 -127 -6 -265 -5 -174 1 -282 -3 -355 -13 -58 -8 -124
-14 -146 -15 -23 0 -58 -7 -79 -15 -21 -9 -48 -16 -61 -16 -14 0 -32 -4 -42
-9 -50 -27 -95 -42 -108 -37 -8 3 -25 0 -37 -8 -12 -8 -38 -17 -57 -21 -19 -4
-73 -26 -120 -50 -47 -23 -93 -45 -102 -48 -10 -4 -18 -16 -18 -27 0 -15 -7
-20 -29 -20 -16 0 -31 -6 -35 -15 -3 -8 -14 -15 -25 -15 -25 0 -256 -193 -301
-251 -19 -24 -48 -58 -64 -75 -32 -32 -116 -143 -150 -198 -44 -71 -116 -218
-116 -235 0 -11 -4 -23 -10 -26 -5 -3 -10 -16 -10 -29 0 -12 -4 -26 -9 -32
-13 -14 -41 -106 -62 -205 -15 -71 -19 -135 -19 -302 -1 -216 7 -305 36 -412
9 -33 20 -73 24 -90 23 -89 101 -253 147 -308 21 -25 53 -73 72 -107 22 -38
85 -112 171 -200 74 -77 138 -140 142 -140 3 0 25 -18 48 -40 23 -23 56 -48
74 -57 17 -8 39 -22 49 -31 9 -8 26 -20 36 -26 10 -6 45 -28 76 -49 32 -22 66
-42 74 -45 9 -3 36 -21 60 -39 24 -18 48 -33 54 -33 5 0 32 -13 59 -30 26 -16
54 -30 62 -30 7 0 25 -9 39 -20 14 -11 40 -23 59 -27 18 -3 71 -28 119 -55 47
-26 92 -48 101 -48 9 0 42 -15 75 -33 57 -32 87 -45 208 -92 33 -13 96 -38
140 -55 44 -17 89 -34 100 -37 10 -4 35 -17 53 -30 19 -13 39 -23 44 -23 5 0
28 -9 50 -20 23 -11 54 -20 69 -20 15 0 29 -6 32 -13 3 -8 27 -20 54 -27 26
-8 59 -21 73 -31 14 -9 41 -20 61 -23 21 -4 42 -13 49 -21 7 -8 25 -15 41 -15
15 0 34 -6 41 -14 17 -16 105 -56 125 -56 8 0 33 -11 56 -24 23 -13 67 -32 97
-41 30 -10 60 -21 65 -24 6 -4 37 -17 70 -30 33 -13 67 -30 76 -38 9 -8 52
-27 95 -44 43 -17 108 -45 144 -63 36 -19 81 -39 100 -46 19 -7 44 -22 56 -32
11 -10 30 -18 41 -18 12 0 34 -11 50 -23 15 -13 53 -39 84 -58 121 -74 135
-85 242 -179 53 -47 97 -90 97 -97 0 -6 9 -14 19 -18 11 -3 24 -19 30 -36 6
-17 23 -47 39 -67 54 -71 100 -157 107 -202 4 -25 14 -54 21 -65 8 -11 14 -40
14 -65 0 -25 5 -51 11 -57 7 -7 8 -17 1 -30 -6 -10 -9 -59 -7 -108 3 -99 -19
-273 -40 -320 -7 -16 -17 -43 -21 -59 -8 -34 -45 -105 -85 -164 -16 -24 -29
-46 -29 -50 0 -4 -9 -15 -20 -25 -11 -9 -20 -24 -20 -32 0 -8 -4 -15 -8 -15
-4 0 -30 -23 -57 -50 -55 -55 -159 -129 -217 -154 -21 -9 -54 -23 -73 -31 -32
-14 -98 -29 -230 -55 -149 -29 -489 -49 -524 -31 -34 19 -58 80 -75 191 -24
163 -118 490 -152 530 -7 8 -16 28 -20 43 -9 38 -51 124 -64 132 -5 3 -10 17
-10 29 0 13 -13 40 -30 61 -16 21 -30 44 -30 52 0 17 -49 90 -79 117 -11 11
-21 25 -21 32 0 7 -11 26 -25 41 -14 15 -50 62 -81 103 -30 41 -68 85 -84 98
-17 13 -30 30 -30 39 0 9 -6 13 -15 9 -10 -4 -22 5 -34 24 -17 28 -165 164
-241 221 -19 14 -80 52 -135 84 -55 31 -112 66 -127 76 -14 11 -33 19 -41 19
-8 0 -35 11 -58 25 -24 14 -55 25 -68 25 -14 0 -32 6 -40 14 -21 18 -114 49
-216 70 -44 9 -99 21 -123 27 -23 5 -59 9 -79 9 -20 0 -50 4 -67 9 -102 31
-456 55 -750 51 -87 -2 -129 -20 -179 -79 -41 -50 -44 -69 -35 -276 2 -46 27
-305 34 -345 19 -113 47 -236 55 -247 11 -12 32 -94 50 -193 6 -36 17 -61 31
-71 13 -10 19 -23 15 -32 -3 -9 3 -27 14 -40 10 -14 19 -33 19 -42 0 -21 38
-112 62 -147 10 -14 18 -33 18 -41 0 -8 13 -31 29 -51 16 -20 32 -50 36 -66 3
-16 17 -36 31 -44 13 -9 24 -25 24 -35 0 -10 9 -26 21 -37 12 -10 30 -36 41
-57 30 -59 101 -147 119 -147 10 0 19 -11 22 -28 5 -26 124 -152 205 -219 75
-62 91 -73 100 -73 6 0 13 -8 16 -17 3 -10 21 -27 40 -38 18 -11 67 -42 107
-69 41 -27 110 -67 154 -88 44 -22 87 -43 95 -48 55 -34 243 -105 296 -113 22
-4 63 -13 90 -21 27 -8 72 -19 99 -26 28 -6 59 -14 70 -17 72 -18 115 -25 149
-24 58 1 144 -27 159 -52 9 -17 13 -158 17 -568 5 -503 6 -548 22 -566 10 -11
18 -24 18 -30 0 -5 11 -15 25 -21 14 -6 25 -16 25 -21 0 -22 31 -40 59 -35 16
3 32 1 35 -5 5 -7 101 -9 309 -6 275 4 2313 16 2942 17 246 1 466 14 492 31 6
4 49 12 94 18 45 5 90 14 100 20 11 5 38 13 61 18 24 5 59 15 78 22 19 7 60
21 90 32 30 11 64 23 75 28 11 4 37 15 58 23 20 8 37 19 37 24 0 6 17 13 38
17 32 6 71 27 174 97 15 10 33 18 39 18 19 0 95 47 136 85 21 19 44 35 50 35
7 0 18 9 25 20 7 11 19 20 27 20 26 0 218 157 336 275 28 28 69 65 93 83 23
19 42 40 42 47 0 8 6 18 13 22 34 20 181 195 254 302 17 25 41 57 53 71 12 14
44 61 72 105 28 44 62 96 75 116 12 19 23 41 23 48 0 7 11 26 25 42 13 16 27
46 31 66 4 20 15 44 25 54 11 11 19 30 19 43 0 13 6 29 14 35 17 15 73 158
115 296 7 22 16 49 20 60 13 33 31 105 46 190 8 44 21 114 29 155 35 175 29
597 -9 740 -8 30 -15 73 -15 96 0 22 -3 44 -7 48 -4 4 -15 42 -24 84 -25 114
-48 192 -69 237 -10 22 -28 65 -40 95 -31 79 -156 318 -185 352 -14 16 -25 35
-25 41 0 13 -45 82 -77 118 -13 14 -32 41 -42 60 -12 22 -25 33 -36 31 -10 -2
-14 1 -10 7 12 20 -236 283 -414 441 -58 51 -62 57 -53 81 6 14 41 57 79 95
38 38 79 82 91 98 13 16 33 34 45 40 12 7 23 22 25 34 2 13 14 27 28 32 13 5
24 14 24 19 0 5 20 30 45 57 25 26 45 52 45 59 0 6 16 26 35 45 20 20 35 44
35 57 0 16 8 27 24 33 16 6 33 29 52 69 15 34 31 61 36 61 17 0 176 341 197
425 4 17 13 39 18 50 16 30 61 241 83 388 28 184 28 484 0 652 -38 231 -74
387 -98 425 -8 13 -21 54 -29 89 -7 36 -25 85 -38 109 -14 25 -25 51 -25 60 0
8 -25 63 -56 121 -31 58 -79 149 -106 201 -28 52 -58 104 -67 115 -10 11 -30
41 -45 68 -15 26 -42 62 -60 81 -19 18 -37 43 -41 55 -4 12 -18 26 -31 31 -13
5 -24 17 -24 25 0 26 -292 324 -318 325 -7 0 -17 11 -22 25 -5 14 -14 25 -21
25 -6 0 -36 22 -67 48 -80 68 -159 122 -178 122 -9 0 -31 15 -48 33 -17 18
-60 47 -96 66 -36 18 -83 43 -105 56 -84 50 -115 65 -128 65 -8 0 -41 13 -73
30 -32 16 -69 30 -82 30 -12 0 -33 6 -45 14 -12 8 -60 24 -107 36 -47 12 -94
26 -105 30 -97 37 -269 63 -520 80 -139 9 -1718 11 -2005 3z m2175 -121 c171
-20 394 -71 515 -117 25 -9 63 -22 85 -30 122 -41 348 -158 495 -258 269 -183
544 -451 711 -697 233 -341 391 -725 452 -1100 41 -246 45 -358 22 -565 -41
-378 -123 -639 -288 -913 -21 -35 -41 -71 -45 -80 -15 -40 -119 -183 -246
-336 -84 -102 -278 -287 -336 -322 -40 -23 -50 -34 -50 -56 0 -22 9 -33 46
-54 66 -39 164 -120 278 -232 238 -234 430 -494 554 -752 59 -124 83 -182 132
-315 21 -60 40 -125 40 -140 0 -10 7 -41 14 -69 68 -237 68 -753 0 -992 -8
-28 -14 -63 -14 -77 0 -23 -36 -133 -110 -342 -50 -139 -144 -319 -285 -543
-87 -139 -306 -400 -439 -523 -38 -35 -87 -82 -110 -104 -178 -174 -408 -329
-676 -457 -151 -72 -182 -85 -290 -119 -36 -11 -78 -27 -93 -35 -16 -8 -33
-12 -37 -9 -5 3 -28 -1 -52 -9 -46 -15 -124 -29 -253 -45 -47 -6 -550 -13
-1210 -16 -621 -4 -1434 -10 -1805 -15 -507 -6 -678 -5 -686 3 -8 9 -10 86 -4
282 4 149 6 429 5 624 -2 405 4 381 -94 381 -81 0 -236 18 -311 35 -75 17
-217 51 -273 66 -48 12 -261 95 -302 117 -154 84 -308 182 -381 244 -28 24
-73 61 -99 83 -82 68 -249 267 -339 404 -81 123 -226 394 -226 423 0 8 -4 18
-9 24 -10 9 -36 84 -66 189 -9 33 -21 71 -26 85 -22 65 -66 295 -80 425 -31
290 -37 434 -20 444 26 17 650 -21 896 -53 173 -23 382 -82 517 -144 46 -22
88 -41 93 -43 6 -2 42 -22 80 -43 247 -137 436 -310 644 -587 173 -231 322
-567 385 -869 37 -173 46 -236 46 -305 0 -103 7 -109 124 -101 50 3 172 8 271
11 131 5 216 13 313 31 138 26 299 78 355 113 17 11 49 30 71 42 39 21 222
199 264 256 77 107 145 284 171 443 24 155 23 252 -8 455 -27 175 -150 388
-313 541 -71 65 -232 194 -244 194 -3 0 -31 17 -63 38 -62 42 -64 43 -216 119
-161 80 -219 107 -415 188 -102 42 -203 85 -226 96 -45 21 -164 71 -234 99
-88 36 -266 109 -335 138 -38 17 -104 44 -145 62 -41 18 -102 43 -135 57 -106
42 -287 120 -360 153 -370 169 -453 209 -570 276 -226 128 -478 328 -612 485
-25 30 -48 56 -52 59 -9 7 -72 104 -118 180 -76 126 -145 315 -165 455 -16
114 -21 334 -8 433 20 163 69 325 148 492 26 56 140 236 164 261 8 8 33 40 56
71 74 100 297 279 437 351 83 42 201 97 211 97 3 0 20 6 37 13 32 14 93 33
197 61 30 8 78 17 105 20 28 2 80 10 117 16 70 12 654 8 737 -5 28 -5 46 -3
50 4 4 6 8 306 9 667 1 362 4 659 6 661 3 3 202 5 443 5 241 0 557 3 703 7
364 11 2376 5 2475 -7z"/>
<path d="M6149 11066 c-3 -3 -240 -6 -527 -7 -288 -1 -525 -6 -527 -9 -3 -4
-7 -183 -9 -397 -3 -214 -7 -400 -10 -414 -11 -46 3 -52 156 -65 140 -12 357
-53 508 -95 41 -12 112 -29 156 -39 45 -10 96 -25 115 -33 19 -7 50 -17 69
-20 75 -14 378 -146 388 -169 2 -4 20 -17 40 -29 75 -45 200 -149 248 -206 82
-97 164 -207 164 -222 0 -5 6 -13 13 -19 7 -6 30 -46 51 -89 45 -94 48 -100
69 -138 14 -26 31 -64 66 -150 42 -102 64 -178 96 -340 35 -177 48 -330 51
-590 1 -121 5 -270 9 -332 l7 -113 -26 -10 c-31 -11 -273 2 -456 25 -63 7
-158 19 -210 25 -156 18 -369 67 -505 117 -116 43 -359 160 -412 199 -17 13
-34 24 -37 24 -22 0 -235 178 -347 289 -144 145 -187 198 -327 406 -57 86
-162 310 -198 425 -9 30 -20 64 -24 75 -36 98 -67 268 -81 445 -5 68 -14 129
-19 134 -15 15 -647 7 -775 -9 -192 -26 -298 -53 -435 -115 -126 -57 -213
-115 -317 -214 -150 -141 -219 -256 -278 -461 -66 -229 -64 -540 5 -745 17
-52 38 -102 46 -111 8 -8 14 -19 14 -23 0 -10 74 -119 123 -180 58 -74 190
-190 297 -261 97 -64 183 -108 370 -189 58 -24 187 -81 287 -125 101 -45 186
-81 190 -81 4 0 41 -15 83 -34 41 -18 120 -52 175 -75 55 -23 132 -57 170 -76
39 -18 88 -40 110 -48 22 -8 84 -36 138 -61 53 -25 102 -46 107 -46 6 0 18 -4
28 -9 50 -27 104 -51 113 -51 5 0 47 -18 91 -40 45 -22 87 -40 94 -40 6 0 38
-13 70 -30 32 -16 63 -30 69 -30 21 0 432 -183 585 -260 260 -131 482 -303
650 -504 107 -128 187 -258 251 -411 33 -77 73 -205 90 -285 30 -142 37 -418
15 -547 -67 -379 -266 -720 -541 -925 -220 -163 -494 -261 -835 -298 -214 -23
-278 -27 -430 -29 -85 -1 -157 -4 -159 -7 -3 -2 -7 -186 -9 -408 -3 -384 -2
-405 15 -413 10 -5 689 -5 1508 -2 1594 8 1701 11 1910 60 50 11 110 25 134
30 24 5 49 13 55 17 6 5 34 17 61 27 247 89 513 253 751 464 139 122 320 332
416 479 20 31 44 67 53 80 14 19 67 118 112 207 45 90 114 269 143 370 56 197
70 290 75 530 7 282 -26 547 -89 705 -8 19 -21 55 -31 80 -79 208 -186 390
-344 584 -36 44 -72 87 -80 96 -9 9 -37 38 -62 66 -38 41 -136 133 -269 252
-13 12 -28 22 -32 22 -5 0 -25 15 -45 33 -87 76 -319 220 -389 241 -38 12 -37
76 1 76 11 0 215 133 286 188 230 177 479 450 630 694 41 66 130 236 139 266
5 15 18 52 30 82 21 57 25 69 58 205 36 145 47 253 46 460 -2 343 -63 640
-184 892 -22 45 -40 84 -40 87 0 5 -91 158 -143 241 -93 149 -319 383 -512
530 -184 141 -401 249 -640 320 -33 10 -71 22 -85 26 -14 5 -41 11 -60 14 -19
3 -53 9 -75 15 -96 23 -394 30 -1284 30 -516 0 -940 -2 -942 -4z m1966 -107
c43 0 315 -38 345 -48 14 -5 45 -14 70 -21 25 -7 64 -19 88 -26 23 -8 48 -14
55 -14 7 0 39 -13 72 -30 33 -16 70 -30 82 -30 12 0 25 -5 28 -10 4 -6 41 -29
83 -51 85 -44 119 -66 192 -121 27 -21 53 -38 58 -38 8 0 81 -60 130 -107 12
-13 27 -23 31 -23 4 0 32 -26 60 -57 29 -32 71 -78 95 -103 23 -25 48 -57 54
-72 6 -16 17 -28 23 -28 21 0 49 -32 49 -55 0 -13 6 -25 14 -28 11 -5 62 -86
118 -190 9 -18 21 -37 26 -43 5 -6 15 -28 23 -50 7 -21 18 -46 24 -54 47 -64
155 -454 155 -560 0 -18 6 -33 15 -36 15 -6 21 -34 7 -34 -4 0 -4 -56 0 -125
9 -143 -3 -335 -26 -445 -9 -41 -20 -95 -24 -120 -5 -25 -13 -54 -20 -65 -6
-11 -21 -49 -33 -85 -12 -36 -34 -91 -50 -124 -16 -32 -29 -66 -29 -76 0 -11
-8 -25 -18 -32 -11 -7 -25 -31 -31 -53 -7 -22 -23 -49 -36 -60 -13 -11 -35
-42 -49 -68 -13 -26 -36 -61 -50 -77 -13 -17 -27 -39 -31 -50 -3 -11 -13 -20
-20 -20 -8 0 -20 -10 -26 -22 -27 -52 -241 -275 -303 -315 -21 -13 -40 -32
-43 -41 -2 -10 -16 -25 -31 -35 -15 -9 -50 -32 -78 -49 -77 -51 -149 -107
-214 -171 -55 -54 -60 -62 -60 -102 0 -28 8 -55 22 -77 29 -43 138 -135 182
-153 19 -8 46 -26 60 -40 14 -14 31 -25 39 -25 8 0 21 -7 28 -17 8 -9 37 -31
64 -48 28 -18 64 -46 82 -61 17 -16 52 -45 77 -64 25 -19 46 -39 46 -45 0 -5
20 -23 45 -40 25 -16 48 -40 51 -52 4 -13 14 -23 24 -23 10 0 26 -12 35 -27
10 -16 51 -66 91 -113 131 -153 208 -270 293 -445 21 -45 46 -87 55 -94 9 -7
16 -24 16 -37 0 -13 14 -65 30 -116 17 -51 30 -100 30 -110 0 -9 5 -20 10 -23
6 -3 10 -19 10 -35 0 -16 7 -57 15 -92 10 -45 15 -134 16 -313 1 -259 -3 -296
-55 -520 -15 -65 -73 -231 -98 -280 -9 -17 -19 -46 -23 -65 -4 -19 -23 -59
-42 -88 -19 -29 -43 -73 -54 -97 -11 -25 -40 -75 -65 -110 -24 -36 -44 -71
-44 -77 0 -7 -9 -21 -20 -33 -11 -11 -46 -51 -77 -90 -32 -38 -61 -72 -66 -73
-4 -2 -17 -21 -27 -43 -11 -21 -27 -39 -36 -39 -8 0 -20 -13 -25 -30 -6 -16
-16 -30 -22 -30 -6 0 -25 -15 -42 -32 -57 -60 -143 -133 -185 -158 -24 -14
-62 -44 -87 -67 -24 -24 -47 -43 -52 -43 -4 0 -64 -34 -132 -75 -68 -41 -130
-75 -136 -75 -7 0 -35 -13 -61 -30 -27 -16 -59 -30 -70 -30 -11 0 -23 -4 -27
-9 -3 -5 -20 -13 -38 -16 -17 -4 -55 -18 -83 -31 -55 -26 -102 -35 -324 -65
-135 -17 -246 -19 -1616 -25 l-1470 -7 -22 28 c-21 27 -22 36 -22 274 0 268 4
289 53 302 16 4 90 12 165 18 433 33 503 46 837 161 76 25 115 45 184 93 30
20 58 37 62 37 10 0 126 87 174 132 95 85 173 173 187 209 4 11 12 19 17 19 5
0 22 25 37 55 16 30 32 55 37 55 12 0 131 254 155 330 11 36 25 90 31 120 6
30 16 80 23 110 21 88 18 490 -4 560 -9 30 -22 84 -29 120 -7 36 -20 81 -30
100 -9 19 -25 62 -35 95 -17 58 -93 214 -119 245 -7 8 -22 33 -33 55 -11 22
-31 52 -43 67 -13 14 -32 37 -42 50 -50 66 -70 88 -83 88 -8 0 -18 8 -21 18
-22 59 -192 223 -265 254 -16 7 -28 17 -29 23 0 13 -174 125 -195 125 -9 0
-27 11 -39 24 -12 13 -50 34 -84 46 -34 13 -64 27 -67 31 -3 5 -14 9 -25 9
-10 0 -28 9 -38 19 -26 26 -399 191 -432 191 -9 0 -28 9 -42 20 -14 11 -30 20
-36 20 -10 0 -81 30 -125 53 -11 5 -56 22 -100 38 -44 16 -95 38 -113 49 -19
11 -45 20 -57 20 -13 0 -29 7 -36 15 -15 18 -66 42 -178 86 -43 16 -85 34 -94
39 -10 6 -28 10 -41 10 -13 0 -32 9 -42 20 -10 11 -37 25 -59 31 -23 6 -57 21
-76 32 -34 21 -55 30 -150 63 -25 9 -53 23 -62 31 -10 9 -30 15 -45 15 -30 0
-62 14 -78 34 -5 7 -30 19 -55 27 -25 9 -92 38 -150 66 -58 28 -114 51 -125
51 -11 0 -36 10 -55 23 -19 13 -64 34 -100 47 -36 13 -76 29 -90 35 -14 7 -36
18 -50 24 -36 17 -67 36 -87 53 -10 8 -40 25 -66 38 -27 12 -51 28 -54 35 -2
8 -36 36 -73 65 -73 54 -178 169 -220 241 -14 23 -35 58 -48 77 -13 19 -26 48
-29 66 -3 17 -12 42 -19 56 -15 31 -43 227 -46 325 -1 39 4 106 11 150 8 44
13 93 13 109 -1 15 5 41 13 57 8 15 15 44 15 64 0 24 4 35 15 35 10 0 15 10
15 26 0 15 15 50 33 78 52 83 56 90 70 121 8 17 45 57 83 90 38 33 86 77 106
97 20 21 44 38 52 38 9 0 26 11 38 25 12 14 29 25 38 25 10 0 46 13 81 29 115
51 295 98 434 112 72 8 237 14 367 14 203 0 240 -2 253 -16 23 -23 44 -109 56
-224 8 -90 30 -175 89 -355 54 -163 154 -380 175 -380 7 0 20 -19 31 -42 10
-24 28 -56 41 -71 13 -16 23 -35 23 -43 0 -8 16 -31 35 -51 19 -20 35 -42 35
-50 0 -7 4 -13 8 -13 5 0 13 -9 18 -19 15 -32 128 -152 156 -167 16 -8 28 -21
28 -29 0 -8 20 -29 44 -48 25 -18 56 -48 71 -65 15 -18 37 -32 48 -32 14 -1
30 -13 42 -33 11 -17 29 -36 40 -42 11 -5 43 -28 71 -50 28 -22 67 -49 85 -60
97 -56 192 -105 204 -105 7 0 18 -7 25 -15 7 -8 23 -15 37 -15 13 0 39 -11 57
-25 18 -14 60 -33 92 -44 153 -48 202 -61 226 -61 15 0 30 -4 33 -10 3 -5 24
-10 45 -10 22 0 57 -7 79 -16 21 -8 45 -14 52 -13 8 1 21 0 29 -3 35 -13 212
-32 398 -42 51 -3 110 -10 130 -16 47 -13 149 -13 157 0 3 6 17 10 30 10 24 0
56 23 115 82 37 37 42 83 39 388 -3 271 -20 525 -39 575 -6 16 -15 59 -21 95
-26 184 -36 219 -121 434 -28 71 -62 141 -75 156 -13 15 -23 35 -23 45 0 18
-49 108 -62 113 -5 2 -15 20 -24 40 -8 20 -18 39 -23 42 -4 3 -24 31 -44 63
-20 31 -41 57 -47 57 -5 0 -22 18 -36 40 -15 22 -39 46 -53 53 -14 7 -31 24
-38 38 -19 40 -213 188 -294 224 -21 10 -39 22 -39 26 0 4 -15 11 -34 15 -19
3 -49 17 -67 30 -18 13 -45 24 -60 24 -15 0 -31 5 -34 11 -8 12 -40 25 -115
46 -95 26 -124 34 -160 44 -19 6 -53 14 -75 19 -22 5 -74 18 -115 30 -41 11
-100 23 -130 25 -30 2 -56 8 -58 14 -2 6 -17 11 -33 11 -17 0 -40 5 -52 11
-11 7 -77 20 -146 29 -105 15 -128 21 -143 40 -16 20 -18 47 -18 300 0 326 -1
322 94 334 30 3 529 9 1108 12 579 4 1055 8 1057 10 2 1 146 1 320 -2 174 -3
330 -5 346 -5z"/>
<path d="M5090 9684 c0 -167 50 -392 128 -579 48 -115 85 -186 130 -252 23
-34 42 -65 42 -68 0 -26 248 -293 340 -366 133 -105 274 -188 435 -255 57 -25
81 -32 205 -68 45 -13 224 -44 412 -72 68 -10 96 12 78 61 -5 14 -16 87 -24
163 -29 269 -92 564 -140 657 -9 17 -16 36 -16 43 0 7 -16 42 -35 77 -110 204
-239 345 -411 448 -70 42 -204 101 -255 112 -18 4 -43 14 -54 21 -11 8 -36 14
-56 14 -20 0 -49 4 -65 9 -16 5 -60 14 -99 21 -38 7 -85 21 -104 31 -18 11
-59 24 -90 29 -65 11 -150 25 -271 46 -47 8 -100 14 -117 14 l-33 0 0 -86z
m349 -75 c69 -16 137 -34 151 -39 14 -4 70 -18 125 -30 55 -12 116 -26 135
-30 19 -5 59 -14 88 -21 28 -6 55 -15 58 -20 3 -5 14 -9 24 -9 23 0 85 -32
162 -82 31 -21 62 -38 68 -38 5 0 40 -31 78 -68 37 -38 75 -71 85 -75 9 -3 17
-13 17 -21 0 -9 12 -30 28 -48 44 -53 72 -96 72 -111 0 -8 7 -20 15 -27 8 -7
15 -17 15 -23 0 -6 9 -29 19 -51 27 -55 87 -247 101 -321 6 -33 18 -87 25
-120 26 -112 35 -289 17 -307 -27 -27 -215 -2 -382 52 -30 9 -75 23 -100 31
-51 15 -266 122 -290 144 -9 8 -24 15 -34 15 -16 0 -128 93 -217 179 -20 20
-43 42 -50 49 -15 14 -61 64 -121 130 -21 23 -38 46 -38 50 0 5 -9 17 -19 26
-11 10 -22 29 -25 42 -9 33 -65 125 -87 144 -11 8 -23 36 -27 61 -5 26 -19 62
-30 81 -12 19 -29 65 -37 103 -9 38 -19 74 -23 80 -11 16 -30 135 -31 191 -1
68 17 89 83 93 10 0 75 -13 145 -30z"/>
<path d="M2806 5555 c-7 -19 34 -248 65 -365 11 -41 24 -91 29 -110 15 -62 55
-167 86 -225 78 -146 110 -198 172 -278 59 -78 252 -270 343 -343 151 -120
383 -245 509 -274 19 -4 91 -21 160 -38 69 -17 170 -38 225 -47 55 -9 116 -20
135 -25 26 -7 40 -6 57 5 20 13 22 21 17 63 -10 88 -35 247 -43 272 -5 14 -16
52 -26 85 -65 220 -166 440 -250 542 -5 7 -23 31 -40 53 -215 293 -464 484
-753 579 -153 51 -288 80 -437 97 -77 8 -163 18 -191 21 -42 5 -52 3 -58 -12z
m330 -130 c60 -11 81 -12 92 -3 11 10 17 9 28 -6 7 -10 30 -22 51 -27 163 -35
213 -53 335 -118 42 -22 82 -41 88 -41 30 0 255 -200 321 -286 23 -29 49 -56
60 -59 10 -4 19 -14 19 -24 0 -9 17 -35 39 -57 21 -23 42 -52 46 -65 4 -13 15
-33 25 -44 10 -11 28 -40 40 -65 11 -25 41 -81 65 -125 24 -44 44 -90 44 -103
1 -13 7 -35 15 -50 13 -26 19 -49 61 -232 20 -90 12 -124 -32 -133 -29 -6
-224 30 -323 59 -30 8 -77 20 -105 25 -27 4 -61 17 -75 27 -14 10 -43 25 -65
32 -22 7 -49 20 -60 29 -11 10 -31 23 -45 29 -86 42 -205 133 -339 261 -29 28
-57 51 -62 51 -5 0 -20 17 -33 38 -23 37 -93 118 -129 151 -10 9 -27 36 -38
61 -11 25 -24 52 -29 60 -9 15 -40 78 -91 186 -16 34 -29 69 -29 78 0 9 -4 24
-9 34 -11 21 -28 84 -47 177 -13 61 -12 124 2 147 8 13 96 9 180 -7z"/>
</g>
</svg>
