<?xml version="1.0" standalone="no"?>
<!DOCTYPE svg PUBLIC "-//W3C//DTD SVG 20010904//EN"
 "http://www.w3.org/TR/2001/REC-SVG-20010904/DTD/svg10.dtd">
<svg version="1.0" xmlns="http://www.w3.org/2000/svg"
 width="900.000000pt" height="900.000000pt" viewBox="0 0 900.000000 900.000000"
 preserveAspectRatio="xMidYMid meet">
<metadata>
Created by potrace 1.10, written by Peter Selinger 2001-2011
</metadata>
<g transform="translate(0.000000,900.000000) scale(0.100000,-0.100000)"
fill="#000000" stroke="none">
<path d="M3965 7765 c-5 -2 -190 -6 -410 -8 -238 -3 -410 -9 -426 -15 -32 -13
-110 -93 -126 -130 -9 -19 -12 -121 -13 -353 0 -309 -1 -328 -20 -351 -19 -25
-21 -25 -212 -31 -187 -5 -303 -20 -398 -50 -25 -8 -72 -23 -105 -32 -33 -10
-67 -24 -76 -31 -8 -8 -24 -14 -34 -14 -25 0 -115 -52 -189 -109 -34 -26 -69
-52 -79 -57 -25 -14 -174 -180 -205 -229 -14 -22 -47 -80 -73 -130 -88 -169
-119 -300 -119 -507 0 -144 5 -180 48 -318 23 -77 107 -253 138 -290 70 -84
179 -200 187 -200 3 0 27 -21 53 -46 44 -42 165 -134 177 -134 3 0 32 -18 65
-40 33 -21 79 -48 103 -59 24 -11 105 -49 179 -84 74 -36 160 -75 190 -87 30
-13 59 -27 64 -32 6 -4 19 -8 30 -8 12 0 35 -8 51 -18 17 -10 73 -35 125 -56
52 -20 111 -46 131 -56 20 -11 68 -31 105 -45 38 -14 78 -29 89 -35 70 -33
239 -100 252 -100 9 0 24 -6 32 -14 9 -7 54 -30 101 -50 47 -21 108 -47 135
-59 28 -12 70 -34 95 -49 25 -15 63 -37 85 -48 22 -11 56 -32 75 -46 49 -35
190 -167 190 -177 0 -5 13 -27 29 -50 70 -103 97 -220 88 -377 -6 -97 -23
-157 -73 -265 -34 -73 -143 -182 -226 -225 -80 -42 -291 -80 -445 -80 -56 0
-63 3 -87 31 -25 30 -30 43 -39 104 -5 30 -20 85 -59 220 -22 76 -64 171 -79
180 -5 4 -9 14 -9 23 0 21 -32 87 -54 111 -8 9 -19 27 -25 41 -6 14 -27 45
-46 70 -19 25 -47 62 -61 84 -44 65 -182 202 -229 227 -25 13 -47 31 -50 40
-3 9 -15 21 -28 27 -12 7 -58 32 -102 57 -192 109 -278 136 -572 180 -115 18
-393 35 -408 26 -5 -3 -34 -6 -64 -6 -53 0 -54 -1 -106 -58 -74 -82 -79 -127
-39 -398 20 -137 72 -347 99 -399 8 -14 22 -47 32 -75 39 -109 141 -285 230
-395 132 -163 405 -380 478 -380 9 0 18 -7 22 -15 15 -40 256 -123 448 -156
39 -6 82 -17 96 -25 55 -27 54 -21 59 -390 l5 -343 45 -46 c79 -81 -32 -75
1226 -69 1148 5 1350 11 1452 44 31 10 74 20 95 23 54 8 208 67 233 89 11 10
25 18 30 18 18 0 182 88 244 132 34 24 71 50 83 57 40 27 181 153 262 235 85
86 182 202 231 275 16 24 50 76 77 115 26 39 54 87 63 106 9 19 20 42 25 50
77 134 154 363 184 547 30 182 14 533 -30 666 -7 23 -18 67 -25 98 -6 31 -17
65 -25 75 -8 11 -15 25 -15 33 0 21 -69 158 -86 172 -8 6 -14 17 -14 24 0 17
-28 72 -64 125 -49 73 -225 280 -303 356 -88 86 -93 111 -37 165 38 35 164
181 199 228 91 124 205 333 205 375 0 11 7 27 16 37 9 10 19 32 24 51 5 18 17
67 28 108 71 268 69 517 -10 835 -10 44 -24 85 -29 91 -5 6 -16 38 -25 70 -14
55 -91 220 -151 324 -36 61 -131 199 -159 230 -124 135 -224 234 -249 247 -16
8 -50 34 -75 58 -86 81 -252 180 -389 232 -36 14 -70 28 -76 32 -17 12 -105
39 -196 61 -186 44 -326 50 -1063 49 -380 0 -695 -2 -701 -4z m1580 -118 c140
-20 276 -53 342 -83 17 -8 36 -14 41 -14 19 0 261 -127 293 -154 17 -14 34
-26 39 -26 5 0 15 -6 22 -13 7 -7 42 -35 78 -62 90 -69 243 -224 318 -322 34
-45 62 -84 62 -87 0 -3 14 -26 31 -51 35 -52 149 -277 149 -295 0 -7 6 -26 14
-43 61 -137 106 -376 106 -559 0 -338 -103 -636 -318 -923 -91 -120 -194 -229
-273 -287 -33 -23 -59 -50 -59 -59 0 -9 37 -43 83 -77 163 -119 355 -338 453
-518 104 -192 149 -310 181 -474 24 -120 24 -477 1 -610 -18 -99 -23 -117 -69
-241 -16 -42 -29 -80 -29 -85 0 -14 -119 -246 -136 -265 -8 -8 -14 -20 -15
-25 0 -5 -20 -36 -45 -69 -24 -33 -55 -76 -68 -96 -58 -86 -342 -369 -415
-414 -9 -5 -41 -28 -71 -51 -116 -86 -319 -187 -465 -231 -203 -60 -220 -61
-1035 -68 -333 -3 -854 -8 -1159 -12 l-553 -6 7 415 c5 307 4 420 -4 436 -11
20 -20 22 -105 22 -58 0 -110 6 -136 15 -23 8 -56 15 -73 15 -17 0 -49 6 -72
14 -22 7 -65 22 -95 31 -30 10 -64 24 -75 32 -11 7 -29 13 -42 13 -12 0 -25 4
-28 10 -3 5 -25 19 -48 30 -104 52 -220 134 -311 219 -55 53 -166 183 -193
226 -199 320 -278 573 -298 956 -6 102 -5 127 6 131 25 8 402 -12 499 -27 53
-8 110 -15 127 -15 40 0 219 -53 313 -92 255 -108 493 -330 637 -595 62 -114
73 -137 73 -145 0 -6 6 -24 14 -41 48 -105 95 -306 103 -435 6 -89 11 -92 128
-81 44 4 123 8 175 8 52 1 122 8 155 16 33 8 71 14 85 15 14 0 37 6 51 14 14
7 38 16 53 20 15 4 45 18 67 31 21 14 42 25 46 25 12 0 113 99 154 150 46 56
104 176 124 255 23 91 21 335 -4 411 -74 229 -241 394 -551 549 -52 26 -108
53 -125 61 -16 7 -60 27 -98 43 -37 17 -73 31 -80 31 -6 0 -21 7 -31 15 -11 8
-26 15 -33 15 -7 0 -44 14 -81 31 -83 39 -106 49 -207 89 -44 18 -93 38 -110
45 -16 8 -66 28 -110 46 -44 18 -89 39 -100 46 -11 7 -26 13 -34 13 -8 0 -37
11 -65 24 -88 41 -145 66 -150 66 -6 0 -153 68 -266 123 -243 118 -497 319
-595 472 -127 196 -165 323 -165 549 0 152 13 224 63 356 44 118 136 263 223
355 141 149 372 271 589 312 105 20 524 29 579 13 28 -9 41 -9 50 0 8 8 11
140 12 448 l2 437 522 7 c287 3 524 9 527 12 3 3 294 4 647 2 512 -3 663 -7
751 -19z"/>
<path d="M3389 7368 c0 -2 -3 -132 -5 -290 l-5 -287 23 -5 c13 -3 67 -7 122
-11 54 -3 107 -10 117 -15 10 -6 44 -14 76 -19 32 -5 90 -18 128 -29 39 -11
88 -23 110 -27 22 -4 45 -11 51 -16 6 -5 31 -13 55 -18 59 -13 105 -31 161
-63 26 -16 52 -28 58 -28 24 0 196 -140 242 -197 102 -125 201 -314 251 -478
47 -151 69 -329 74 -602 5 -218 4 -222 -17 -233 -21 -11 -176 -2 -330 20 -36
5 -99 14 -140 19 -150 19 -350 78 -455 133 -10 6 -37 21 -60 32 -45 25 -130
81 -190 126 -48 36 -245 230 -245 241 0 5 -13 23 -28 41 -37 42 -152 235 -152
253 0 8 -4 16 -10 20 -5 3 -14 20 -19 38 -5 18 -21 64 -34 102 -32 90 -54 207
-61 319 -4 48 -9 92 -12 97 -7 13 -430 11 -495 -1 -30 -6 -81 -15 -114 -19
-65 -9 -89 -17 -205 -65 -146 -60 -277 -184 -349 -330 -32 -64 -46 -110 -61
-196 -27 -155 -26 -209 9 -379 12 -59 58 -147 118 -227 37 -50 180 -184 196
-184 5 0 23 -11 40 -24 32 -24 163 -87 292 -141 22 -9 54 -22 70 -30 17 -7 48
-21 70 -30 22 -10 47 -21 55 -25 8 -4 56 -24 105 -44 121 -50 274 -117 450
-196 22 -10 65 -28 95 -40 30 -12 78 -33 105 -45 28 -13 75 -33 105 -45 30
-12 78 -33 105 -45 28 -13 86 -38 130 -56 96 -41 277 -132 319 -161 296 -207
433 -391 518 -693 28 -96 30 -380 4 -470 -25 -85 -48 -147 -63 -170 -7 -11
-13 -25 -13 -32 0 -33 -125 -210 -198 -280 -90 -87 -249 -175 -392 -216 -119
-35 -514 -79 -571 -64 -13 4 -34 4 -46 1 l-23 -6 0 -275 0 -275 1048 5 c881 4
1063 8 1150 21 56 9 111 20 122 26 10 5 29 10 42 10 13 0 36 7 52 15 15 8 35
15 43 15 8 0 27 6 41 14 15 7 61 30 103 51 42 21 114 64 160 96 46 33 100 70
119 83 46 32 195 177 252 246 119 144 234 352 285 515 71 223 68 200 67 460 0
163 -5 253 -13 280 -7 22 -16 56 -21 75 -27 118 -113 298 -206 432 -80 115
-259 296 -389 393 -11 8 -42 32 -70 53 -27 20 -86 55 -130 77 -44 22 -81 47
-83 56 -2 11 12 24 39 38 175 92 389 286 535 486 64 88 154 248 154 274 0 11
4 22 9 26 5 3 12 20 16 38 4 17 13 50 20 72 39 117 47 190 43 387 -4 198 -7
214 -60 393 -71 239 -228 487 -406 642 -36 32 -74 65 -83 73 -42 37 -141 101
-221 143 -91 48 -281 117 -321 117 -14 0 -41 7 -60 15 -32 13 -179 15 -1117
15 -594 0 -1080 -1 -1081 -2z m1998 -103 c103 -8 215 -24 283 -42 30 -8 69
-18 85 -23 86 -22 354 -176 428 -246 116 -110 327 -389 327 -433 0 -9 7 -26
15 -37 20 -29 71 -188 80 -249 4 -27 13 -58 20 -68 22 -31 8 -420 -19 -517
-48 -177 -128 -334 -244 -479 -56 -69 -179 -199 -205 -216 -41 -28 -148 -118
-213 -181 -68 -65 -74 -74 -74 -111 0 -56 41 -113 131 -179 41 -30 87 -66 104
-79 16 -14 33 -25 37 -25 20 0 216 -184 323 -303 11 -12 55 -80 97 -152 83
-138 142 -291 159 -409 27 -178 20 -418 -15 -536 -46 -153 -70 -222 -97 -273
-57 -106 -84 -156 -99 -177 -10 -14 -21 -35 -24 -47 -4 -13 -11 -23 -15 -23
-4 0 -32 -34 -62 -75 -29 -41 -59 -75 -66 -75 -6 0 -16 -6 -20 -14 -19 -32
-117 -135 -125 -130 -5 3 -24 -8 -42 -24 -19 -16 -48 -38 -65 -48 -17 -10 -31
-22 -31 -26 0 -12 -318 -168 -344 -168 -14 0 -43 -6 -63 -14 -95 -36 -162 -39
-1165 -43 l-986 -5 -21 21 c-19 19 -21 33 -21 145 0 166 -1 165 150 177 183
16 315 38 413 70 50 16 95 33 101 38 6 4 29 13 51 19 22 7 58 26 80 42 22 17
55 37 73 45 17 8 32 19 32 24 0 5 6 11 14 13 16 3 136 115 136 127 0 4 17 26
39 48 59 64 150 241 187 363 60 202 56 450 -13 650 -33 97 -100 240 -112 240
-5 0 -17 14 -25 30 -9 17 -23 44 -32 61 -9 16 -40 55 -70 86 -30 30 -59 64
-64 74 -6 9 -28 30 -49 46 -22 15 -73 54 -115 86 -41 32 -99 71 -128 87 -92
51 -278 140 -291 140 -6 0 -27 9 -45 20 -18 11 -41 20 -52 20 -11 0 -20 4 -20
9 0 5 -24 16 -52 26 -29 9 -68 25 -87 36 -19 11 -60 29 -92 40 -33 11 -80 32
-106 46 -27 14 -93 43 -148 65 -55 22 -130 56 -167 74 -37 19 -75 34 -85 34
-10 0 -58 21 -108 45 -49 25 -93 45 -98 45 -4 0 -46 18 -93 40 -47 22 -87 40
-89 40 -6 0 -116 48 -137 60 -10 6 -26 10 -37 10 -10 0 -25 7 -32 17 -8 9 -34
26 -59 37 -55 26 -101 57 -160 110 -46 41 -120 128 -120 141 0 4 -13 25 -29
48 -16 23 -34 67 -41 97 -6 30 -16 69 -21 86 -6 21 -6 71 1 141 14 156 38 239
90 313 10 14 19 32 21 41 2 8 41 49 85 90 65 59 97 80 160 106 144 57 239 75
446 81 l186 5 25 -25 c25 -25 47 -83 47 -125 0 -12 5 -25 10 -28 6 -3 10 -21
10 -40 0 -67 107 -350 141 -370 5 -4 9 -14 9 -23 1 -27 92 -163 138 -205 12
-11 22 -25 22 -30 0 -10 108 -129 123 -136 4 -1 28 -24 52 -50 49 -52 206
-162 300 -209 165 -84 255 -116 395 -143 30 -6 71 -15 90 -19 70 -17 307 -43
395 -44 94 -1 155 18 155 49 0 7 9 17 21 20 12 4 30 26 41 52 19 43 20 60 15
307 -6 287 -21 393 -76 563 -32 100 -102 256 -119 267 -6 3 -27 39 -46 79 -21
42 -61 99 -94 134 -31 33 -74 79 -95 101 -21 23 -42 42 -48 42 -6 0 -29 16
-52 35 -43 36 -112 75 -133 75 -6 0 -23 10 -38 21 -32 25 -161 71 -261 93 -38
8 -86 20 -105 25 -56 16 -242 60 -280 66 -19 3 -48 16 -65 29 l-30 24 -3 129
c-3 140 5 169 49 190 19 9 245 15 885 21 472 5 864 7 871 6 7 -2 47 -6 90 -9z"/>
<path d="M3386 6502 c-5 -9 -2 -40 24 -217 10 -70 31 -138 75 -240 7 -16 16
-39 20 -50 16 -49 144 -222 222 -299 75 -75 263 -216 287 -216 5 0 34 -12 65
-27 31 -14 70 -30 86 -34 17 -4 44 -12 60 -18 29 -9 119 -28 252 -51 75 -13
109 -2 99 33 -8 25 -20 95 -37 212 -21 147 -27 180 -43 235 -39 136 -84 225
-163 322 -48 60 -132 138 -147 138 -4 0 -25 14 -48 30 -22 17 -48 30 -58 30
-9 0 -21 5 -27 11 -6 6 -26 14 -44 19 -19 4 -47 13 -64 18 -16 6 -59 16 -95
22 -36 6 -90 19 -120 29 -104 35 -333 70 -344 53z m359 -167 c83 -19 181 -45
220 -58 78 -24 218 -105 253 -145 42 -48 122 -164 122 -177 0 -7 9 -34 21 -60
51 -116 92 -352 69 -396 -11 -20 -17 -21 -82 -15 -38 4 -90 16 -115 27 -24 10
-52 19 -62 19 -28 0 -199 95 -275 154 -70 54 -189 178 -230 240 -93 139 -181
403 -145 433 15 12 48 21 64 17 6 -2 78 -19 160 -39z"/>
<path d="M1865 3698 c-3 -8 -1 -27 5 -42 5 -15 10 -39 10 -54 0 -50 65 -288
81 -297 5 -4 9 -14 9 -23 0 -17 6 -29 46 -102 63 -113 182 -250 306 -354 62
-51 199 -136 220 -136 9 0 19 -4 22 -9 11 -17 179 -70 256 -81 30 -4 93 -16
139 -25 114 -23 116 -21 96 109 -14 98 -17 108 -56 226 -36 108 -45 130 -57
142 -7 7 -12 17 -12 24 0 6 -34 62 -75 124 -83 124 -208 254 -304 319 -155
102 -358 164 -618 188 -50 5 -64 3 -68 -9z m385 -158 c168 -55 220 -84 337
-187 116 -101 240 -275 288 -403 10 -25 23 -58 30 -75 19 -46 27 -132 14 -156
-10 -19 -17 -21 -68 -15 -90 11 -230 60 -326 115 -33 19 -76 43 -96 53 -34 18
-43 25 -87 74 -10 11 -27 27 -38 35 -10 8 -45 46 -76 84 -31 39 -66 80 -77 93
-46 50 -141 284 -144 352 -2 61 15 72 92 64 36 -4 104 -19 151 -34z"/>
</g>
</svg>
