<?xml version="1.0" standalone="no"?>
<!DOCTYPE svg PUBLIC "-//W3C//DTD SVG 20010904//EN"
 "http://www.w3.org/TR/2001/REC-SVG-20010904/DTD/svg10.dtd">
<svg version="1.0" xmlns="http://www.w3.org/2000/svg"
 width="450.000000pt" height="450.000000pt" viewBox="0 0 450.000000 450.000000"
 preserveAspectRatio="xMidYMid meet">
<metadata>
Created by potrace 1.10, written by Peter Selinger 2001-2011
</metadata>
<g transform="translate(0.000000,450.000000) scale(0.100000,-0.100000)"
fill="#000000" stroke="none">
<path d="M1792 3861 c-200 -5 -244 -9 -252 -21 -5 -8 -11 -64 -12 -125 -1 -60
-3 -128 -4 -150 -2 -22 -3 -64 -3 -92 l-1 -53 -97 0 c-340 -1 -555 -145 -643
-432 -15 -49 -11 -202 7 -258 8 -25 15 -51 15 -57 1 -7 5 -13 10 -13 4 0 7 -3
6 -7 -4 -14 67 -117 102 -148 18 -17 43 -40 56 -51 25 -24 77 -62 109 -81 46
-27 144 -73 154 -73 6 0 11 -4 11 -10 0 -5 7 -10 15 -10 9 0 26 -7 38 -15 13
-8 48 -23 78 -34 29 -10 77 -29 104 -42 28 -13 55 -24 60 -25 13 -3 144 -58
220 -93 33 -16 78 -34 100 -41 22 -7 46 -19 53 -27 7 -7 20 -13 28 -13 8 0 14
-3 14 -8 0 -4 17 -16 37 -27 54 -28 127 -102 154 -155 19 -38 23 -61 23 -145
0 -84 -3 -109 -23 -155 -34 -79 -119 -150 -195 -164 -14 -3 -34 -7 -44 -10 -9
-3 -54 -7 -98 -11 -79 -5 -118 0 -110 14 8 13 -32 174 -60 241 -63 156 -208
314 -339 371 -16 8 -32 16 -35 19 -3 4 -30 14 -60 23 -81 25 -152 34 -313 41
-87 4 -100 3 -118 -15 -16 -16 -18 -29 -14 -87 8 -97 23 -176 50 -262 17 -54
79 -180 88 -180 6 0 8 -3 4 -6 -6 -6 56 -90 78 -106 6 -4 6 -8 2 -8 -11 0 19
-30 30 -30 4 0 23 -16 41 -36 18 -19 60 -50 94 -67 33 -18 70 -37 82 -44 11
-6 32 -14 46 -17 14 -3 49 -12 78 -20 29 -8 60 -12 69 -9 9 4 14 2 10 -3 -3
-6 9 -9 28 -9 l33 2 7 -196 c5 -139 11 -202 21 -218 l14 -22 592 5 c606 4 718
8 718 25 0 6 8 9 18 7 24 -3 112 23 112 34 0 5 4 7 9 4 5 -4 11 -1 13 4 2 6
10 12 18 13 8 2 22 7 30 12 8 5 33 19 56 31 49 26 68 41 148 114 91 84 120
118 191 226 72 109 104 187 143 344 30 120 -4 393 -56 453 -8 9 -12 17 -8 17
10 0 -49 109 -82 149 -56 70 -118 139 -158 174 l-42 37 62 64 c230 239 294
489 208 817 -14 55 -97 220 -126 253 -14 16 -26 33 -26 37 0 11 -181 191 -187
185 -2 -2 -16 7 -30 20 -14 13 -30 24 -35 24 -4 0 -25 10 -46 23 -49 31 -111
55 -202 79 -68 18 -112 20 -450 22 -206 2 -484 0 -618 -3z m958 -31 c222 -28
410 -128 553 -293 234 -272 287 -625 135 -907 -52 -95 -111 -173 -184 -239
l-58 -53 35 -26 c57 -44 156 -149 193 -204 91 -139 136 -265 144 -405 9 -181
-34 -343 -134 -508 -49 -81 -199 -245 -274 -300 -61 -45 -208 -118 -280 -139
-73 -22 -146 -25 -798 -31 l-552 -5 5 199 c3 109 3 206 -1 214 -3 10 -24 18
-52 22 -295 38 -474 160 -599 410 -49 97 -93 286 -93 401 l0 34 53 0 c87 0
268 -20 332 -36 188 -49 360 -207 445 -411 32 -76 60 -185 60 -235 0 -15 3
-29 8 -31 17 -10 251 13 299 29 141 46 234 201 220 367 -8 92 -43 166 -111
230 -89 86 -155 119 -571 292 -352 145 -443 193 -552 287 -235 203 -239 533
-9 751 108 103 261 151 464 145 l122 -3 0 222 0 223 258 2 c722 8 863 7 942
-2z"/>
<path d="M1988 3693 l-287 -3 -3 -143 c-2 -78 -3 -143 -3 -144 0 -1 35 -6 77
-12 111 -15 293 -68 363 -104 89 -47 156 -120 209 -229 57 -121 75 -204 80
-382 l5 -146 -47 0 c-67 0 -206 18 -282 37 -222 54 -433 247 -504 460 -20 61
-44 178 -46 223 0 12 -279 -1 -335 -16 -191 -48 -300 -209 -281 -414 7 -82 43
-154 107 -218 60 -60 110 -87 339 -185 553 -237 644 -278 715 -327 161 -112
245 -266 245 -450 0 -135 -53 -262 -146 -350 -93 -88 -207 -127 -396 -137
l-118 -6 0 -139 0 -139 558 4 c466 3 565 6 609 19 252 76 459 278 545 532 28
83 31 103 32 221 0 120 -2 137 -30 216 -37 104 -103 206 -187 289 -63 63 -164
140 -211 161 -14 7 -26 15 -26 18 0 3 21 19 48 36 75 47 201 173 254 254 72
111 101 209 101 351 0 132 -16 208 -67 315 -90 190 -265 335 -471 390 -67 18
-326 24 -847 18z m727 -37 c55 -3 108 -6 118 -7 9 0 17 -5 17 -10 0 -5 6 -9
13 -8 6 1 28 -4 47 -12 19 -7 38 -12 43 -11 4 1 7 -2 7 -7 0 -8 37 -24 53 -22
4 1 7 -3 7 -8 0 -4 19 -21 43 -36 135 -89 245 -261 274 -430 15 -84 9 -247
-12 -310 -50 -155 -148 -281 -307 -397 -37 -27 -68 -56 -68 -64 0 -15 57 -74
72 -74 19 0 105 -66 163 -125 69 -70 81 -85 115 -140 13 -22 28 -41 32 -43 4
-2 8 -11 8 -21 0 -9 4 -21 8 -27 38 -42 60 -295 35 -412 -17 -82 -85 -227
-133 -283 -33 -38 -40 -48 -40 -56 -1 -4 -38 -37 -83 -73 -45 -36 -83 -68 -85
-72 -2 -5 -9 -8 -16 -8 -7 0 -30 -12 -51 -26 -21 -14 -72 -35 -114 -47 -72
-20 -104 -21 -614 -25 l-538 -3 3 108 c2 66 7 107 13 106 8 -1 132 14 240 30
91 13 194 69 268 147 27 27 45 50 40 50 -4 0 -3 4 2 8 21 15 73 130 85 186 6
32 10 92 7 135 -11 172 -88 311 -238 433 -39 32 -249 138 -272 138 -9 0 -19 5
-22 11 -4 6 -13 8 -21 5 -8 -3 -17 1 -20 9 -4 8 -10 15 -14 15 -4 0 -29 10
-56 22 -27 12 -55 23 -63 24 -7 2 -32 12 -55 23 -114 55 -196 91 -209 91 -7 0
-17 3 -21 8 -4 4 -11 7 -14 8 -4 0 -42 17 -86 37 -43 20 -83 34 -89 30 -5 -3
-7 -2 -4 4 4 6 -12 19 -36 29 -57 26 -130 102 -162 169 -23 49 -26 67 -24 146
1 49 5 91 9 94 4 2 13 26 20 52 14 49 76 121 128 147 31 15 117 44 153 51 60
12 239 13 246 2 4 -7 15 -50 25 -97 22 -107 99 -266 163 -333 25 -26 45 -52
45 -57 0 -6 3 -10 8 -10 4 0 27 -18 52 -40 25 -22 50 -40 56 -40 6 0 19 -9 29
-20 9 -10 34 -25 54 -31 20 -7 45 -18 56 -25 11 -7 52 -18 90 -24 39 -7 79
-16 90 -21 33 -15 229 -18 249 -4 15 11 16 33 13 186 -4 145 -8 186 -27 243
-36 113 -95 217 -165 292 -32 34 -107 84 -116 78 -5 -3 -9 -1 -9 4 0 13 -78
41 -195 69 -82 20 -104 24 -130 28 -84 13 -78 2 -79 160 l-1 80 70 5 c87 6
785 3 920 -4z"/>
<path d="M1690 3308 c0 -23 3 -29 9 -19 8 12 4 51 -5 51 -2 0 -4 -15 -4 -32z"/>
<path d="M1700 3226 c0 -64 21 -141 59 -221 86 -178 264 -300 464 -321 l69 -7
-7 49 c-18 142 -30 195 -56 260 -48 116 -149 198 -277 224 -31 7 -66 16 -77
21 -19 8 -134 29 -162 29 -8 0 -13 -13 -13 -34z m158 -25 c43 -11 88 -21 102
-23 14 -2 48 -14 75 -27 28 -12 52 -23 55 -24 3 -1 22 -19 43 -41 70 -74 117
-207 117 -331 l0 -52 -89 22 c-121 30 -192 68 -272 146 -89 87 -159 229 -159
321 0 35 19 36 128 9z"/>
<path d="M3356 2673 c-6 -14 -5 -15 5 -6 7 7 10 15 7 18 -3 3 -9 -2 -12 -12z"/>
<path d="M3050 2326 c7 -7 13 -7 20 0 6 6 3 10 -10 10 -13 0 -16 -4 -10 -10z"/>
<path d="M944 1811 c11 -81 45 -181 83 -241 53 -81 152 -172 236 -214 68 -34
251 -80 270 -69 27 16 -37 227 -94 312 -46 68 -144 163 -197 190 -58 29 -161
58 -236 66 l-69 7 7 -51z m151 -2 c6 -4 13 -8 18 -8 24 -2 69 -17 115 -39 121
-57 248 -236 269 -379 9 -60 9 -63 -11 -63 -12 0 -42 7 -69 15 -26 8 -51 15
-55 15 -59 7 -157 66 -234 140 -68 66 -132 181 -147 265 -6 32 -11 61 -11 63
0 7 114 -2 125 -9z"/>
<path d="M990 1465 c0 -5 5 -17 10 -25 5 -8 10 -10 10 -5 0 6 -5 17 -10 25 -5
8 -10 11 -10 5z"/>
</g>
</svg>
