<?xml version="1.0" standalone="no"?>
<!DOCTYPE svg PUBLIC "-//W3C//DTD SVG 20010904//EN"
 "http://www.w3.org/TR/2001/REC-SVG-20010904/DTD/svg10.dtd">
<svg version="1.0" xmlns="http://www.w3.org/2000/svg"
 width="450.000000pt" height="450.000000pt" viewBox="0 0 450.000000 450.000000"
 preserveAspectRatio="xMidYMid meet">
<metadata>
Created by potrace 1.10, written by Peter Selinger 2001-2011
</metadata>
<g transform="translate(0.000000,450.000000) scale(0.100000,-0.100000)"
fill="#000000" stroke="none">
<path d="M1605 3863 c-82 -6 -85 -14 -85 -235 0 -105 -4 -189 -9 -193 -5 -3
-67 -7 -138 -9 -100 -4 -144 -10 -204 -29 -81 -26 -116 -42 -137 -64 -7 -7
-19 -13 -26 -13 -19 0 -122 -105 -161 -163 -61 -91 -79 -157 -79 -287 -1 -167
31 -246 153 -374 93 -97 226 -173 511 -291 63 -26 129 -53 147 -61 17 -8 34
-14 37 -14 3 0 29 -11 58 -24 29 -13 91 -40 138 -61 173 -75 264 -140 321
-230 34 -53 41 -86 40 -168 -3 -127 -65 -234 -164 -281 -54 -26 -188 -50 -246
-44 -41 4 -44 9 -69 120 -34 145 -123 303 -225 400 -51 48 -157 113 -222 136
-85 31 -213 51 -338 53 -148 3 -152 -1 -143 -136 6 -98 9 -115 40 -225 45
-158 150 -310 286 -409 89 -65 158 -96 276 -121 54 -12 106 -25 114 -29 12 -7
16 -43 20 -198 4 -163 7 -192 22 -207 17 -16 59 -17 645 -13 696 4 698 4 836
71 175 84 334 222 443 386 35 54 64 101 64 106 0 5 7 23 16 39 52 96 91 300
79 410 -26 230 -102 390 -263 552 l-84 85 33 36 c19 20 41 43 50 52 8 8 28 33
44 55 17 22 33 42 37 45 3 3 25 39 47 81 99 184 115 416 44 629 -26 79 -96
211 -141 270 -48 61 -156 166 -202 196 -25 16 -47 31 -50 34 -14 14 -163 82
-225 102 -69 22 -77 23 -655 24 -322 0 -607 -1 -635 -3z m1260 -52 c295 -80
522 -298 619 -595 94 -287 24 -565 -197 -790 l-88 -90 33 -25 c92 -68 205
-206 260 -316 67 -132 93 -315 69 -472 -29 -180 -133 -373 -283 -521 -128
-127 -241 -198 -383 -241 -91 -28 -119 -30 -793 -36 l-572 -5 4 204 c2 112 1
208 -3 213 -3 6 -44 16 -90 22 -178 26 -293 83 -416 206 -67 67 -89 97 -133
185 -65 132 -101 275 -102 409 l0 44 124 -7 c190 -10 277 -28 381 -80 135 -67
244 -183 313 -333 35 -77 72 -209 72 -259 0 -18 3 -35 8 -37 4 -2 61 -1 127 3
142 9 218 34 280 91 134 123 152 347 39 494 -39 51 -137 122 -229 166 -44 20
-190 83 -325 140 -434 180 -531 233 -648 350 -167 167 -184 425 -42 627 116
165 284 238 535 231 l125 -4 0 222 0 223 238 3 c130 2 408 3 617 2 356 -2 385
-3 460 -24z"/>
<path d="M1700 3555 c0 -74 -1 -138 -2 -142 -2 -5 31 -13 72 -20 41 -7 104
-19 140 -28 259 -66 357 -138 445 -329 49 -105 65 -184 71 -358 l5 -148 -58 0
c-71 0 -237 24 -305 45 -118 35 -198 84 -292 179 -50 50 -106 116 -124 148
-44 75 -79 181 -91 274 -5 42 -11 76 -13 78 -1 1 -73 -1 -159 -4 -202 -7 -254
-25 -350 -120 -82 -82 -104 -140 -104 -276 1 -78 5 -98 28 -146 25 -52 91
-126 145 -163 27 -20 456 -210 777 -344 254 -107 385 -234 440 -425 13 -45 16
-84 13 -162 -4 -91 -8 -109 -41 -178 -91 -193 -262 -285 -529 -286 l-88 0 0
-141 0 -140 553 4 c597 4 598 4 722 61 202 94 366 280 441 501 23 70 27 96 27
210 0 116 -3 139 -27 210 -15 44 -44 107 -64 140 -65 108 -241 273 -336 316
-14 7 -26 15 -26 19 0 3 29 25 64 49 85 56 203 180 254 267 63 108 84 188 85
324 0 89 -5 133 -22 195 -56 201 -190 364 -376 455 -142 71 -136 70 -737 70
l-538 0 0 -135z m1069 95 c141 -24 267 -88 368 -186 198 -193 260 -508 146
-750 -15 -33 -30 -61 -33 -64 -3 -3 -14 -18 -24 -34 -39 -62 -132 -155 -201
-202 -49 -33 -75 -62 -75 -82 0 -18 48 -72 63 -72 17 0 114 -78 173 -138 140
-142 204 -290 204 -472 0 -196 -75 -372 -219 -517 -80 -79 -107 -100 -181
-140 -150 -80 -178 -83 -767 -83 l-504 0 3 98 3 97 112 12 c255 26 398 114
489 297 46 95 64 216 44 313 -15 79 -47 163 -82 218 -36 57 -148 167 -194 190
-21 11 -41 23 -44 26 -6 6 -178 89 -186 89 -5 0 -107 43 -179 75 -16 7 -79 34
-140 60 -60 26 -138 60 -173 76 -35 16 -66 29 -68 29 -3 0 -30 11 -60 25 -30
14 -57 25 -59 25 -5 0 -55 34 -102 69 -90 68 -132 201 -108 345 17 103 110
199 228 237 57 18 95 23 191 23 l121 1 8 -40 c23 -115 32 -146 59 -210 16 -38
32 -72 36 -75 4 -3 14 -18 22 -35 8 -16 55 -71 106 -121 144 -144 272 -200
522 -229 115 -14 126 -14 153 2 17 10 32 28 36 41 10 41 -5 284 -22 362 -46
207 -170 367 -340 437 -42 17 -141 45 -204 58 -114 22 -147 31 -153 40 -10 13
-10 177 0 192 9 15 84 17 597 20 209 1 404 -2 434 -7z"/>
<path d="M1700 3226 c0 -63 21 -140 61 -221 87 -179 261 -300 462 -320 l68 -7
-6 53 c-12 104 -36 211 -60 264 -47 108 -153 190 -277 216 -29 6 -71 17 -93
24 -22 7 -66 16 -97 19 l-58 7 0 -35z m204 -41 c197 -47 277 -120 319 -295 27
-114 30 -159 12 -166 -23 -9 -138 22 -211 58 -69 33 -181 135 -210 191 -45 86
-53 107 -65 165 -11 54 -11 64 1 72 8 5 22 8 30 5 8 -2 64 -16 124 -30z"/>
<path d="M940 1843 c1 -49 34 -166 65 -229 60 -123 211 -255 330 -289 84 -24
195 -43 201 -33 16 25 -30 185 -78 273 -37 68 -123 163 -186 205 -57 38 -175
75 -264 84 -61 6 -68 5 -68 -11z m200 -54 c36 -10 85 -31 110 -47 60 -38 148
-136 188 -210 35 -67 64 -172 52 -192 -12 -19 -149 15 -223 55 -81 44 -190
152 -227 224 -33 66 -61 166 -53 188 7 17 51 12 153 -18z"/>
</g>
</svg>
