<?xml version="1.0" encoding="UTF-8"?>
<svg id="Layer_2" data-name="Layer 2" xmlns="http://www.w3.org/2000/svg" viewBox="0 0 182.55 47.62">
  <g id="Layer_1-2" data-name="Layer 1">
    <polygon points="0 1 36.51 1 36.51 10.13 9.13 10.13 9.13 37.52 0 37.52 0 1"/>
    <polygon points="45.64 46.64 9.13 46.64 9.13 37.52 36.51 37.52 36.51 10.13 45.64 10.13 45.64 46.64"/>
    <path d="M88.35,1.01l15.72,45.64h-12.05l-2.78-8.49h-17.35l-2.78,8.49h-12.06L72.77,1.01s15.58,0,15.58,0ZM86.63,29.62l-6.07-20.13-6.07,20.13h12.14Z"/>
    <polygon points="149.7 1 182.55 1 182.55 11.96 172.19 11.96 172.19 46.65 160.06 46.65 160.06 11.96 149.7 11.96 149.7 1"/>
    <path d="M125.6.02c6.12,0,14.27,1.97,19.31,8.43.5.64,1.11,1.55,1.55,2.3l-10.62,4.86-.28-.43c-2.12-3.14-6.26-4.71-9.96-4.71s-6.95,1.57-9.06,4.71c-1.47,2.18-2.48,5.28-2.48,9.11s1.01,6.94,2.48,9.12c2.11,3.14,5.36,4.74,9.06,4.74,4.17,0,8.26-1.23,10.39-4.37.72-1.07,1.33-2.58,1.71-4.16h-12.09v-9.45h23.74c.13,1.16.2,2.41.2,3.65,0,6.34-1.86,11.99-4.68,15.61-5.04,6.46-13.14,8.19-19.25,8.19s-13.72-2.2-18.75-8.67c-2.82-3.62-5.19-8.8-5.19-15.14s2.37-11.52,5.19-15.14c5.03-6.46,12.64-8.67,18.75-8.67"/>
  </g>
</svg>