<?xml version="1.0" encoding="UTF-8"?>
<svg id="Layer_2" data-name="Layer 2" xmlns="http://www.w3.org/2000/svg" xmlns:xlink="http://www.w3.org/1999/xlink" viewBox="0 0 72.36 45.67">
  <defs>
    <linearGradient id="linear-gradient" x1="37.54" y1="14.24" x2="49.98" y2="26.68" gradientUnits="userSpaceOnUse">
      <stop offset="0" stop-color="#9ecbaf"/>
      <stop offset=".02" stop-color="#92c6a6"/>
      <stop offset=".06" stop-color="#78ba92"/>
      <stop offset=".11" stop-color="#65b283"/>
      <stop offset=".16" stop-color="#59ad7a"/>
      <stop offset=".21" stop-color="#56ac78"/>
      <stop offset=".59" stop-color="#289652"/>
      <stop offset="1" stop-color="#0e5f2c"/>
    </linearGradient>
    <linearGradient id="linear-gradient-2" x1="27.49" y1=".22" x2="37.37" y2="17.33" gradientUnits="userSpaceOnUse">
      <stop offset="0" stop-color="#1770b8"/>
      <stop offset=".13" stop-color="#2b85c6"/>
      <stop offset=".29" stop-color="#3d97d3"/>
      <stop offset=".45" stop-color="#48a3db"/>
      <stop offset=".63" stop-color="#4ca7de"/>
      <stop offset=".9" stop-color="#85cae6"/>
      <stop offset="1" stop-color="#c0dff0"/>
    </linearGradient>
  </defs>
  <g id="Layer_1-2" data-name="Layer 1">
    <g>
      <g>
        <path d="M54.1,6.04c-10.27,11.63-28.49,20.6-28.49,20.6h-.46c3.24,1.23,7.01,1.94,11.03,1.94,12.13,0,21.95-6.4,21.95-14.29,0-3.07-1.5-5.92-4.03-8.25Z" fill="url(#linear-gradient)"/>
        <g>
          <path d="M39.25,16.22l1.86-1.05L39.59.17c-1.11-.11-2.25-.17-3.4-.17-5.45,0-10.43,1.29-14.27,3.43l17.33,12.79Z" fill="url(#linear-gradient-2)"/>
          <path d="M16.3,20.34c1.26,1.74,3.83,3.89,6,5.17l9.61-5.17h-15.61Z" fill="url(#linear-gradient-2)"/>
          <path d="M34.73,18.48l1.78-.97L17.57,6.72c-2.11,2.2-3.34,4.79-3.34,7.57,0,1.25.25,2.47.72,3.63l19.79.57Z" fill="url(#linear-gradient-2)"/>
          <polygon points="51.07 3.76 50.55 7.26 53.22 5.28 51.07 3.76" fill="url(#linear-gradient-2)"/>
          <path d="M43.31.77v12.44s5.88-2.98,6.67-10.04c-1.97-1.04-4.22-1.86-6.67-2.4Z" fill="url(#linear-gradient-2)"/>
        </g>
      </g>
      <g>
        <g>
          <path d="M0,37.09c0-.96.19-1.86.56-2.69.37-.83.91-1.56,1.6-2.18.69-.62,1.51-1.1,2.46-1.45.94-.34,1.98-.51,3.12-.51.46,0,.98.04,1.55.11.57.07,1.1.19,1.59.34.49.15.89.37,1.22.64.33.27.49.6.49,1,0,.34-.13.63-.4.87s-.6.37-.99.37c-.24,0-.58-.07-1.02-.21-.44-.14-.81-.25-1.13-.33-.32-.08-.75-.12-1.3-.12-.69,0-1.3.11-1.82.33s-.97.52-1.32.9-.62.83-.81,1.34c-.19.51-.28,1.06-.28,1.64,0,1.17.37,2.14,1.12,2.93.75.79,1.78,1.18,3.11,1.18.56,0,1-.05,1.32-.14.33-.09.72-.22,1.19-.39.46-.17.82-.25,1.07-.25.46,0,.82.14,1.09.43.26.29.4.56.4.83,0,.54-.28.98-.85,1.31-.56.33-1.24.56-2.02.69s-1.51.2-2.2.2c-1.49,0-2.83-.3-4-.9-1.18-.6-2.09-1.42-2.75-2.47-.66-1.05-.98-2.2-.98-3.46Z" fill="#166d34"/>
          <path d="M15.27,42.56v-8.34c0-.4.13-.71.38-.96.25-.24.62-.36,1.1-.36h4.7c.43,0,.76.1,1,.31s.35.45.35.74c0,.19-.05.36-.16.52-.11.16-.26.28-.46.38-.2.1-.44.15-.73.15h-3.34v2.21h3.11c.44,0,.79.1,1.03.3.24.2.36.45.36.75,0,.28-.12.52-.37.73-.25.21-.59.31-1.02.31h-3.11v2.3h3.51c.44,0,.77.1,1,.31.23.21.35.45.35.74,0,.16-.05.33-.16.5-.1.17-.26.3-.46.4-.2.1-.45.15-.73.15h-4.89c-.42,0-.77-.1-1.05-.31s-.42-.49-.42-.83Z" fill="#166d34"/>
          <path d="M28.41,42.92l-4.16-8.45c-.09-.19-.13-.38-.13-.56,0-.31.15-.57.44-.78s.63-.31,1.02-.31c.56,0,.98.25,1.29.74l2.94,6.31,2.94-6.31c.29-.49.72-.74,1.29-.74.4,0,.74.1,1.03.31.29.21.44.47.44.78,0,.19-.05.38-.14.56l-4.15,8.45c-.14.28-.32.49-.52.64-.21.15-.5.23-.88.23s-.67-.07-.88-.22c-.2-.15-.37-.37-.52-.65Z" fill="#166d34"/>
          <path d="M39.56,42.62v-7.62h-2.07c-.42,0-.74-.1-.96-.31s-.33-.45-.33-.74c0-.18.05-.35.16-.51.11-.16.26-.29.46-.39.2-.1.42-.15.67-.15h6.97c.25,0,.47.05.67.15.2.1.36.23.46.39s.16.33.16.51c0,.29-.11.53-.32.74-.22.21-.54.31-.97.31h-2.06v7.62c0,.38-.13.67-.39.87-.26.2-.6.31-1.02.31s-.77-.1-1.03-.31c-.26-.2-.39-.49-.39-.87Z" fill="#166d34"/>
          <path d="M47.39,42.56v-8.34c0-.4.13-.71.38-.96.25-.24.62-.36,1.1-.36h4.7c.43,0,.76.1,1,.31s.35.45.35.74c0,.19-.05.36-.16.52-.11.16-.26.28-.46.38-.2.1-.44.15-.73.15h-3.34v2.21h3.11c.44,0,.79.1,1.03.3.24.2.36.45.36.75,0,.28-.12.52-.37.73-.25.21-.59.31-1.02.31h-3.11v2.3h3.51c.44,0,.77.1,1,.31.23.21.35.45.35.74,0,.16-.05.33-.16.5-.1.17-.26.3-.46.4-.2.1-.45.15-.73.15h-4.89c-.42,0-.77-.1-1.05-.31s-.42-.49-.42-.83Z" fill="#166d34"/>
          <path d="M56.8,42.45l1.77-8.47c.06-.29.27-.56.62-.8.35-.24.76-.36,1.24-.36s.86.11,1.21.32c.35.21.58.47.69.77l2.24,6.01h.04l2.24-6.01c.11-.29.34-.55.69-.76.35-.22.75-.33,1.2-.33.47,0,.89.12,1.24.36.35.24.56.51.62.8l1.77,8.47c.01.06.02.15.02.26,0,.33-.13.6-.39.79-.26.2-.59.3-.98.3-.46,0-.81-.08-1.03-.25-.23-.17-.37-.44-.45-.81l-1.11-6.18h-.05l-2.27,6.36c-.22.58-.73.87-1.52.87s-1.31-.29-1.52-.87l-2.28-6.36h-.04l-1.12,6.18c-.07.37-.21.63-.44.8-.23.17-.57.26-1.03.26-.39,0-.71-.1-.98-.3-.26-.2-.39-.46-.39-.79,0-.11,0-.2.02-.26Z" fill="#166d34"/>
        </g>
        <rect x="5.71" y="44.37" width="4.23" height="1.3" rx=".65" ry=".65" fill="#166d34"/>
      </g>
    </g>
  </g>
</svg>