<?xml version="1.0" encoding="UTF-8"?> <svg xmlns="http://www.w3.org/2000/svg" id="Group_5124" data-name="Group 5124" width="219" height="40.668" viewBox="0 0 219 40.668"><path id="Path_1" data-name="Path 1" d="M164.828,435.176a2.183,2.183,0,0,0-2.03,1.675l-.966,4.545a1.314,1.314,0,0,0,1.319,1.675h.239a2.183,2.183,0,0,0,2.031-1.675l.966-4.545a1.315,1.315,0,0,0-1.319-1.675h-.239m-.846-3.913a4.657,4.657,0,0,1,3.842-2.305h8.609a2.817,2.817,0,0,1,2.826,3.588l-2.8,13.157a4.676,4.676,0,0,1-4.351,3.588H163.5a2.761,2.761,0,0,1-2.862-2.305l-.49,2.305H149.385l5.851-27.511H166Z" transform="translate(-104.178 -421.779)" fill="#ee1d23"></path><path id="Path_2" data-name="Path 2" d="M77.57,441.934a2.184,2.184,0,0,0-2.031,1.675l-.966,4.545a1.315,1.315,0,0,0,1.319,1.675h.239a2.183,2.183,0,0,0,2.031-1.675l.966-4.545a1.315,1.315,0,0,0-1.319-1.675H77.57m-8.726-6.219,8.844.007a2.743,2.743,0,0,1,2.627,2.3l.49-2.3H91.57l-4.322,20.333H76.483l.488-2.3a4.66,4.66,0,0,1-3.838,2.3H64.522a2.817,2.817,0,0,1-2.826-3.588l2.8-13.157A4.677,4.677,0,0,1,68.844,435.715Z" transform="translate(-61.615 -428.537)" fill="#ee1d23"></path><path id="Path_3" data-name="Path 3" d="M267.543,435.715H279.5l-2.644,12.439a1.314,1.314,0,0,0,1.319,1.675h.239a2.182,2.182,0,0,0,2.03-1.675l2.644-12.439h10.765l-7.119,33.491H275.974l2.415-11.363a1.408,1.408,0,0,0-1.413-1.794H266.809a2.816,2.816,0,0,1-2.825-3.588l3.559-16.746" transform="translate(-159.713 -428.537)" fill="#ee1d23"></path><path id="Path_4" data-name="Path 4" d="M323.661,435.715h11.961l-.491,2.313a4.672,4.672,0,0,1,3.843-2.312h7.414a2.817,2.817,0,0,1,2.826,3.588l-1.627,7.653H336.821l.712-3.349a1.315,1.315,0,0,0-1.319-1.675h-.239a2.184,2.184,0,0,0-2.031,1.675l-2.644,12.44H319.339l4.322-20.333" transform="translate(-186.596 -428.537)" fill="#ee1d23"></path><path id="Path_5" data-name="Path 5" d="M435.534,421.779h11.961l-2.949,13.876,5.013-6.7h9.55l-7.173,9.688L456,449.29H445.236l-1.961-7.655-1.627,7.655H429.685l5.848-27.511" transform="translate(-240.108 -421.779)" fill="#ee1d23"></path><path id="Path_6" data-name="Path 6" d="M132.418,443.788h1.794l-1.17,5.5H121.082a2.817,2.817,0,0,1-2.826-3.588l5.085-23.923H135.3l-4.3,20.215a1.408,1.408,0,0,0,1.413,1.794" transform="translate(-89.044 -421.779)" fill="#ee1d23"></path><path id="Path_7" data-name="Path 7" d="M390.334,441.934a2.184,2.184,0,0,0-2.03,1.675l-.966,4.545a1.315,1.315,0,0,0,1.319,1.675h.238a2.182,2.182,0,0,0,2.031-1.675l.966-4.545a1.315,1.315,0,0,0-1.319-1.675h-.239m-8.725-6.219,8.844.007a2.743,2.743,0,0,1,2.627,2.3l.49-2.3h10.765l-4.322,20.333H389.248l.488-2.3a4.659,4.659,0,0,1-3.837,2.3h-8.612a2.816,2.816,0,0,1-2.826-3.588l2.8-13.157A4.677,4.677,0,0,1,381.609,435.715Z" transform="translate(-213.288 -428.537)" fill="#ee1d23"></path><path id="Path_8" data-name="Path 8" d="M223.35,441.934a2.184,2.184,0,0,0-2.031,1.675l-.966,4.545a1.314,1.314,0,0,0,1.319,1.675h.239a2.181,2.181,0,0,0,2.03-1.675l.966-4.545a1.315,1.315,0,0,0-1.319-1.675h-.239m-8.726-6.219,8.845.007a2.743,2.743,0,0,1,2.627,2.3l.49-2.3H237.35l-4.322,20.333H222.263l.488-2.3a4.659,4.659,0,0,1-3.838,2.3H210.3a2.816,2.816,0,0,1-2.826-3.588l2.8-13.157A4.677,4.677,0,0,1,214.624,435.715Z" transform="translate(-132.31 -428.537)" fill="#ee1d23"></path></svg> 