<?xml version="1.0" encoding="UTF-8"?>
<svg xmlns="http://www.w3.org/2000/svg" id="Layer_1" version="1.1" viewBox="0 0 502 131">
  <!-- Generator: Adobe Illustrator 29.1.0, SVG Export Plug-In . SVG Version: 2.1.0 Build 142)  -->
  <g>
    <path d="M.9,25.7l6.9,6.9c0,.2-.2.3-.3.5C-5.7,57.5-1.2,88.2,18.4,107.8c11.9,11.9,28.1,18.5,44.8,18.5,3.1,0,6.3-.2,9.4-.7l2.9-.4-34.3-34.3,1.9-8.9,40.8,40.8.9-.3c1.7-.6,3.4-1.3,5.1-2.1l1.9-.9L26.9,54.4l1.9-8.9,69.9,69.9,1-.7c1.4-1,2.8-2.1,4-3.1l1.3-1.1L5.4,10.9.9,25.7Z"/>
    <path d="M107.8,18.5C96.5,7.2,81.6.7,65.7,0c-15.8-.6-31.1,4.6-43.2,14.8l-1.2,1.1,95.9,95.9,1.1-1.2c1.1-1.3,2.1-2.7,3.1-4l.7-1-62.5-62.5,1.9-8.9,57.9,57.9.9-1.9c.8-1.7,1.5-3.4,2.1-5.1l.3-.9-19.4-19.4,1.9-8.9,19.9,19.9.4-2.9c3-19.8-3.7-40-17.8-54.2Z"/>
  </g>
  <g>
    <path d="M169.8,123.9l-3,6.8h-1.4l10.8-24.1h1l10.8,24.1h-1.4l-3-6.8h-13.9ZM183.1,122.7l-6.4-14.4-6.4,14.4h12.8Z"/>
    <path d="M208.8,106.6v22.9h14.9v1.2h-16.1v-24.1h1.3Z"/>
    <path d="M242.7,121.4v-14.8h1.3v14.7c0,5.6,2.5,8.4,8.2,8.4s8.2-2.8,8.2-8.4v-14.7h1.3v14.8c0,6.2-3,9.5-9.5,9.5s-9.5-3.3-9.5-9.5ZM248.2,102.6c0-.7.6-1.3,1.3-1.3s1.3.5,1.3,1.3-.5,1.3-1.3,1.3-1.3-.5-1.3-1.3ZM253.5,102.6c0-.7.6-1.3,1.3-1.3s1.3.5,1.3,1.3-.5,1.3-1.3,1.3-1.3-.5-1.3-1.3Z"/>
    <path d="M306.6,130.7h-1.3v-21l-10.1,16.4h-.6l-10.1-16.4v21h-1.3v-24.1h.9l10.8,17.7,10.8-17.7h.9v24.1Z"/>
    <path d="M328.1,103.1c0-.7.6-1.3,1.3-1.3s1.3.5,1.3,1.3-.5,1.3-1.3,1.3-1.3-.5-1.3-1.3ZM330,106.6v24.1h-1.3v-24.1h1.3Z"/>
    <path d="M371.7,130.7h-.9l-17.6-21.7v21.7h-1.3v-24.1h.9l17.6,21.7v-21.7h1.3v24.1Z"/>
    <path d="M401.7,130.7h-1.3v-8.3l-9.5-15.7h1.5l8.6,14.4,8.6-14.4h1.6l-9.5,15.7v8.3Z"/>
    <path d="M429.9,121.4v-14.8h1.3v14.7c0,5.6,2.5,8.4,8.2,8.4s8.2-2.8,8.2-8.4v-14.7h1.3v14.8c0,6.2-3,9.5-9.5,9.5s-9.5-3.3-9.5-9.5Z"/>
    <path d="M493.9,130.7h-1.3v-21l-10.1,16.4h-.6l-10.1-16.4v21h-1.3v-24.1h.9l10.8,17.7,10.8-17.7h.9v24.1Z"/>
  </g>
  <g>
    <polygon points="211.9 41.8 185.8 41.8 185.8 9.2 167.2 9.2 167.2 91.8 185.8 91.8 185.8 59.2 211.9 59.2 211.9 91.8 230.1 91.8 230.1 9.2 211.9 9.2 211.9 41.8"/>
    <polygon points="279.5 46.3 284 57.7 267 57.7 276.9 32.4 284.9 11.8 284 9.2 266.7 9.2 234.8 91.8 253.5 91.8 260.2 75.5 290.8 75.5 296.6 91.8 315.9 91.8 288.9 22.1 279.5 46.3"/>
    <path d="M359.1,50.4c-.5-.4-1.4-1.2-2.5-2.2-1.8-1.6-4.3-3.9-7.6-6.6-2.8-2.5-5.1-4.5-6.9-6.1-1.6-1.5-2.8-2.6-3.5-3.3-.5-.9-.8-1.7-.8-2.5s.4-1.7,1.2-2.4h.2c.6-.8,1.8-1.1,3.5-1.1,3.3,0,6.7,2.4,10.1,7.1l1,1.3,13.3-11.6-1-1.1c-2.1-2.3-4.1-4.3-6-6-1.9-1.7-3.9-3-5.6-3.8-3.6-2-7.5-3-11.7-3-6.1,0-11.4,2-15.8,6.1-4.3,4.1-6.5,9.1-6.5,14.8s1.4,7.8,4.1,11.7c1.3,1.9,3.3,4.2,6,6.8,2.6,2.6,6,5.6,10.1,9,2.1,1.7,3.8,3.3,5.2,4.5,1.3,1.2,2.3,2.2,3,3,.9,1.5,1.4,3,1.4,4.4s-.6,2.6-1.9,3.8c-1.5,1.2-3.3,1.8-5.4,1.8-4,0-7.7-3.2-11-9.4l-.7-1.4-14.9,8.9.6,1.2c5.8,11.6,14.4,17.4,25.7,17.4s13.4-2.2,17.9-6.4c4.6-4.3,6.9-9.9,6.9-16.6s-2.8-13-8.2-18.3h-.1Z"/>
    <polygon points="413 46.3 417.6 57.7 400.5 57.7 410.5 32.4 418.5 11.8 417.5 9.2 400.2 9.2 368.3 91.8 387.1 91.8 393.8 75.5 424.3 75.5 430.2 91.8 449.4 91.8 422.4 22.1 413 46.3"/>
    <polygon points="472.6 74.3 472.6 9.2 454.9 9.2 454.9 91.8 502 91.8 502 74.3 472.6 74.3"/>
  </g>
</svg>
