<?xml version="1.0" encoding="UTF-8"?>
<svg xmlns="http://www.w3.org/2000/svg" xmlns:xlink="http://www.w3.org/1999/xlink" width="194px" height="55px" viewBox="0 0 195 55" version="1.1">
<g id="surface1">
<path style=" stroke:none;fill-rule:nonzero;fill:rgb(93.333333%,20%,25.882353%);fill-opacity:1;" d="M 0 27.578125 L 0 55 L 97.246094 55 C 150.726562 55 194.601562 54.953125 194.746094 54.902344 C 194.984375 54.808594 195 52.265625 195 27.578125 C 195 2.894531 194.984375 0.351562 194.746094 0.253906 C 194.601562 0.207031 150.726562 0.160156 97.246094 0.160156 L 0 0.160156 Z M 189.851562 27.53125 L 189.804688 49.964844 L 97.386719 50.011719 L 4.953125 50.042969 L 4.953125 5.117188 L 189.886719 5.117188 Z M 189.851562 27.53125 "/>
<path style=" stroke:none;fill-rule:nonzero;fill:rgb(93.333333%,20%,25.882353%);fill-opacity:1;" d="M 46.671875 20.035156 L 46.671875 25.101562 L 51.453125 25.101562 L 51.5 22.574219 L 51.546875 20.066406 L 57.910156 20.015625 L 64.253906 19.984375 L 64.253906 15.1875 L 59.1875 15.1875 C 56.390625 15.1875 52.425781 15.140625 50.394531 15.078125 L 46.671875 14.980469 Z M 46.671875 20.035156 "/>
<path style=" stroke:none;fill-rule:nonzero;fill:rgb(93.333333%,20%,25.882353%);fill-opacity:1;" d="M 102.136719 20.035156 L 102.136719 25.101562 L 106.929688 25.101562 L 106.929688 19.984375 L 119.71875 19.984375 L 119.71875 15.1875 L 114.652344 15.1875 C 111.851562 15.1875 107.890625 15.140625 105.859375 15.078125 L 102.136719 14.980469 Z M 102.136719 20.035156 "/>
<path style=" stroke:none;fill-rule:nonzero;fill:rgb(93.333333%,20%,25.882353%);fill-opacity:1;" d="M 162.234375 20.035156 L 162.234375 25.101562 L 167.027344 25.101562 L 167.027344 19.984375 L 179.816406 19.984375 L 179.816406 15.1875 L 174.75 15.1875 C 171.953125 15.1875 167.988281 15.140625 165.957031 15.078125 L 162.234375 14.980469 Z M 162.234375 20.035156 "/>
<path style=" stroke:none;fill-rule:nonzero;fill:rgb(93.333333%,20%,25.882353%);fill-opacity:1;" d="M 14.863281 21.34375 L 14.863281 27.5 L 19.820312 27.5 L 19.820312 15.1875 L 14.863281 15.1875 Z M 14.863281 21.34375 "/>
<path style=" stroke:none;fill-rule:nonzero;fill:rgb(93.333333%,20%,25.882353%);fill-opacity:1;" d="M 30.082031 15.378906 C 29.855469 15.667969 15.023438 39.828125 15.023438 39.90625 C 15.023438 39.9375 16.222656 39.953125 17.695312 39.9375 L 20.363281 39.890625 L 23.320312 35.0625 C 24.964844 32.410156 26.339844 30.203125 26.371094 30.152344 C 26.421875 30.105469 27.828125 32.296875 29.488281 35.015625 L 32.527344 39.972656 L 37.914062 39.972656 L 37.59375 39.441406 C 37.417969 39.171875 35.453125 35.972656 33.230469 32.375 C 31.023438 28.761719 29.203125 25.742188 29.203125 25.660156 C 29.203125 25.566406 30.609375 23.214844 32.335938 20.402344 C 34.078125 17.601562 35.484375 15.285156 35.484375 15.253906 C 35.484375 15.222656 34.300781 15.1875 32.863281 15.1875 C 30.960938 15.1875 30.210938 15.238281 30.082031 15.378906 Z M 30.082031 15.378906 "/>
<path style=" stroke:none;fill-rule:nonzero;fill:rgb(93.333333%,20%,25.882353%);fill-opacity:1;" d="M 73.046875 17.585938 L 73.046875 19.984375 L 80.71875 19.984375 L 80.71875 39.972656 L 85.671875 39.972656 L 85.671875 19.984375 L 93.34375 19.984375 L 93.34375 15.1875 L 73.046875 15.1875 Z M 73.046875 17.585938 "/>
<path style=" stroke:none;fill-rule:nonzero;fill:rgb(93.333333%,20%,25.882353%);fill-opacity:1;" d="M 130.746094 27.578125 L 130.746094 39.972656 L 137.125 39.972656 C 144.09375 39.972656 145.53125 39.84375 147.144531 39.074219 C 149.894531 37.78125 151.554688 34.519531 151.078125 31.386719 C 150.757812 29.308594 149.734375 27.820312 148.089844 26.972656 L 147.320312 26.589844 L 148.054688 26.15625 C 150.375 24.8125 151.078125 21.183594 149.558594 18.339844 C 148.792969 16.882812 147.386719 15.890625 145.417969 15.429688 C 144.621094 15.238281 143.054688 15.1875 137.585938 15.1875 L 130.746094 15.1875 Z M 144.09375 19.824219 C 145.050781 20.304688 145.449219 20.992188 145.449219 22.144531 C 145.449219 23.277344 145.035156 23.984375 144.078125 24.460938 C 143.308594 24.847656 143.179688 24.863281 139.503906 24.910156 L 135.699219 24.957031 L 135.699219 19.3125 L 139.503906 19.363281 C 143.164062 19.425781 143.324219 19.441406 144.09375 19.824219 Z M 144.09375 29.324219 C 145.402344 29.882812 145.929688 30.730469 145.929688 32.25 C 145.914062 33.863281 145.066406 35.109375 143.722656 35.496094 C 143.40625 35.574219 141.488281 35.652344 139.425781 35.652344 L 135.699219 35.652344 L 135.699219 28.90625 L 139.585938 28.972656 C 142.796875 29.035156 143.566406 29.082031 144.09375 29.324219 Z M 144.09375 29.324219 "/>
<path style=" stroke:none;fill-rule:nonzero;fill:rgb(93.333333%,20%,25.882353%);fill-opacity:1;" d="M 51.628906 27.46875 L 51.628906 29.851562 L 54.296875 29.945312 C 55.75 30.011719 58.597656 30.058594 60.609375 30.058594 L 64.253906 30.058594 L 64.253906 25.101562 L 51.628906 25.101562 Z M 51.628906 27.46875 "/>
<path style=" stroke:none;fill-rule:nonzero;fill:rgb(93.333333%,20%,25.882353%);fill-opacity:1;" d="M 107.089844 27.5 L 107.089844 29.898438 L 119.71875 29.898438 L 119.71875 25.101562 L 107.089844 25.101562 Z M 107.089844 27.5 "/>
<path style=" stroke:none;fill-rule:nonzero;fill:rgb(93.333333%,20%,25.882353%);fill-opacity:1;" d="M 167.1875 27.5 L 167.1875 29.898438 L 179.816406 29.898438 L 179.816406 25.101562 L 167.1875 25.101562 Z M 167.1875 27.5 "/>
<path style=" stroke:none;fill-rule:nonzero;fill:rgb(93.333333%,20%,25.882353%);fill-opacity:1;" d="M 46.671875 35.015625 L 46.671875 39.972656 L 64.253906 39.972656 L 64.253906 35.175781 L 57.910156 35.140625 L 51.546875 35.09375 L 51.5 32.566406 L 51.453125 30.058594 L 46.671875 30.058594 Z M 46.671875 35.015625 "/>
<path style=" stroke:none;fill-rule:nonzero;fill:rgb(93.333333%,20%,25.882353%);fill-opacity:1;" d="M 102.136719 35.015625 L 102.136719 39.972656 L 119.71875 39.972656 L 119.71875 35.175781 L 113.371094 35.140625 L 107.011719 35.09375 L 106.960938 32.566406 L 106.914062 30.058594 L 102.136719 30.058594 Z M 102.136719 35.015625 "/>
<path style=" stroke:none;fill-rule:nonzero;fill:rgb(93.333333%,20%,25.882353%);fill-opacity:1;" d="M 162.234375 35.015625 L 162.234375 39.972656 L 179.816406 39.972656 L 179.816406 35.175781 L 173.46875 35.140625 L 167.109375 35.09375 L 167.0625 32.566406 L 167.011719 30.058594 L 162.234375 30.058594 Z M 162.234375 35.015625 "/>
</g>
</svg>
