<svg xmlns="http://www.w3.org/2000/svg" viewBox="0 0 146 45.3"><path d="M23.3 42c-2.4-1.9-4.6-4.1-8.4-7.6-1.9 2-4.5 3.1-7.3 3C2 37.4 0 33.8 0 31c0-3.9 3.1-7 7-7h.2c2.1 0 4.2.7 5.9 1.9.5-1 .9-2.1 1.5-3.1-5.3-1.8-8.2-5.7-8.2-10.7 0-3.9 2-7.5 5.4-9.5l3.1 4.6c-1.9 1-3 2.9-2.9 5 0 1 .3 4.4 4.7 5.7C20.4 9 24.5 0 32.9 0c3.9 0 7.5 2.7 7.5 8-.2 4.8-2.7 9.3-6.7 12-3.8 2.7-8.4 4.1-13 3.9-.7 2.1-1.6 4.2-2.7 6.2 2.3 2.2 6.5 5.8 8.5 7.6 2 1.6 3 2 4.2 2 1.8 0 3.5-1 5.5-2.9l3.8 4.3c-3 2.8-6.4 4.3-9.2 4.3-2.7-.1-5-1.4-7.5-3.4zM5.1 30.6c0 1 .8 1.8 1.7 1.8h.3c1.4-.1 2.6-.8 3.3-2C9 29.3 8 28.6 7.1 28.6c-1.1.1-2 .9-2 2zm17.8-12.2c2.6-.2 5.2-1.2 7.2-2.9 2.1-1.7 3.5-4.1 3.8-6.8 0-1.4-.6-2.2-2-2.2-2.8.1-5.8 4.7-9 11.9zM129 31.7s-2.8 3.4-6.5 3.4c-3 0-4.5-2.3-4.7-5-2.5 3-5.3 5-8.6 5-4.3 0-6.1-3.2-3.1-10.6l.6-1.6c.7-1.3 1.1-2.7 1.5-4.2 0-.6-.4-.9-1-.9-1 0-2.9.9-4.7 2.9l-5.6 13.8h-6.6c1.4-3.4 3.3-8.1 4.7-11.6.6-1.3 1.1-2.7 1.5-4.2 0-.5-.5-.8-1.1-.8-.9 0-2.9.9-4.6 2.9l-5.5 13.7h-6.6l1.1-2.8C77.6 33.6 75 35 72.5 35c-3.8 0-6.7-3.2-6.3-7.8.2-2.1.8-2.5 1.8-2.5 1.1 0 3.4-.1 4.8-3.8.3-.7.5-1.4.5-2.1s-.3-1-.9-1c-1.1 0-2.8.9-4.7 2.9l-5.5 13.8h-6.6l1.8-4.5c-1.5.8-3.3 1.2-5 1.1-2.1 2.6-5.3 4.1-8.7 4.1-5.1 0-7.9-3.1-7.9-7.8 0-5.5 4.1-14.6 12.8-14.6 5 0 7.7 2.9 7.7 7.7-.1 2.6-.7 5.2-1.9 7.5 2-.4 3.9-1.8 5.5-4.3L67.5 5h6.6l-4.2 10.3s3.1-2.7 6.8-2.6c2.6 0 4 1.5 4 3.4 0 2.2-1.7 5.4-1.9 5.9-1.5 2.8-3.8 4.7-6.4 4.9 0 1.7 0 4.3 2.2 4.1 2.2-.1 5.8-2.9 8.5-7.4l4.3-10.5 5.7 2.2c.2-.2 3.3-2.7 6.7-2.7 2.6 0 4 1.5 4 3.5.9-.9 4.2-3.5 7.7-3.5 2.6 0 4 1.5 4 3.5-.1 1.6-.6 3.2-1.2 4.7l-2 4.9c-1.9 4.7-1.1 5.3-.4 5.3 1.6 0 4.3-2.8 7.3-7.6 1.6-5.1 4.9-10.9 10.2-10.9 2.2-.1 4.2 1.3 4.9 3.3L142 13l-5.1 12.6c-1.9 4.7-1.1 5.3-.4 5.3 1.7 0 4.5-2.8 7.4-7.9 1 .1 1.9.7 2.3 1.7C143.1 30.3 139 35 134 35c-4.5.1-5-3.3-5-3.3zm-86.8-3.2c0 1.5.6 2.3 1.6 2.3s2-.8 2.9-2c-.6-.6-1-1.4-.9-2.3 0-1.8 1.5-3.3 3.4-3.3h.2c.6-1.3.9-2.7.9-4.2 0-1.6-.7-2.2-1.6-2.2-3.3 0-6.5 8.6-6.5 11.7zm82-.3c0 1.1.5 1.6 1.4 1.6 2.2 0 4.1-2.9 4.1-3l2.7-6.6s-.1-2.3-1.9-2.3c-3.3 0-6.3 7.7-6.3 10.3z"/></svg>