<?xml version="1.0" encoding="utf-8"?>
<!-- Generator: Adobe Illustrator 25.2.1, SVG Export Plug-In . SVG Version: 6.00 Build 0)  -->
<svg version="1.1" id="Layer_1" xmlns="http://www.w3.org/2000/svg" xmlns:xlink="http://www.w3.org/1999/xlink" x="0px" y="0px"
	 viewBox="0 0 132.5 115.1" style="enable-background:new 0 0 132.5 115.1;" xml:space="preserve">
<style type="text/css">
	.st0{fill:#231F20;}
	.st1{fill:#00A8B4;}
	.st2{fill:#008E9B;}
</style>
<g>
	<g>
		<g>
			<path class="st0" d="M42.9,102.1c0,0.2,0,0.4,0,0.6c-0.1-0.2-0.3-0.3-0.4-0.4l-6.3-5.6h-1.6v9h2v-5.5c0-0.2,0-0.4,0-0.6
				c0.1,0.1,0.3,0.3,0.4,0.4l6.4,5.7h1.5v-9h-2C42.9,96.7,42.9,102.1,42.9,102.1z"/>
			<path class="st0" d="M70.5,96.7l-5.2,9h2.2l1.1-2h5.5l1.1,2h2.4l-5.3-9H70.5z M73.2,102h-3.6l1.8-3.2L73.2,102z"/>
			<path class="st0" d="M86,96.7l-5.2,9H83l1.1-2h5.5l1.1,2h2.4l-5.3-9H86z M88.6,102h-3.6l1.8-3.2L88.6,102z"/>
			<polygon class="st0" points="95.3,96.7 95.3,98.5 99.2,98.5 99.2,105.7 101.4,105.7 101.4,98.5 105.4,98.5 105.4,96.7 			"/>
			<rect x="26.2" y="96.7" class="st0" width="2.1" height="1.9"/>
			<rect x="26.2" y="98.9" class="st0" width="2.1" height="6.8"/>
			<path class="st0" d="M58.5,100.2h-5.1v-1.6h5.4v0.4c0,0.1,0.1,0.3,0.3,0.3h1.4c0.2,0,0.3-0.2,0.3-0.3c0-0.8-0.2-1.3-0.5-1.6
				c-0.4-0.3-0.9-0.5-1.8-0.5h-4.7c-0.9,0-1.5,0.2-1.8,0.5c-0.3,0.3-0.5,0.9-0.5,1.8v0.8c0,0.9,0.2,1.4,0.5,1.8
				c0.3,0.3,0.9,0.5,1.8,0.5h5.2v1.8H53v-0.6c0-0.1-0.1-0.3-0.3-0.3h-1.5c-0.1,0-0.3,0.1-0.3,0.3v0.2c0,0.9,0.2,1.4,0.5,1.8
				c0.3,0.3,0.9,0.5,1.8,0.5h1.5v1.3h2v-1.3h1.6c0.9,0,1.5-0.2,1.8-0.5c0.3-0.3,0.5-0.9,0.5-1.8v-1c0-0.9-0.2-1.4-0.5-1.8
				C59.9,100.3,59.3,100.2,58.5,100.2z"/>
		</g>
		<g>
			<polygon class="st0" points="22.1,82.3 13.7,71 9.6,71 9.6,91.6 14.3,91.6 14.3,79.4 22.1,90.1 29.5,79.4 29.5,91.6 34.4,91.6 
				34.4,71 30,71 			"/>
			<rect x="40.5" y="71" class="st0" width="5.2" height="4.1"/>
			<rect x="40.5" y="76.5" class="st0" width="5.2" height="15.1"/>
			<polygon class="st0" points="83,83.6 95.6,83.6 95.6,79 83,79 83,75.6 95.6,75.6 95.6,71 78.3,71 78.3,71.7 78.3,75.6 78.3,79 
				78.3,83.6 78.3,86.9 78.3,91.6 78.3,91.6 83,91.6 83,91.6 95.7,91.6 95.7,86.9 83,86.9 			"/>
			<path class="st0" d="M67.8,78.7H57.3v-3h11v0.8c0,0.3,0.2,0.5,0.5,0.5h3.7c0.3,0,0.5-0.2,0.5-0.5v-0.4c0-1.8-0.4-3.1-1.3-3.9
				c-0.8-0.8-2.2-1.2-4.1-1.2h-9.9c-2,0-3.4,0.4-4.2,1.2c-0.8,0.8-1.2,2.2-1.2,4.2V78c0,2,0.4,3.4,1.2,4.2c0.8,0.8,2.2,1.2,4.2,1.2
				h10.6v3.4H56.6v-1c0-0.3-0.2-0.5-0.5-0.5h-3.9c-0.3,0-0.5,0.2-0.5,0.5v0.3c0,2,0.4,3.4,1.2,4.2c0.8,0.8,2.2,1.2,4.2,1.2h10.8
				c2,0,3.3-0.4,4.2-1.2c0.8-0.8,1.2-2.2,1.2-4.2v-2.1c0-2-0.4-3.4-1.2-4.2C71.2,79.1,69.8,78.7,67.8,78.7z"/>
			<polygon class="st0" points="109.7,80.9 121.4,71 113.3,71 106.3,77.7 106.3,71 101.1,71 101.1,91.6 106.3,91.6 106.3,84.5 
				114.1,91.6 123,91.6 			"/>
		</g>
	</g>
	<g>
		<path class="st1" d="M53.3,21.8h-0.9h-4.7h-3.5h-6.3v24.4l9.8,6.5v-21h4.7v24.2l12.1,8V31C59.1,30.5,54.8,26.8,53.3,21.8z"/>
		<polygon class="st2" points="47.6,35 37.8,31.6 37.8,31.6 47.6,31.6 		"/>
		<path class="st1" d="M87.5,21.8h-3.5h-4.7h-0.9c-1.5,4.9-5.8,8.6-11.1,9.2v32.8l12.1-8V31.6h4.7v21l9.8-6.5V21.8H87.5z"/>
		<polygon class="st2" points="83.9,35 93.7,31.6 93.7,31.6 83.9,31.6 		"/>
		<path class="st1" d="M75.7,18c0,5.5-4.4,9.9-9.9,9.9c-5.5,0-9.9-4.4-9.9-9.9s4.4-9.9,9.9-9.9C71.2,8.1,75.7,12.5,75.7,18z"/>
	</g>
</g>
</svg>
