<svg width="129" height="24" viewBox="0 0 129 24" fill="none" xmlns="http://www.w3.org/2000/svg">
<path d="M128.611 7.35397V4.44023H112.399V7.35397H119.064V24H121.947V7.35397H128.611ZM95.3066 24H109.473V21.1173H98.1895V15.6927H109.473V12.8097H98.1895V7.32314H109.473V4.40915H95.3046V24H95.3066ZM84.1948 15.8476L92.3784 4.44023H88.7827L82.9241 12.6548L77.0344 4.44023H73.4695L81.3122 15.3826V24H84.1948V15.8476ZM76.8749 24L65.5295 4.44023L54.1843 24H57.5351L65.5295 10.195L73.5244 24H76.8749ZM48.7562 24H51.6391V4.40915H48.7557V12.8097H37.7194V4.40915H34.8372V24H37.7201V15.6927H48.7565V24H48.7562ZM24.9723 24H27.855V4.40915H24.9723V24ZM24.9762 2.82858H27.8427V0H24.9755V2.82858H24.9762ZM15.1064 24H17.9891V4.40915H0.0717773V24H2.95467V8.99694L15.1059 24H15.1064ZM15.1064 19.3814L5.31097 7.32314H15.1064V19.3814Z" fill="white"/>
</svg>
