<svg width="101" height="24" viewBox="0 0 101 24" fill="none" xmlns="http://www.w3.org/2000/svg">
<path d="M2.06334 14.063C2.65131 14.6825 3.35113 15.1853 4.1259 15.5447C4.85701 15.9121 5.66125 16.1106 6.47932 16.1256C7.1909 16.1556 7.89341 15.9571 8.484 15.559C9.00784 15.1814 9.26942 14.7796 9.26875 14.3536C9.27597 14.1496 9.23657 13.9468 9.15354 13.7604C9.0705 13.574 8.94601 13.4091 8.78958 13.2781C8.3968 12.9762 7.93009 12.7856 7.4383 12.7262L5.72434 12.4065C3.82535 12.0583 2.50808 11.5694 1.77262 10.9399C1.03716 10.3104 0.669311 9.46289 0.669044 8.3974C0.666285 7.78085 0.798847 7.17119 1.05732 6.61143C1.3158 6.05168 1.69391 5.55546 2.16502 5.15774C3.16207 4.25739 4.50348 3.80694 6.18924 3.80641C7.14824 3.80175 8.10115 3.959 9.00781 4.27152C9.99335 4.63206 10.9225 5.13103 11.7675 5.75343L10.0535 7.87462C9.47312 7.35283 8.80389 6.93931 8.07757 6.65369C7.50192 6.43352 6.89224 6.31556 6.27601 6.30512C5.63751 6.28949 5.00778 6.45597 4.46042 6.7851C4.22697 6.91054 4.032 7.09708 3.89639 7.32477C3.76078 7.55246 3.68963 7.81273 3.69053 8.07774C3.69053 8.85271 4.30071 9.34668 5.52103 9.55964L8.5716 10.1405C11.0507 10.6054 12.2903 11.8548 12.2904 13.8889C12.286 14.4539 12.1674 15.0122 11.9419 15.5303C11.6904 16.1103 11.3249 16.6339 10.8672 17.07C10.3303 17.577 9.69132 17.9634 8.99295 18.2032C8.13851 18.4988 7.23865 18.6416 6.33467 18.6251C4.04833 18.6251 1.93677 17.8018 0 16.1553L2.06334 14.063Z" fill="white"/>
<path d="M14.8181 9.53054V0H17.8398V9.53054H19.3801L23.07 4.18454H26.731L21.9656 10.8085L26.963 18.2468H23.3895L19.67 12.3778H17.8396V18.2468H14.8179V12.3782" fill="white"/>
<path d="M28.4458 4.18454H31.4674V12.4357C31.4674 13.5592 31.7725 14.397 32.3826 14.9493C32.9927 15.5015 33.7917 15.7774 34.7796 15.777C35.9223 15.777 36.7891 15.4527 37.38 14.804C37.971 14.1553 38.2662 13.269 38.2656 12.145V4.18454H41.2879V17.8108C41.3071 18.7507 41.103 19.6818 40.6924 20.5275C40.3159 21.2861 39.7749 21.9512 39.1089 22.4743C38.4804 22.9709 37.7732 23.3587 37.0166 23.6217C36.3259 23.8658 35.5994 23.9937 34.8669 24C33.4139 24 32.2566 23.7723 31.3951 23.3169C30.4431 22.7876 29.6001 22.0827 28.9105 21.2395L31.4679 19.6708C31.9084 20.1282 32.4242 20.5065 32.9928 20.7893C33.5252 21.0355 34.1061 21.1594 34.6927 21.1519C35.6726 21.1827 36.6276 20.8402 37.3647 20.1938C38.0809 19.5544 38.4394 18.6436 38.4402 17.4614V16.7064H38.3817C37.8682 17.3167 37.2355 17.8158 36.5223 18.173C35.7706 18.4953 34.9574 18.649 34.1399 18.6233C33.3792 18.6419 32.6231 18.4987 31.9218 18.2032C31.2206 17.9078 30.59 17.4667 30.072 16.9093C28.9871 15.7667 28.4446 14.2364 28.4446 12.3183L28.4458 4.18454Z" fill="white"/>
<path d="M44.687 4.18455H47.5343V5.72431H47.5922C47.8271 5.16377 48.2146 4.68041 48.7106 4.3292C49.189 3.98572 49.764 3.80283 50.3528 3.80684C50.9355 3.78645 51.5112 3.93816 52.0081 4.24302L50.9335 7.23655C50.7699 7.10528 50.5826 7.00662 50.3818 6.94585C50.1947 6.87737 49.9982 6.83811 49.7992 6.8295C49.5208 6.82523 49.2445 6.87741 48.9868 6.98288C48.7292 7.08835 48.4956 7.24493 48.3001 7.44317C48.1047 7.64141 47.9514 7.87719 47.8496 8.1363C47.7478 8.3954 47.6995 8.67243 47.7077 8.9507V18.2484H44.686L44.687 4.18455Z" fill="#DADADA"/>
<path d="M52.357 8.48397C51.6597 10.2381 51.6597 12.1924 52.357 13.9465C52.7152 14.8606 53.2553 15.6925 53.9444 16.3918C54.6336 17.0911 55.4575 17.6432 56.3663 18.0147C58.4397 18.8275 60.7435 18.8275 62.8169 18.0147C63.7259 17.6435 64.55 17.0915 65.2392 16.3921C65.9285 15.6928 66.4685 14.8608 66.8265 13.9465C67.5235 12.1924 67.5235 10.2381 66.8265 8.48397C66.4686 7.5697 65.9286 6.73773 65.2394 6.03853C64.5501 5.33933 63.726 4.78749 62.8169 4.41656C60.7437 3.60276 58.4395 3.60276 56.3663 4.41656C55.4575 4.78779 54.6335 5.33973 53.9443 6.0389C53.2551 6.73806 52.7151 7.56988 52.357 8.48397ZM56.3374 14.4552C55.6929 13.8162 55.2537 12.9994 55.0759 12.1094C54.898 11.2194 54.9897 10.2966 55.3391 9.45899C55.6886 8.62136 56.2799 7.907 57.0375 7.40725C57.7951 6.90749 58.6846 6.64505 59.5921 6.65349C60.1988 6.63548 60.8026 6.74372 61.3653 6.97136C61.928 7.199 62.4372 7.54108 62.8607 7.97589C63.6908 8.85027 64.1535 10.0099 64.1535 11.2155C64.1535 12.4212 63.6908 13.5808 62.8607 14.4552C61.9866 15.3029 60.8168 15.777 59.5992 15.777C58.3815 15.777 57.2117 15.3029 56.3376 14.4552H56.3374Z" fill="#DADADA"/>
<path d="M80.6285 16.5328H80.5706C80.0543 17.197 79.3799 17.7212 78.609 18.0577C77.7747 18.438 76.8675 18.6313 75.9507 18.6243C74.9102 18.6376 73.8791 18.4245 72.929 17.9999C72.0466 17.604 71.2553 17.0303 70.6047 16.3146C69.9708 15.6165 69.4774 14.8026 69.1517 13.9176C68.8272 13.0536 68.6599 12.1385 68.6577 11.2156C68.6636 10.3137 68.8408 9.42126 69.1801 8.58567C69.5337 7.69722 70.0456 6.88034 70.6909 6.17476C71.3589 5.44213 72.1699 4.85408 73.0739 4.44692C74.0227 4.01686 75.0539 3.7987 76.0956 3.80762C77.0244 3.79055 77.9446 3.98961 78.7833 4.38906C79.5041 4.72261 80.1214 5.2446 80.57 5.8999H80.6279V4.18595H83.6496V18.2482H80.6285V16.5328ZM72.203 12.9735C72.4312 13.5198 72.7615 14.0175 73.1762 14.4401C73.5853 14.8615 74.0741 15.1974 74.6143 15.428C75.1557 15.6602 75.7391 15.7789 76.3282 15.7766C76.9098 15.7746 77.4849 15.6552 78.0192 15.4256C78.5535 15.1959 79.0359 14.8607 79.4375 14.4401C79.8441 14.014 80.1691 13.5169 80.3964 12.9735C80.8612 11.8476 80.8612 10.5835 80.3964 9.45761C80.1689 8.91432 79.8439 8.41724 79.4375 7.99096C79.035 7.56815 78.5504 7.23194 78.0134 7.00289C77.4814 6.77276 76.9079 6.65413 76.3282 6.65432C75.7391 6.65215 75.1558 6.77078 74.6143 7.00289C74.0744 7.23408 73.5856 7.56989 73.1762 7.99096C72.7617 8.41369 72.4314 8.91143 72.203 9.45761C71.7373 10.5833 71.7373 11.8478 72.203 12.9735Z" fill="#DADADA"/>
<path d="M97.9735 16.5328H97.9154C97.3991 17.197 96.7247 17.7213 95.9537 18.0577C95.1195 18.438 94.2123 18.6313 93.2955 18.6243C92.255 18.6376 91.224 18.4245 90.274 17.9999C89.3915 17.6041 88.6001 17.0304 87.9495 16.3146C87.3155 15.6165 86.8222 14.8026 86.4965 13.9176C86.172 13.0536 86.0048 12.1385 86.0027 11.2156C86.0085 10.3137 86.1858 9.42125 86.5251 8.58566C86.8786 7.6972 87.3905 6.88031 88.0359 6.17475C88.7039 5.44211 89.5149 4.85406 90.4189 4.44691C91.3677 4.01686 92.3988 3.7987 93.4405 3.80762C94.3694 3.79053 95.2895 3.98959 96.1283 4.38906C96.849 4.72259 97.4664 5.24458 97.915 5.8999H97.9731V0.00140381H100.995V18.2482H97.9731L97.9735 16.5328ZM89.5477 12.9735C89.776 13.5198 90.1063 14.0175 90.5209 14.4401C90.9301 14.8615 91.4189 15.1973 91.959 15.428C92.5005 15.6602 93.0838 15.7789 93.673 15.7766C94.2545 15.7746 94.8297 15.6552 95.3639 15.4256C95.8982 15.1959 96.3807 14.8607 96.7823 14.4401C97.1889 14.014 97.5139 13.5169 97.7412 12.9735C98.206 11.8476 98.206 10.5835 97.7412 9.4576C97.5137 8.91432 97.1887 8.41724 96.7823 7.99096C96.3798 7.56811 95.8952 7.23189 95.3582 7.00289C94.8262 6.77273 94.2527 6.6541 93.673 6.65432C93.0839 6.65216 92.5005 6.7708 91.959 7.00289C91.4191 7.23409 90.9304 7.5699 90.5209 7.99096C90.1065 8.4137 89.7762 8.91144 89.5477 9.4576C89.0821 10.5833 89.0821 11.8478 89.5477 12.9735Z" fill="#DADADA"/>
<path d="M59.5917 13.1684C60.6703 13.1684 61.5447 12.294 61.5447 11.2153C61.5447 10.1367 60.6703 9.2623 59.5917 9.2623C58.5131 9.2623 57.6387 10.1367 57.6387 11.2153C57.6387 12.294 58.5131 13.1684 59.5917 13.1684Z" fill="white"/>
</svg>
