<?xml version="1.0" encoding="utf-8"?>
<!-- Generator: Adobe Illustrator 26.2.1, SVG Export Plug-In . SVG Version: 6.00 Build 0)  -->
<svg version="1.1" id="Layer_1" xmlns="http://www.w3.org/2000/svg" xmlns:xlink="http://www.w3.org/1999/xlink" x="0px" y="0px"
	 viewBox="0 0 900 160.2" style="enable-background:new 0 0 900 160.2;" xml:space="preserve">
<style type="text/css">
	.st0{fill:#FFFFFF;}
</style>
<path class="st0" d="M728,114.5c-7.3,0-11.8-3.2-11.8-7.9c0-12.3,16.2-9.3,28.4-15.2C745.4,104.2,741,114.5,728,114.5 M787,133.1
	v-1.8c-4.9-4-5.1-6.7-5.1-12.1V75.2c0-22.5-2.8-39.2-47.2-39.2c-37.3,0-51.5,11.7-51.5,31.6h35.9c1-8.1,7.9-9.1,13.2-9.1
	c3.9,0,12.2,0.8,12.2,7.7c0,17.6-67.1-1.8-67.1,41.2c0,19.6,15.8,28.3,33.5,28.3c14,0,24.8-2.8,35.5-12.7l1.8,10.1H787z
	 M560.3,114.5c-7.3,0-11.8-3.2-11.8-7.9c0-12.3,16.2-9.3,28.4-15.2C577.8,104.2,573.5,114.5,560.3,114.5 M619.3,133.1v-1.8
	c-4.9-4-5.1-6.7-5.1-12.1V75.2c0-22.5-2.6-39.2-47.2-39.2c-37.3,0-51.3,11.7-51.3,31.6h35.9c0.8-8.1,7.9-9.1,13-9.1
	c4,0,12.2,0.8,12.2,7.7c0,17.6-67.1-1.8-67.1,41.2c0,19.6,16,28.3,33.7,28.3c14,0,24.7-2.8,35.3-12.7l1.8,10.1L619.3,133.1z
	 M367.5,38.8h-37.3v94.3h37.3V38.8z M330.2,28.5h37.3V1.8h-37.3V28.5z M143,75.4c0-10.1,6.3-16.4,17.4-16.4
	c8.9,0,16.6,7.7,16.6,16.4H143z M214.2,94.4C214.8,60.1,193.9,36,159,36c-30.2,0-53.3,19.8-53.3,50.8c0,31.7,23.3,48.8,53.5,48.8
	c21.9,0,45.6-7.7,52.1-31h-35.7c-2.8,5.5-8.1,8.3-14,8.3c-10.1,0.2-18.4-7.9-18.6-18c0-0.2,0-0.4,0-0.6L214.2,94.4z M220.3,133.1
	h37.5v-48c0-12.1,3-19.6,14.6-19.6c10.5,0,13,8.3,13,17.8v49.8h37.3V76.5c0-25.9-11.6-40.5-36.3-40.5c-14.2,0-23.5,6.1-32,17.4V38.8
	h-34L220.3,133.1z M666.6,38.8c-0.8-15.2,3.6-15.2,15.6-15.2V0h-16c-23.9,0-36.7,5.3-36.7,38.8h-12.6v21.5h12.4v72.8h37.3V60.3h15.6
	V38.8L666.6,38.8z M835.1,99.5l20.1,33.6H900l-39.3-57.8l34.7-36.6h-43.6L828,67.4V3.4h-37.3v129.7H828v-26.5L835.1,99.5z
	 M504.5,41.1C501.3,18.4,484.9,0,449,0c-32.4,0-56,13.8-56,41.3c0,49.6,74.4,36,74.4,55.8c0,6.1-6.9,9.5-17.6,9.5
	c-4.2,0-8.3-1.1-12-3.2c-3.6-2.3-6.2-6-7.1-10.3h-40.5c0.8,19.8,17,37.4,42.8,42.1l-0.1,24.9H457l12.2-25.7
	c23.7-5.2,38.9-19.2,38.9-42.7c0-47.1-74.4-35-74.4-54.6c0-4.5,4.1-7.3,13.4-7.3c3.8-0.1,7.6,0.7,11,2.4c3.4,1.8,5.6,5.1,6.1,8.9
	L504.5,41.1z M90.6,85.2l48.1-81.9H91.9L69.6,47.2L47.3,3.4H0l48.1,82.5v47.2h42.4L90.6,85.2z"/>
</svg>
